<?xml version="1.0" encoding="utf-8"?>
<!-- Generator: Adobe Illustrator 25.4.1, SVG Export Plug-In . SVG Version: 6.00 Build 0)  -->
<svg version="1.1" id="Layer_1" xmlns="http://www.w3.org/2000/svg" xmlns:xlink="http://www.w3.org/1999/xlink" x="0px" y="0px"
	 viewBox="0 0 500 500" style="enable-background:new 0 0 500 500;" xml:space="preserve">
<style type="text/css">
	.st0{fill:#FFFFFF;}
	.st1{opacity:0.63;}
	.st2{fill:#66CC8A;}
	.st3{fill:#F5F5F5;}
	.st4{opacity:0.63;fill:#66CC8A;}
	.st5{fill:#E0E0E0;}
	.st6{fill:#EBEBEB;}
	.st7{fill:#263238;}
	.st8{fill:#FAFAFA;}
	.st9{opacity:0.8;}
	.st10{fill:#455A64;}
	.st11{fill:#FFBE9D;}
	.st12{fill:#EB996E;}
	.st13{opacity:0.2;}
	.st14{opacity:0.3;}
</style>
<rect y="0" class="st0" width="500" height="500"/>
<g class="st1">
	<path class="st2" d="M465.4,76l-11.8-6l1-1.9c1.8-3.5,0.6-7.7-2.7-9.3l-11.8-6c-3.2-1.7-7.4-0.2-9.1,3.3l-1,1.9l-5.6-2.9l0.2-0.3
		l-3-1.5l-0.2,0.3l-3.8-2l-1.6,3.2l3.8,2l-18.7,36.5c-0.2,0.3-0.2,0.3-0.2,0.3c-2.6,5-0.8,11.1,4.2,13.7l22.4,11.5
		c5,2.6,10.9,0.4,14-4.8l18.7-36.5l3.5,1.8L465.4,76z M433.8,57.6c1-1.9,2.8-2.5,4.6-1.6l11.8,6c1.8,0.9,2.3,2.8,1.3,4.7l-1,1.9
		l-17.7-9L433.8,57.6z M438.6,112.4c-1.8,3.5-5.9,4.9-9.1,3.3L407,104.2c-0.3-0.2-0.3-0.2-0.3-0.2c-3.2-1.7-4.5-5.8-2.7-9.3
		l18.7-36.5l34.5,17.6L438.6,112.4z"/>
	<path class="st2" d="M415.5,97.9c3.1-4,5.5-8.7,7.8-13.1c2.3-4.4,4.7-9.1,6-14c-3.1,4-5.8,8.5-7.8,13.1
		C419.3,88.3,416.9,93,415.5,97.9z"/>
	<path class="st2" d="M422.6,101.5c2.8-4.1,5.5-8.7,7.8-13.1c2.3-4.4,4.7-9.1,6-14c-3.1,4-5.8,8.5-7.8,13.1
		C426.4,91.9,424,96.6,422.6,101.5z"/>
	<path class="st2" d="M429.4,104.9c3.1-4,5.8-8.5,7.8-13.1c2.3-4.4,4.7-9.1,6-14c-3.1,4-5.8,8.5-7.8,13.1
		C433.2,95.3,430.8,100.1,429.4,104.9z"/>
</g>
<g class="st1">
	<path class="st2" d="M68.6,132.8L56.8,143l-1.6-1.9c-3-3.5-8.1-4-11.4-1.2l-11.8,10.2c-3.3,2.8-3.5,8-0.5,11.4l1.6,1.9l-5.6,4.9
		l-0.3-0.3l-3,2.6l0.3,0.3l-3.8,3.3l2.7,3.2l3.8-3.3l31.7,36.7c0.3,0.3,0.3,0.3,0.3,0.3c4.4,5.1,11.8,5.8,16.8,1.5l22.5-19.4
		c5-4.3,5.3-11.8,1-17.4L67.8,139l3.6-3.1L68.6,132.8z M34.4,159.1c-1.6-1.9-1.5-4.2,0.2-5.7l11.8-10.2c1.8-1.5,4.1-1.3,5.7,0.6
		l1.6,1.9l-17.8,15.3L34.4,159.1z M96.5,178.3c3,3.5,2.8,8.6-0.5,11.4l-22.5,19.4c-0.3,0.3-0.3,0.3-0.3,0.3
		c-3.3,2.8-8.4,2.3-11.4-1.2l-31.7-36.7l34.6-29.9L96.5,178.3z"/>
	<path class="st2" d="M70.3,197c-2.9-5.2-7-9.9-10.8-14.4c-3.8-4.4-7.9-9.2-12.6-12.8c2.9,5.2,6.7,10.2,10.8,14.4
		C61.5,188.6,65.6,193.4,70.3,197z"/>
	<path class="st2" d="M77.4,190.9c-3.2-4.9-7-9.9-10.8-14.4c-3.8-4.4-7.9-9.2-12.6-12.8c2.9,5.2,6.7,10.2,10.8,14.4
		C68.6,182.5,72.7,187.2,77.4,190.9z"/>
	<path class="st2" d="M84.2,185c-2.9-5.2-6.7-10.2-10.8-14.4c-3.8-4.4-7.9-9.2-12.6-12.8c2.9,5.2,6.7,10.2,10.8,14.4
		C75.4,176.6,79.5,181.3,84.2,185z"/>
</g>
<path class="st3" d="M353.2,435.4c-1.6-1.4-5.1-5.7-2.4-10.7c1-1.8,3.1-2.8,5-3.6c2-0.7,3.9-1.6,5.5-2.9c3-2.6,3.8-6.8,5.8-10.2
	c2.3-3.9,6.6-6.9,11.1-6.6c5.2,0.2,9.5,4.5,11.5,9.3s2,10.2,2.1,15.4c0,2.9-0.1,6.1-2.2,8.1c-2,1.8-4.9,1.8-7.5,1.7l-28.3-0.9"/>
<path class="st4" d="M407.2,357.6h-74.4l13.4,79.9c0.6,3.4,3,6.2,6.4,7.1l0.3,0.1c0.2,0.1,0.4,0.1,0.7,0.2c0.5,0.1,1,0.2,1.5,0.2
	v0.1h0.4h33.1c0.6,0,1.2-0.1,1.8-0.2c4-0.6,7-3.8,7.5-7.8l6.5-55.1l0.3-2.2l0,0l2.5-21.8L407.2,357.6z M393.2,408.6h-7.6l0.8-23.2
	h8.8L393.2,408.6z M396,385.4h7.3l-2.7,23.2H394L396,385.4z M374.2,434.3l-0.5-20.1h11l-0.7,20.1H374.2z M362.3,414.2H373l0.5,20.1
	h-9.6L362.3,414.2z M363.1,434.3h-9c-0.9-5.4-2-12.5-3.2-20.1h10.5L363.1,434.3z M361.8,408.6l-1.8-23.2h12.2l0.5,23.2H361.8z
	 M373.6,408.6l-0.6-23.2h12.6l-0.8,23.2H373.6z M372.9,379.8l-0.5-21.5h14.1l-0.7,21.5H372.9z M372.2,379.8h-12.6l-1.7-21.5h13.7
	L372.2,379.8z M358.9,379.8h-13.3l-1.3-8.3c-1.4-8.7-1.9-12-2.2-13.2h15.1L358.9,379.8z M359.3,385.4l1.8,23.2h-11
	c-0.4-2.4-0.7-4.7-1.1-7.1c-0.9-5.5-1.7-11-2.5-16.1H359.3z M349.4,408.6h-7.2l-3.9-23.2h7.4C346.8,392.5,348.1,400.5,349.4,408.6
	L349.4,408.6z M350.2,414.2c1.1,7,2.2,13.8,3.1,20.1h-6.9l-3.4-20.1H350.2z M384.8,434.3l0.7-20.1h7.3l-1.8,20.1H384.8z
	 M386.6,379.8l0.7-21.5h10.3l-1.8,21.5H386.6z M341.4,358.4c0.3,1.5,1.6,10,3.5,21.5h-7.5l-3.6-21.5H341.4z M397.5,434.3h-5.8
	l1.7-20.1h6.4L397.5,434.3z M403.9,379.8h-7.5l1.8-21.5h8.2L403.9,379.8z"/>
<path class="st5" d="M342.9,377.2l0.8,0.3l2.2,0.9l8.4,3.5l30.3,12.8l-0.3,0.1l25.7-60.7l0,0l0.1,0.4l-41.7-17.7l0.3-0.1L350,360.3
	c-2.3,5.3-4.1,9.6-5.4,12.5c-0.6,1.4-1.1,2.5-1.4,3.3l-0.4,0.9L342.9,377.2c0,0,0-0.1,0.1-0.3s0.2-0.5,0.3-0.8l1.4-3.3l5.3-12.5
	c4.5-10.7,10.9-25.9,18.5-43.9l0.1-0.2l0.2,0.1l41.6,17.6l0.2,0.1l-0.1,0.2l0,0c-9.7,22.8-18.6,43.8-25.8,60.6l-0.1,0.2l-0.2-0.1
	l-30.4-13l-8.3-3.6l-2.2-0.9L342.9,377.2z"/>
<path class="st5" d="M384.6,394.9c0-0.1-0.1-0.1-0.1-0.2c-0.1-0.2-0.1-0.4-0.3-0.6c-0.2-0.6-0.5-1.4-0.9-2.5c-0.8-2.2-1.9-5.2-3.3-9
	l-10.7-29.8c0.3-0.6,0.1-0.2,0.1-0.3l0,0h0.1l0.1-0.1l0.3-0.1l0.5-0.2l1-0.5l2.1-0.9l4.1-1.8l7.7-3.5l13-5.8l8.8-3.9l2.4-1l0.6-0.2
	c0.1-0.1,0.2-0.1,0.2-0.1l-0.2,0.1l-0.6,0.3l-2.4,1.1l-8.7,4l-13,5.9l-7.7,3.5l-4,1.8l-2.1,0.9l-1,0.5l-0.5,0.2l-0.3,0.1l-0.1,0.1
	h-0.1l0,0l0,0c0-0.1-0.1,0.3,0.1-0.3c4.1,11.6,7.9,22.2,10.6,29.9c1.3,3.8,2.4,6.9,3.2,9.1c0.4,1,0.6,1.9,0.8,2.5
	c0.1,0.3,0.1,0.5,0.2,0.6C384.6,394.8,384.6,394.9,384.6,394.9z"/>
<path class="st5" d="M383.1,346.6c-0.1,0.1-3.5-6.6-7.5-15s-7.2-15.1-7.1-15.2s3.5,6.6,7.5,15S383.3,346.5,383.1,346.6z"/>
<path class="st5" d="M342.3,377.4c0-0.1,7.3-2.3,16.3-4.9s16.4-4.5,16.4-4.4s-7.3,2.3-16.3,4.9S342.3,377.6,342.3,377.4z"/>
<rect x="108.6" y="53.7" class="st6" width="299" height="251.4"/>
<path class="st5" d="M109.1,71c0-0.1,66.7-0.3,148.9-0.3s149,0.2,149,0.3s-66.7,0.3-148.9,0.3S109.1,71.2,109.1,71z"/>
<circle class="st5" cx="118.2" cy="62" r="3.2"/>
<circle class="st5" cx="127.1" cy="62" r="3.2"/>
<circle class="st5" cx="137" cy="62" r="3.2"/>
<g id="freepik--Floor--inject-35">
	<path class="st7" d="M460.6,445.6c0,0.1-97.6,0.3-217.9,0.3s-218-0.1-218-0.3s97.6-0.3,218-0.3S460.6,445.4,460.6,445.6z"/>
</g>
<path class="st8" d="M396,331.7c0-1.8-0.1-102.5-0.2-257.9L396,74H89.2l0,0l0.3-0.3c0,93.5,0,181.6,0,257.9l-0.2-0.2L396,331.7
	l-306.7,0.2H89v-0.2c0-76.3,0-164.4,0-257.9v-0.3h0.3h306.8h0.2v0.2C396.1,229.2,396,329.9,396,331.7z"/>
<rect x="89.2" y="73.8" class="st8" width="306.8" height="257.9"/>
<rect x="89.8" y="91.6" class="st6" width="110.2" height="25.2"/>
<path class="st7" d="M117.6,112c0,0,0-0.3,0-0.9s0-1.5,0-2.5c0-2.2-0.1-5.3-0.1-9.1l0.2,0.2H99.5l0.3-0.3l0,0v6.5c0,2.1,0,4.1,0,6
	l-0.2-0.2l13.1,0.1l3.8,0.1h1h0.4c-0.4,0-0.9,0.1-1.3,0.1l-3.7,0.1l-13.3,0.1h-0.2V112c0-1.9,0-3.9,0-6v-3.2c0-0.5,0-1.1,0-1.6v-1.7
	l0,0c-0.2,0.2,0.3-0.3,0.3-0.3H118h0.2v0.2c0,3.8-0.1,6.9-0.1,9.2c0,1,0,1.9,0,2.5C117.8,111.4,117.7,111.7,117.6,112z"/>
<path class="st7" d="M117.6,99.4c0,0-0.2,0.3-0.7,0.7s-1.1,1.1-1.9,1.9c-1.6,1.6-3.9,3.7-6.4,6c-0.7,0-0.2,0-0.4,0l0,0l0,0h-0.1
	l-0.1-0.1l-0.2-0.2l-0.5-0.4l-0.9-0.8l-1.7-1.6l-2.9-2.8c-0.8-0.8-1.5-1.4-1.9-1.9c-0.2-0.2-0.5-0.5-0.7-0.7c0,0,0.3,0.2,0.8,0.6
	s1.2,1,2,1.7l2.9,2.6l1.7,1.6l0.9,0.8l0.5,0.4l0.2,0.2l0.1,0.1l0.1,0.1l0,0h-0.3c2.5-2.3,4.8-4.4,6.5-5.9c0.8-0.7,1.5-1.3,2-1.7
	C117,99.7,117.3,99.5,117.6,99.4z"/>
<path class="st7" d="M105.4,105c-0.8,1.3-1.8,2.6-2.9,3.7c-1,1.2-2,2.3-3.2,3.3c0.8-1.3,1.8-2.5,2.9-3.7
	C103.1,107.1,104.2,106,105.4,105z"/>
<path class="st7" d="M117.8,112.1c-1.2-1.1-2.2-2.2-3.2-3.5c-1.1-1.2-2-2.5-2.8-3.8c1.2,1.1,2.2,2.2,3.2,3.5
	C116,109.4,117,110.7,117.8,112.1z"/>
<path class="st7" d="M187.4,103.8c0,0.2-12.9,0.3-28.8,0.3s-28.8-0.1-28.8-0.3s12.9-0.3,28.8-0.3S187.4,103.7,187.4,103.8z"/>
<rect x="198.6" y="203.8" class="st2" width="197.4" height="43.3"/>
<g class="st9">
	<rect x="198.6" y="203.8" class="st0" width="197.4" height="43.3"/>
</g>
<path class="st2" d="M213.6,217.3h11.7c1.2,0,2.2,1,2.2,2.2v11.7c0,1.2-1,2.2-2.2,2.2h-11.7c-1.2,0-2.2-1-2.2-2.2v-11.7
	C211.3,218.3,212.3,217.3,213.6,217.3z"/>
<path class="st0" d="M218.2,229c-0.2,0-0.4-0.1-0.6-0.2l-3.3-2.5c-0.5-0.3-0.6-0.9-0.3-1.4s0.9-0.6,1.4-0.3c0.1,0,0.1,0.1,0.1,0.1
	l2.6,1.9l5.1-5.6c0.4-0.4,1-0.4,1.4-0.1c0.4,0.4,0.4,1,0.1,1.4l0,0l-5.7,6.2C218.7,228.9,218.5,229,218.2,229z"/>
<rect x="198.6" y="160.3" class="st2" width="197.4" height="43.3"/>
<path class="st7" d="M394.9,203.7c0,0.1-43.6,0.3-97.4,0.3s-97.4-0.1-97.4-0.3s43.6-0.3,97.4-0.3S394.9,203.6,394.9,203.7z"/>
<rect x="198.7" y="290.3" class="st2" width="197.4" height="41.5"/>
<g class="st9">
	<rect x="198.7" y="290.3" class="st0" width="197.4" height="41.5"/>
</g>
<path class="st2" d="M213.7,303.8h11.7c1.2,0,2.2,1,2.2,2.2v11.7c0,1.2-1,2.2-2.2,2.2h-11.7c-1.2,0-2.2-1-2.2-2.2V306
	C211.4,304.8,212.4,303.8,213.7,303.8z"/>
<path class="st0" d="M218.3,315.5c-0.2,0-0.4-0.1-0.6-0.2l-3.3-2.5c-0.4-0.3-0.5-1-0.2-1.4s1-0.5,1.4-0.2l2.6,1.9l5.1-5.6
	c0.3-0.4,1-0.5,1.4-0.2s0.5,1,0.2,1.4l-0.1,0.1L219,315C218.8,315.4,218.6,315.5,218.3,315.5z"/>
<g class="st9">
	<rect x="198.6" y="160.3" class="st0" width="197.4" height="43.3"/>
</g>
<path class="st2" d="M213.6,173.8h11.7c1.2,0,2.2,1,2.2,2.2v11.7c0,1.2-1,2.2-2.2,2.2h-11.7c-1.2,0-2.2-1-2.2-2.2V176
	C211.3,174.8,212.3,173.8,213.6,173.8z"/>
<path class="st0" d="M218.2,185.5c-0.2,0-0.4-0.1-0.6-0.2l-3.3-2.5c-0.5-0.3-0.6-0.9-0.3-1.4s0.9-0.6,1.4-0.3c0.1,0,0.1,0.1,0.1,0.1
	l2.6,1.9l5.1-5.6c0.4-0.4,1-0.4,1.4-0.1c0.4,0.4,0.4,1,0.1,1.4l0,0L219,185C218.7,185.4,218.5,185.5,218.2,185.5z"/>
<path class="st2" d="M396,331.7c0-1.8-0.1-102.5-0.2-257.9L396,74H89.2l0,0l0.3-0.3c0,93.5,0,181.6,0,257.9l-0.2-0.2L396,331.7
	l-306.7,0.2H89v-0.2c0-76.3,0-164.4,0-257.9v-0.3h0.3h306.8h0.2v0.2C396.1,229.2,396,329.9,396,331.7z"/>
<path class="st2" d="M89.8,91.6c0-0.2,68.4-0.3,152.8-0.3s152.8,0.1,152.8,0.3s-68.4,0.3-152.8,0.3S89.8,91.8,89.8,91.6z"/>
<circle class="st2" cx="99.2" cy="82.4" r="3.3"/>
<circle class="st2" cx="108.3" cy="82.4" r="3.3"/>
<path class="st2" d="M120.8,80.1c1.3,1.3,1.3,3.4,0,4.6c-1.3,1.3-3.4,1.3-4.6,0c-1.3-1.3-1.3-3.4,0-4.6
	C117.4,78.8,119.5,78.8,120.8,80.1C120.7,80.1,120.7,80.1,120.8,80.1z"/>
<path class="st7" d="M130,127c0.2,0,0.5,0,0.7,0l2.1-0.1l7.6-0.1h0.1l0.1,0.1l3.4,4.4l0.1,0.1v0.1c0,2,0,4.2,0,6.5v0.3h-3.3h-13.7
	h-0.2V138c0-2.3,0-4.3,0.1-6l0,0l0,0l2.3-3.7C129.4,127.9,129.7,127.4,130,127c0,0.1-0.1,0.3-0.2,0.4l-0.6,1l-2.2,3.7V132
	c0,1.7,0,3.7,0.1,6l-0.2-0.2h13.7h3.1l-0.3,0.3c0-2.3,0-4.5,0-6.5l0.1,0.1l-3.3-4.4l0.2,0.1l-7.5-0.1h-2.1
	C130.5,127.1,130.2,127.1,130,127z"/>
<path class="st7" d="M143.8,131.8c-0.5,0.1-1,0.2-1.4,0.2c-0.9,0.1-2.2,0.2-3.8,0.3l0.2-0.2c0,0.8-0.3,1.6-0.8,2.3
	c-0.3,0.4-0.6,0.7-1,0.9s-0.9,0.3-1.4,0.3c-1,0-2.1-0.4-2.8-1.2c-0.6-0.7-1-1.5-1.1-2.4l0.2,0.2c-1.5,0-2.7-0.1-3.5-0.1
	c-0.4,0-0.9,0-1.3-0.1c0.4-0.1,0.9-0.1,1.3-0.1c0.9,0,2.1-0.1,3.5-0.1h0.1v0.2c0.2,0.8,0.5,1.5,1.1,2.1c0.6,0.7,1.5,1,2.4,1
	c0.4,0,0.8-0.1,1.2-0.3c0.3-0.2,0.6-0.4,0.9-0.8c0.4-0.6,0.7-1.3,0.7-2.1v-0.2h0.2c1.6-0.1,2.9-0.1,3.8-0.1
	C142.7,131.7,143.2,131.7,143.8,131.8z"/>
<path class="st7" d="M181.3,127.5c0.3-0.1,0.6-0.1,0.9-0.1v0.2c-2,0.1-8.2,0.2-15.4,0.2c-4.5,0-8.6,0-11.5-0.1l-3.5-0.1
	c-0.4,0-0.9,0-1.3-0.1c0.4-0.1,0.9-0.1,1.3-0.1l3.5-0.1c2.9-0.1,7-0.1,11.5-0.1c7.3,0,13.4,0.1,15.4,0.2v0.2
	C181.9,127.6,181.6,127.6,181.3,127.5z"/>
<path class="st7" d="M181.3,134.1c0.3-0.1,0.6-0.1,0.9-0.1v0.2c-2,0.1-8.2,0.2-15.4,0.2c-4.5,0-8.6,0-11.5-0.1l-3.5-0.1
	c-0.4,0-0.9,0-1.3-0.1c0.4-0.1,0.9-0.1,1.3-0.1l3.5-0.1c2.9,0,7-0.1,11.5-0.1c7.3,0,13.4,0.1,15.4,0.2v0.2
	C181.9,134.2,181.6,134.2,181.3,134.1z"/>
<path class="st7" d="M181.3,140.6c0.3-0.1,0.6-0.1,0.9-0.1v0.2c-2,0.1-8.2,0.2-15.4,0.2c-4.5,0-8.6,0-11.5-0.1l-3.5-0.1
	c-0.4,0-0.9,0-1.3-0.1c0.4-0.1,0.9-0.1,1.3-0.1l3.5-0.1c2.9-0.1,7-0.1,11.5-0.1c7.3,0,13.4,0.1,15.4,0.2v0.2
	C181.9,140.7,181.6,140.7,181.3,140.6z"/>
<path class="st7" d="M130,173.9c0.2,0,0.5-0.1,0.7-0.1l2.1-0.1l7.6-0.1h0.1l0.1,0.1l3.4,4.4l0.1,0.1v0.1c0,2,0,4.2,0,6.5v0.3h-3.3
	h-13.7h-0.2v-0.2c0-2.3,0-4.3,0.1-6v-0.1l0,0l2.3-3.7C129.4,174.7,129.7,174.3,130,173.9c-0.1,0.2-0.1,0.3-0.2,0.4l-0.6,1l-2.1,3.7
	v-0.1c0,1.7,0,3.7,0.1,6l-0.2-0.2h13.7h3.1l-0.3,0.3c0-2.3,0-4.5,0-6.5l0.1,0.1l-3.3-4.4l0.2,0.1l-7.5-0.1h-2.1
	C130.5,174,130.2,174,130,173.9z"/>
<path class="st7" d="M143.8,178.6c-0.5,0.1-1,0.2-1.4,0.2c-0.9,0.1-2.2,0.2-3.8,0.3l0.2-0.2c0,0.8-0.3,1.6-0.8,2.3
	c-0.3,0.4-0.6,0.7-1,0.9s-0.9,0.3-1.4,0.3c-1,0-2.1-0.4-2.8-1.2c-0.6-0.7-1-1.5-1.1-2.4l0.2,0.2c-1.5,0-2.7-0.1-3.5-0.1
	c-0.4,0-0.9,0-1.3-0.1c0.4-0.1,0.9-0.1,1.3-0.1l3.5-0.1h0.1v0.2c0.2,0.8,0.5,1.5,1.1,2.1c0.6,0.7,1.5,1,2.4,1c0.4,0,0.8-0.1,1.2-0.3
	c0.3-0.2,0.6-0.4,0.9-0.8c0.4-0.6,0.7-1.3,0.7-2.1v-0.2h0.2c1.6,0,2.9-0.1,3.8-0.1C142.7,178.5,143.2,178.5,143.8,178.6z"/>
<path class="st7" d="M181.3,174.4c0.3-0.1,0.6-0.1,0.9-0.1v0.2c-2,0.1-8.2,0.2-15.4,0.2c-4.5,0-8.6,0-11.5-0.1l-3.5-0.1
	c-0.4,0-0.9,0-1.3-0.1c0.4-0.1,0.9-0.1,1.3-0.1l3.5-0.1c2.9-0.1,7-0.1,11.5-0.1c7.3,0,13.4,0.1,15.4,0.2v0.2
	C181.9,174.5,181.6,174.5,181.3,174.4z"/>
<path class="st7" d="M181.3,180.9c0.3-0.1,0.6-0.1,0.9-0.1v0.1c-2,0.1-8.2,0.2-15.4,0.2c-4.5,0-8.6,0-11.5-0.1l-3.5-0.1
	c-0.4,0-0.9,0-1.3-0.1c0.4-0.1,0.9-0.1,1.3-0.1l3.5-0.1c2.9-0.1,7-0.1,11.5-0.1c7.3,0,13.4,0.1,15.4,0.2v0.2
	C181.9,181,181.6,181,181.3,180.9z"/>
<path class="st7" d="M181.3,187.5c0.3-0.1,0.6-0.1,0.9-0.1v0.2c-2,0.1-8.2,0.2-15.4,0.2c-4.5,0-8.6,0-11.5-0.1l-3.5-0.1
	c-0.4,0-0.9,0-1.3-0.1c0.4-0.1,0.9-0.1,1.3-0.1l3.5-0.1c2.9-0.1,7-0.1,11.5-0.1c7.3,0,13.4,0.1,15.4,0.2v0.2
	C181.9,187.6,181.6,187.5,181.3,187.5z"/>
<path class="st7" d="M130,220.7c0.2,0,0.5-0.1,0.7-0.1l2.1-0.1l7.6-0.1h0.1l0.1,0.1l3.4,4.4l0.1,0.1v0.1c0,2,0,4.2,0,6.5v0.3h-3.3
	h-13.7h-0.2v-0.2c0-2.3,0-4.3,0.1-6l0,0l0,0l2.3-3.7C129.4,221.6,129.7,221.2,130,220.7c-0.1,0.2-0.1,0.4-0.2,0.5l-0.6,1l-2.2,3.7
	v-0.1c0,1.7,0,3.7,0.1,6l-0.2-0.2h13.7h3.1l-0.3,0.3c0-2.3,0-4.5,0-6.5l0.1,0.1l-3.3-4.4l0.2,0.1l-7.5-0.1h-2.1
	C130.5,220.9,130.2,220.8,130,220.7z"/>
<path class="st7" d="M143.8,225.5c-0.5,0.1-1,0.2-1.4,0.2c-0.9,0.1-2.2,0.2-3.8,0.3l0.2-0.2c0,0.8-0.3,1.6-0.8,2.3
	c-0.3,0.4-0.6,0.7-1,0.9s-0.9,0.3-1.4,0.3c-1,0.1-2.1-0.4-2.8-1.1c-0.6-0.7-1-1.5-1.1-2.4l0.2,0.2c-1.5,0-2.7,0-3.5-0.1
	c-0.4,0-0.9,0-1.3-0.1c0.4-0.1,0.9-0.1,1.3-0.1l3.5-0.1h0.1v0.2c0.2,0.8,0.5,1.5,1.1,2.1c0.6,0.7,1.5,1,2.4,1c0.4,0,0.8-0.1,1.2-0.3
	c0.3-0.2,0.6-0.4,0.9-0.8c0.4-0.6,0.7-1.3,0.7-2.1v-0.2h0.2c1.6-0.1,2.9-0.1,3.8-0.1C142.7,225.4,143.2,225.4,143.8,225.5z"/>
<path class="st7" d="M181.3,221.2c0.3-0.1,0.6-0.1,0.9-0.1v0.2c-2,0.1-8.2,0.2-15.4,0.2c-4.5,0-8.6,0-11.5-0.1l-3.5-0.1
	c-0.4,0-0.9,0-1.3-0.1c0.4-0.1,0.9-0.1,1.3-0.1l3.5-0.1c2.9-0.1,7-0.1,11.5-0.1c7.3,0,13.4,0.1,15.4,0.2v0.2
	C181.9,221.3,181.6,221.3,181.3,221.2z"/>
<path class="st7" d="M181.3,227.8c0.3-0.1,0.6-0.1,0.9-0.1v0.2c-2,0.1-8.2,0.2-15.4,0.2c-4.5,0-8.6,0-11.5-0.1l-3.5-0.1
	c-0.4,0-0.9,0-1.3-0.1c0.4-0.1,0.9-0.1,1.3-0.1l3.5-0.1c2.9-0.1,7-0.1,11.5-0.1c7.3,0,13.4,0.1,15.4,0.2v0.2
	C181.9,227.9,181.6,227.8,181.3,227.8z"/>
<path class="st7" d="M181.3,234.3c0.3-0.1,0.6-0.1,0.9-0.1v0.2c-2,0.1-8.2,0.2-15.4,0.2c-4.5,0-8.6,0-11.5-0.1l-3.5-0.1
	c-0.4,0-0.9,0-1.3-0.1c0.4-0.1,0.9-0.1,1.3-0.1l3.5-0.1c2.9,0,7-0.1,11.5-0.1c7.3,0,13.4,0.1,15.4,0.2v0.2
	C181.9,234.4,181.6,234.4,181.3,234.3z"/>
<path class="st2" d="M380.1,190.5h-7.6c-1.7,0-3-1.3-3-2.9c0,0,0,0,0-0.1v-12.7h1v12.7c0,1.1,0.9,2,2,2c0,0,0,0,0.1,0h7.6
	c1.1,0,2-0.9,2-2v-12.2h1v12.2C383.1,189.2,381.8,190.5,380.1,190.5L380.1,190.5z"/>
<rect x="368.2" y="174.9" class="st2" width="16.2" height="1"/>
<path class="st2" d="M373.4,175.4h-1v-1.1c0-1.1,0.9-2,2-2h4c1.1,0,2,0.9,2,2v0.9h-1v-0.9c0-0.6-0.4-1-1-1h-4c-0.6,0-1,0.4-1,1
	V175.4z"/>
<path class="st2" d="M374,186.8c-0.3-1.4-0.3-2.9-0.3-4.3c-0.1-1.4,0-2.9,0.3-4.3c0.3,1.4,0.3,2.9,0.3,4.3
	C374.3,183.9,374.3,185.4,374,186.8z"/>
<path class="st2" d="M376.4,186.8c-0.3-1.4-0.3-2.9-0.3-4.3c-0.1-1.4,0-2.9,0.3-4.3c0.3,1.4,0.3,2.9,0.3,4.3
	C376.7,183.9,376.6,185.4,376.4,186.8z"/>
<path class="st2" d="M378.7,186.8c-0.3-1.4-0.3-2.9-0.3-4.3c-0.1-1.4,0-2.9,0.3-4.3c0.3,1.4,0.3,2.9,0.3,4.3
	C379.1,183.9,379,185.4,378.7,186.8z"/>
<path class="st2" d="M380.1,231.5h-7.6c-1.7,0-3-1.4-3-3.1v-12.7h1v12.7c0,1.1,0.9,2.1,2,2.1h7.6c1.1,0,2-0.9,2-2.1v-12.2h1v12.2
	C383.1,230.2,381.8,231.5,380.1,231.5C380.2,231.5,380.1,231.5,380.1,231.5z"/>
<rect x="368.2" y="215.9" class="st2" width="16.2" height="1"/>
<path class="st2" d="M373.4,216.4h-1v-1.1c0-1.1,0.9-2,2-2h4c1.1,0,2,0.9,2,2v0.9h-1v-0.9c0-0.6-0.4-1-1-1h-4c-0.6,0-1,0.4-1,1
	V216.4z"/>
<path class="st2" d="M374,227.8c-0.3-2.9-0.3-5.7,0-8.6C374.3,222.1,374.3,224.9,374,227.8z"/>
<path class="st2" d="M376.4,227.8c-0.3-2.9-0.3-5.7,0-8.6C376.7,222.1,376.7,224.9,376.4,227.8z"/>
<path class="st2" d="M378.7,227.8c-0.3-2.9-0.3-5.7,0-8.6C379.1,222.1,379.1,224.9,378.7,227.8z"/>
<path class="st2" d="M380.1,321.7h-7.6c-1.7,0-3-1.3-3-2.9c0,0,0,0,0-0.1V306h1v12.7c0,1.1,0.9,2,2,2c0,0,0,0,0.1,0h7.6
	c1.1,0,2-0.9,2-2v-12.3h1v12.2C383.1,320.3,381.8,321.6,380.1,321.7L380.1,321.7z"/>
<rect x="368.2" y="306" class="st2" width="16.2" height="1"/>
<path class="st2" d="M373.4,306.5h-1v-1.1c0-1.1,0.9-2,2-2h4c1.1,0,2,0.9,2,2v0.9h-1v-0.9c0-0.6-0.4-1-1-1h-4c-0.6,0-1,0.4-1,1
	V306.5z"/>
<path class="st2" d="M374,317.9c-0.3-2.9-0.3-5.7,0-8.6C374.3,312.2,374.3,315.1,374,317.9z"/>
<path class="st2" d="M376.4,317.9c-0.3-2.9-0.3-5.7,0-8.6C376.7,312.2,376.7,315.1,376.4,317.9z"/>
<path class="st2" d="M378.7,317.9c-0.3-2.9-0.3-5.7,0-8.6C379.1,312.2,379.1,315.1,378.7,317.9z"/>
<path class="st7" d="M384.3,143.3c0-0.3-0.1-0.6,0-0.9c0-0.6,0-1.5,0-2.6c0-2.2-0.1-5.3-0.1-9.1l0.2,0.2h-18.3l0.3-0.3l0,0v3.3
	c0,1.1,0,2.2,0,3.2c0,2.1,0,4.1,0,6L366,143l13.1,0.1l3.8,0.1h1L384.3,143.3c-0.4-0.1-0.9-0.1-1.3-0.1l-3.7,0.1l-13.3,0.1h-0.2v-0.2
	c0-1.9,0-3.9,0-6v-6.5l0,0c-0.2,0.2,0.3-0.3,0.3-0.3l18.3,0.1h0.2v0.2c0,3.8-0.1,6.9-0.1,9.2c0,1,0,1.9-0.1,2.5
	C384.3,142.7,384.3,143,384.3,143.3z"/>
<path class="st7" d="M384.3,130.7c-0.2,0.3-0.4,0.5-0.6,0.7c-0.5,0.4-1.1,1.1-1.9,1.9c-1.6,1.6-3.9,3.7-6.4,6H375l0,0l0,0l-0.1-0.1
	l-0.1-0.1l-0.2-0.2l-0.5-0.4l-0.9-0.8l-1.7-1.6l-2.9-2.7c-0.8-0.8-1.5-1.4-1.9-1.9c-0.2-0.2-0.5-0.5-0.6-0.7
	c0.3,0.2,0.5,0.4,0.8,0.6c0.5,0.4,1.2,1,2,1.8l2.9,2.6l1.7,1.6l0.9,0.8l0.5,0.4l0.2,0.2l0.1,0.1h0.1l0,0l0,0c-0.2,0,0.4,0-0.4,0
	c2.5-2.3,4.8-4.4,6.5-5.9c0.9-0.8,1.5-1.3,2-1.8C383.7,131.1,384,130.9,384.3,130.7z"/>
<path class="st7" d="M372.1,136.4c-0.8,1.3-1.8,2.5-2.9,3.6c-1,1.2-2,2.3-3.2,3.3c0.8-1.3,1.8-2.6,2.9-3.7
	C369.8,138.4,370.9,137.3,372.1,136.4z"/>
<path class="st7" d="M384.4,143.4c-1.2-1.1-2.2-2.2-3.2-3.5c-1.1-1.2-2-2.5-2.8-3.8c1.2,1.1,2.2,2.2,3.2,3.5
	C382.7,140.8,383.6,142.1,384.4,143.4z"/>
<path class="st7" d="M394.9,116.9c0,0.1-43.6,0.3-97.4,0.3S200,117,200,116.9s43.6-0.3,97.4-0.3S394.9,116.7,394.9,116.9z"/>
<path class="st7" d="M394.9,160.3c0,0.1-43.6,0.3-97.4,0.3s-97.4-0.1-97.4-0.3s43.6-0.3,97.4-0.3S394.9,160.1,394.9,160.3z"/>
<path class="st7" d="M394.9,246.3c0,0.1-43.6,0.3-97.4,0.3s-97.4-0.1-97.4-0.3s43.6-0.3,97.4-0.3S394.9,246.1,394.9,246.3z"/>
<path class="st7" d="M394.9,290.3c0,0.1-43.6,0.3-97.4,0.3s-97.4-0.1-97.4-0.3s43.6-0.3,97.4-0.3S394.9,290.1,394.9,290.3z"/>
<path class="st7" d="M225.3,147c0,0,0.2,0,0.6-0.1c0.6-0.2,1-0.6,1.3-1.1c0.4-0.6,0.2-1.6,0.2-2.7s0-2.4,0-3.7s0-2.9,0-4.5
	c0-0.4,0-0.8,0-1.2s0-0.8-0.1-1.2c-0.3-0.8-1-1.3-1.8-1.4h-11.9c-1,0-1.8,0.7-1.9,1.6c-0.1,0.9,0,2,0,3c0,2,0,3.9,0,5.7
	c0,0.9,0,1.8,0,2.7c0,0.4,0,0.8,0.1,1.2s0.3,0.7,0.6,1s0.6,0.4,0.9,0.5c0.4,0.1,0.7,0.1,1.1,0.1h2.2l6.5,0.1l1.8,0.1
	C224.9,147,225.1,147,225.3,147c-0.1,0.1-0.3,0.1-0.6,0l-1.8,0.1l-6.5,0.1h-2.2c-0.4,0-0.8,0-1.2-0.1c-0.9-0.2-1.6-0.9-1.8-1.8
	c-0.1-0.4-0.1-0.9-0.1-1.3c0-0.9,0-1.8,0-2.7c0-1.8,0-3.7,0-5.7v-1.5c0-0.5,0-1,0-1.6c0.2-1.2,1.3-2,2.5-2h11.9
	c1,0.1,1.9,0.7,2.2,1.7c0.1,0.4,0.2,0.9,0.1,1.3c0,0.4,0,0.8,0,1.2c0,1.6,0,3.1,0,4.5s0,2.6,0,3.7c0,0.6,0,1.1,0,1.5
	s-0.1,0.9-0.3,1.3c-0.3,0.5-0.8,0.9-1.4,1.1C225.8,147.1,225.5,147.1,225.3,147z"/>
<path class="st7" d="M225.3,276.8c0,0,0.2,0,0.6-0.1c0.6-0.2,1-0.6,1.3-1.1c0.4-0.6,0.2-1.6,0.2-2.7s0-2.4,0-3.7s0-2.9,0-4.5
	c0-0.4,0-0.8,0-1.2c0-0.4,0-0.8-0.1-1.2c-0.3-0.8-1-1.3-1.8-1.4h-11.9c-1,0-1.8,0.7-1.9,1.6c-0.1,0.9,0,2,0,3c0,2,0,3.9,0,5.7
	c0,0.9,0,1.8,0,2.7c0,0.4,0,0.8,0.1,1.2c0.1,0.4,0.3,0.7,0.6,1s0.6,0.4,0.9,0.5c0.4,0.1,0.7,0.1,1.1,0.1h2.2l6.5,0.1h1.8
	C224.9,276.7,225.1,276.7,225.3,276.8c-0.1,0-0.3,0.1-0.6,0h-1.8l-6.5,0.1h-2.2c-0.4,0-0.8,0-1.2-0.1c-0.9-0.2-1.6-0.9-1.8-1.8
	c-0.1-0.4-0.1-0.9-0.1-1.3c0-0.9,0-1.8,0-2.7c0-1.8,0-3.7,0-5.7v-1.5c0-0.5,0-1,0-1.6c0.2-1.2,1.3-2,2.5-2h11.9
	c1,0.1,1.9,0.7,2.2,1.7c0.1,0.4,0.2,0.9,0.1,1.3c0,0.4,0,0.8,0,1.2c0,1.6,0,3.1,0,4.5s0,2.6,0,3.7c0,0.5,0,1.1,0,1.5
	s-0.1,0.9-0.3,1.3c-0.3,0.5-0.8,0.9-1.4,1.1C225.8,276.8,225.5,276.8,225.3,276.8z"/>
<path class="st7" d="M198.6,328c0,0,0-0.2,0-0.6s0-1,0-1.8c0-1.6,0-3.9,0-6.9c0-6,0-14.6,0-25.3c0-21.4,0.3-50.9,0.6-83.6
	s0.5-62.2,0.7-83.6c0.1-10.7,0.1-19.3,0.2-25.3c0-3,0-5.3,0.1-6.9c0-0.8,0-1.4,0-1.8s0-0.6,0-0.6s0,0.2,0,0.6s0,1,0,1.8
	c0,1.6,0,3.9,0,6.9c0,6,0,14.7,0,25.3c-0.1,21.4-0.3,50.9-0.6,83.6s-0.5,62.2-0.7,83.6c-0.1,10.7-0.1,19.3-0.2,25.3
	c0,3,0,5.3-0.1,6.9c0,0.8,0,1.4,0,1.8S198.6,328,198.6,328z"/>
<path class="st7" d="M309.9,177.7c0,0.1-15,0.3-33.6,0.3s-33.6-0.1-33.6-0.3s15-0.3,33.6-0.3S309.9,177.6,309.9,177.7z"/>
<path class="st7" d="M351.9,185.1c0,0.1-24.4,0.3-54.5,0.3s-54.5-0.1-54.5-0.3s24.4-0.3,54.5-0.3S351.9,185,351.9,185.1z"/>
<path class="st7" d="M309.9,264.8c0,0.1-15,0.3-33.6,0.3s-33.6-0.1-33.6-0.3s15-0.3,33.6-0.3S309.9,264.7,309.9,264.8z"/>
<path class="st7" d="M351.9,272.2c0,0.1-24.4,0.3-54.5,0.3s-54.5-0.1-54.5-0.3s24.4-0.3,54.5-0.3S351.9,272.1,351.9,272.2z"/>
<path class="st7" d="M309.9,135.9c0,0.1-15,0.3-33.6,0.3s-33.6-0.1-33.6-0.3s15-0.3,33.6-0.3S309.9,135.7,309.9,135.9z"/>
<path class="st7" d="M351.9,143.3c0,0.1-24.4,0.3-54.5,0.3s-54.5-0.1-54.5-0.3s24.4-0.3,54.5-0.3S351.9,143.1,351.9,143.3z"/>
<path class="st7" d="M309.9,220.4c0,0.1-15,0.3-33.6,0.3s-33.6-0.1-33.6-0.3s15-0.3,33.6-0.3S309.9,220.3,309.9,220.4z"/>
<path class="st7" d="M351.9,227.8c0,0.1-24.4,0.3-54.5,0.3s-54.5-0.1-54.5-0.3s24.4-0.3,54.5-0.3S351.9,227.7,351.9,227.8z"/>
<path class="st7" d="M309.9,306.2c0,0.1-15,0.3-33.6,0.3s-33.6-0.1-33.6-0.3s15-0.3,33.6-0.3S309.9,306,309.9,306.2z"/>
<path class="st7" d="M351.9,313.6c0,0.1-24.4,0.3-54.5,0.3s-54.5-0.1-54.5-0.3s24.4-0.3,54.5-0.3S351.9,313.4,351.9,313.6z"/>
<rect x="372.9" y="97.1" class="st5" width="13.2" height="13.2"/>
<rect x="351.4" y="97.1" class="st5" width="13.2" height="13.2"/>
<rect x="329.8" y="97.1" class="st5" width="13.2" height="13.2"/>
<polygon class="st7" points="103.3,131.7 108.9,139 113.7,131.7 "/>
<g id="freepik--Character--inject-35">
	<path class="st7" d="M91.1,226.6c13-17.2,26.8-14.7,36.3-10.6c9.7,4.4,15.8,14.3,15.3,25c-0.2,2.7-0.8,5.6,0.4,8.1
		c1.8,4,7,5.2,10,8.4c4.1,4.4,3.2,11.4,1.8,17.3s-2.9,12.6,0.6,17.5c3.2,4.5,9.2,5.8,14.2,8.2c6.7,3.2,11.7,9.1,13.8,16.2
		c2,7.2,0.2,14.9-4.7,20.5c-4.8,5.3-12.1,7.6-19.2,8.6c-38.6,5.7-74.5-21-80.2-59.6c-0.7-4.6-0.9-9.3-0.7-13.9"/>
	<path class="st10" d="M128.1,216.7c-1.5,0-3.1,0.1-4.6,0.3c-3.7,0.7-7.3,1.8-10.8,3.1c-4.2,1.4-8.2,2.3-11.1,2.1
		c-1.1,0-2.3-0.2-3.4-0.6c-0.4-0.1-0.8-0.3-1.2-0.5c1.5,0.4,3,0.6,4.6,0.7c3.7-0.1,7.4-0.9,10.9-2.2c4.1-1.4,8-2.7,10.9-3
		c1.1-0.1,2.3-0.2,3.4-0.1C127.3,216.6,127.7,216.6,128.1,216.7z"/>
	<path class="st11" d="M158.1,353.2c0.5,1.5,10.9,50.5,10.9,50.5l78.9,30.3l-4.4,11.5l-67.6-6l0,0c-39.5-5.9-41.7-25.3-39.3-46.9
		l4.1-37.1L158.1,353.2z"/>
	<path class="st2" d="M44.7,326.8c8.1-12.3,20.5-19.4,31.8-23.3l41.5,3c9.4-0.8,18.7,2.6,25.3,9.3l3.9,102.8l9.5,27H57.9L44.7,326.8
		"/>
	<path class="st8" d="M144.7,358c0,0-0.1,0-0.2-0.2l-0.7-0.5c-0.3-0.3-0.7-0.6-1.1-0.8l-1.6-1c-0.6-0.3-1.3-0.7-2.1-1.1
		c-2.9-1.3-5.9-2.1-9.1-2.4c-2.7-0.2-5.4-0.1-8.1,0.5c-3,0.6-5.9,1.9-8.5,3.6c-2.9,1.8-5.2,4.4-6.7,7.5c-0.7,1.6-1,3.4-0.9,5.2
		c0.2,1.8,0.9,3.6,2,5c1.1,1.5,2.7,2.4,4.6,2.7c1.7,0.3,3.5-0.4,4.5-1.9c0.8-1.5,0.8-3.3,0.1-4.9c-0.3-0.8-0.7-1.5-1.2-2.2
		s-1-1.3-1.7-1.8c-2.3-2.1-5.2-3.5-8.2-4.1c-2.6-0.6-5.4-0.7-8.1-0.5c-3.9,0.5-7.8,1.4-11.5,2.7l-3.1,1l-0.8,0.3
		c-0.1,0-0.2,0.1-0.3,0.1l0.3-0.1l0.8-0.3c0.7-0.3,1.7-0.6,3-1.1c3.7-1.4,7.6-2.4,11.5-2.9c2.7-0.3,5.5-0.2,8.2,0.4
		c3.1,0.6,6,2.1,8.4,4.2c0.3,0.3,0.6,0.6,0.9,0.9s0.6,0.6,0.8,1c0.5,0.7,0.9,1.5,1.2,2.3c0.8,1.7,0.7,3.7-0.1,5.3
		c-0.5,0.8-1.2,1.5-2.2,1.8c-0.9,0.4-1.9,0.5-2.8,0.3c-2-0.3-3.7-1.3-4.9-2.9c-1.2-1.5-1.9-3.4-2.1-5.3c-0.1-1.9,0.2-3.8,1-5.5
		c1.5-3.2,3.9-5.9,6.9-7.7c2.6-1.7,5.6-3,8.7-3.6c2.7-0.6,5.4-0.7,8.2-0.4c2.3,0.2,4.5,0.7,6.6,1.5c0.9,0.3,1.7,0.7,2.6,1.1
		c0.8,0.4,1.4,0.8,2,1.1l1.5,1c0.4,0.3,0.7,0.6,1.1,0.9l0.6,0.5L144.7,358z"/>
	<polygon class="st2" points="143.2,315.8 167.7,359.8 140.5,368.2 	"/>
	<path class="st7" d="M146.5,418.9c0-0.3-0.1-0.5-0.1-0.8c0-0.5-0.1-1.3-0.1-2.2c-0.1-2-0.2-4.7-0.4-8.1c-0.3-6.9-0.6-16.4-0.9-26.8
		s-0.5-20-0.6-26.9c0-3.4,0-6.2,0-8.1c0-0.9,0-1.7,0-2.2c0-0.3,0-0.5,0.1-0.8c0,0.3,0.1,0.5,0.1,0.8l0.1,2.2c0,2,0.1,4.7,0.2,8.1
		c0.2,6.9,0.4,16.4,0.7,26.9s0.6,19.9,0.8,26.8c0.1,3.4,0.1,6.2,0.2,8.1c0,0.9,0,1.7,0,2.2C146.5,418.4,146.5,418.7,146.5,418.9z"/>
	<path class="st8" d="M150.4,329.2c-0.2,0.2-0.4,0.3-0.6,0.4c-0.6,0.3-1.1,0.7-1.7,0.9c-5.6,2.5-12.1,1.9-17.3-1.5
		c-0.9-0.6-1.7-1.2-2.4-2c-0.8-0.8-1.3-1.9-1.5-3c-0.2-1.2,0.1-2.4,0.9-3.3c0.9-0.9,2.2-1.3,3.4-1c1.2,0.2,2.3,1,2.9,2
		c0.6,1,0.8,2.2,0.5,3.4c-0.2,1.1-0.7,2.1-1.4,3c-0.7,0.8-1.5,1.5-2.4,2c-1.7,0.9-3.6,1.4-5.6,1.6c-1.7,0.2-3.3,0.2-5,0.1
		c-2.4-0.2-4.8-0.8-7-1.7c-0.6-0.2-1.2-0.5-1.8-0.8c-0.2-0.1-0.4-0.2-0.6-0.4c0.2,0.1,0.4,0.2,0.6,0.3c0.4,0.2,1,0.4,1.8,0.7
		c2.3,0.8,4.6,1.3,7,1.5c1.6,0.1,3.3,0.1,4.9-0.1c1.9-0.2,3.7-0.7,5.4-1.5c0.9-0.5,1.7-1.1,2.3-1.9s1.1-1.8,1.3-2.8s0-2.1-0.5-3
		c-0.6-0.9-1.5-1.6-2.6-1.8c-1-0.3-2.2,0.1-2.9,0.8c-0.7,0.8-1,1.9-0.8,2.9s0.6,2,1.3,2.7c0.7,0.8,1.4,1.4,2.3,2c2.9,2,6.4,3,9.9,3
		c2.4,0,4.8-0.4,7-1.3C149.6,329.7,150.4,329.1,150.4,329.2z"/>
	<path class="st8" d="M145.2,418.1l-0.3-0.2l-0.8-0.6c-1-0.7-2.1-1.4-3.3-2c-4.2-2.1-8.8-3.1-13.5-3c-5.9,0-12.9,2-19.6,5.9
		c-1.7,1-3.4,2.1-4.8,3.5c-1.6,1.3-2.9,3-3.8,4.8c-1,1.9-1.3,4-0.9,6.1c0.2,1,0.8,2,1.5,2.7c0.8,0.7,1.9,1,2.9,0.7s1.8-1.1,2.3-2
		s0.8-2,0.8-3.1c0-2.1-0.7-4.2-1.9-6c-1.2-1.7-2.7-3.1-4.4-4.2c-1.7-1-3.5-1.8-5.5-2.1c-3.6-0.7-7.4-0.7-11-0.1
		c-3.2,0.5-6.3,1.1-9.4,2.1c-4.5,1.4-8.8,3.2-12.9,5.4c-1.5,0.8-2.5,1.5-3.3,1.9l-0.8,0.5l-0.3,0.2c0,0,0.1-0.1,0.3-0.2l0.8-0.6
		c0.7-0.5,1.8-1.2,3.3-2c4.1-2.3,8.4-4.2,12.9-5.5c3.1-1,6.3-1.7,9.5-2.1c3.7-0.6,7.5-0.6,11.1,0.1c2,0.4,3.9,1.1,5.7,2.2
		c1.8,1.1,3.4,2.6,4.6,4.4c1.3,1.8,2,4,2,6.2c0,1.2-0.3,2.3-0.9,3.3c-0.5,1.1-1.5,1.9-2.6,2.3c-1.2,0.3-2.5,0-3.4-0.8
		c-0.8-0.8-1.4-1.9-1.7-3c-0.4-2.2-0.1-4.5,1-6.5c1-1.9,2.3-3.6,3.9-5c1.5-1.3,3.2-2.5,4.9-3.5c6.8-3.9,13.9-5.8,19.8-5.8
		c4.7-0.1,9.4,1,13.6,3.2C142.6,416,144,416.9,145.2,418.1z"/>
	<path class="st11" d="M74.8,338.2c-3-15.4-24.8-15.9-28.6-0.8c-0.1,0.2-0.1,0.5-0.2,0.7c-5.6,23.9,13.3,94.6,18.4,98.7
		s10.1,8.7,18.8,5.1c5.1-2.1,57.9-48.8,57.9-48.8s12.2,11.7,16.3,10.7s11.9-13,11.9-13s7.6,11.3,8.5,11.5c1.5,0.3,3-0.8,3.3-2.3
		c0.1-0.6,0-1.2-0.3-1.7c-1-1.5-10.6-22.6-10.6-22.6s7.6-0.8,6.1-3.4c0,0-0.2-2.3-5.3-1.9s-5-5.4-14.6-4.8s-29.3,3-57,24.3L86.6,399
		L74.8,338.2z"/>
	<path class="st12" d="M99.4,389.8l0.3-0.3l1-0.7l3.8-2.8c4.8-3.4,9.7-6.5,14.9-9.4c7.9-4.3,16.3-7.6,25-9.7c2.5-0.5,5.1-1,7.8-1.3
		c1.4-0.1,2.7-0.3,4.1-0.4c1.4-0.1,2.9,0,4.3,0.2c1.5,0.3,2.8,0.8,4.1,1.6c1.3,0.8,2.3,1.8,3.6,2.5c0.6,0.3,1.3,0.5,2,0.5
		s1.5-0.1,2.3-0.1s1.6,0.1,2.3,0.4c0.8,0.2,1.5,0.9,1.7,1.8V372c0.2,0.3,0.3,0.7,0.2,1.1s-0.3,0.7-0.6,0.9c-0.6,0.4-1.2,0.7-1.8,0.9
		c-1.3,0.4-2.6,0.7-4,0.9l0.2-0.4l6.8,14.7c1.2,2.5,2.4,5.1,3.7,7.6c0.2,0.3,0.4,0.6,0.5,1s0.1,0.8,0,1.2c-0.1,0.8-0.5,1.5-1.1,2
		s-1.4,0.8-2.2,0.7H178c-0.1,0-0.1,0-0.2-0.1l-0.1-0.1c-0.1-0.1-0.3-0.3-0.4-0.4c-0.2-0.3-0.5-0.5-0.7-0.8
		c-2.6-3.3-4.9-6.8-7.2-10.2h0.4c-1.8,2.8-3.8,5.4-5.9,7.9c-1,1.3-2.2,2.4-3.4,3.5c-0.3,0.3-0.6,0.5-0.9,0.8
		c-0.3,0.2-0.7,0.4-1.1,0.6c-0.8,0.4-1.7,0.5-2.5,0.2c-1.5-0.5-3-1.2-4.3-2.1s-2.6-1.8-3.8-2.7c-2.4-1.9-4.6-3.9-6.8-5.9h0.3
		C124.6,408,110.3,420.4,100,429c-5.1,4.3-9.2,7.6-12.1,9.8c-1.4,1.1-2.6,1.9-3.4,2.4c-0.4,0.3-0.8,0.5-1.2,0.7c0,0,0.4-0.2,1.2-0.8
		s1.9-1.4,3.3-2.5c2.8-2.2,6.9-5.6,12-9.9c10.2-8.6,24.5-21.1,41.2-35.8l0.2-0.1l0.2,0.1c2.1,2,4.4,4,6.8,5.8
		c1.2,0.9,2.4,1.8,3.7,2.7c1.3,0.9,2.6,1.5,4.1,2c1.5,0.6,2.8-0.5,4-1.5c1.2-1.1,2.3-2.2,3.3-3.5c2.1-2.5,4-5.2,5.8-7.9l0.2-0.3
		l0.2,0.3c2.3,3.4,4.6,6.9,7.2,10.2c0.2,0.3,0.5,0.6,0.7,0.8c0.1,0.1,0.2,0.2,0.4,0.4l0.1,0.1l0,0c0,0,0,0,0,0.1s0,0.2,0-0.1l0,0
		h0.2c0.7,0.1,1.3-0.1,1.8-0.5c1.1-0.8,1.3-2.4,0.5-3.5c-1.3-2.5-2.5-5.1-3.7-7.6l-6.8-14.7l-0.1-0.3h0.3c1.3-0.2,2.6-0.4,3.9-0.8
		c0.6-0.2,1.2-0.5,1.7-0.8c0.2-0.2,0.4-0.4,0.5-0.6c0-0.2,0-0.5-0.1-0.7l0,0v-0.1c-0.2-0.7-0.7-1.2-1.4-1.4
		c-0.7-0.2-1.4-0.4-2.2-0.4s-1.5,0.1-2.3,0.1s-1.6-0.2-2.3-0.6c-1.4-0.7-2.4-1.8-3.6-2.5c-1.2-0.8-2.5-1.3-3.9-1.5
		c-2.8-0.5-5.6-0.1-8.3,0.2s-5.3,0.8-7.8,1.3c-8.7,2-17.1,5.2-25,9.5c-5.1,2.8-10.1,5.9-14.9,9.2l-3.8,2.8l-1,0.7L99.4,389.8z"/>
	<path class="st12" d="M81.8,416.1c0,0-0.1-0.3-0.2-0.7c-0.1-0.7-0.2-1.4-0.2-2.1c-0.3-4.7,1-9.3,3.7-13.2c0.4-0.6,0.8-1.1,1.3-1.7
		c0.3-0.4,0.5-0.5,0.6-0.5s-0.6,0.9-1.6,2.4c-2.4,3.9-3.7,8.4-3.6,13C81.8,415,81.9,416.1,81.8,416.1z"/>
	<path class="st2" d="M60,311.6c-0.5,0.3-18.1,5.6-20.9,23.6S38,384.7,38,384.7l47.7-3.3L72.1,318L60,311.6z"/>
	<path class="st12" d="M161.4,401.4c-0.1,0,0.1-0.6,0-1.6c-0.1-1.3-0.4-2.6-1-3.7s-1.5-2.1-2.5-2.9c-0.8-0.6-1.4-0.8-1.4-0.9
		c0.6,0.1,1.1,0.3,1.6,0.6c1.2,0.7,2.1,1.8,2.8,3s1,2.6,0.9,4C161.8,400.3,161.7,400.9,161.4,401.4z"/>
	<path class="st12" d="M165.8,396c-0.5-3.1-2.2-5.9-4.9-7.6c0.5,0.1,0.9,0.3,1.3,0.6c1,0.6,1.8,1.5,2.4,2.4c0.6,1,1,2.1,1.2,3.2
		C166,395.1,166,395.5,165.8,396z"/>
	<path class="st12" d="M165.8,384.6c0,0,0.4,0.1,1,0.6c1.4,1.3,2.3,3.2,2.3,5.1c0,0.7-0.1,1.2-0.2,1.2c-0.1-1.3-0.4-2.5-0.9-3.8
		C167.4,386.6,166.7,385.6,165.8,384.6z"/>
	<path class="st8" d="M79.9,351.5c-0.1,0-0.2,0-0.2,0l-0.7-0.1c-0.9-0.1-1.9-0.2-2.8-0.2c-3.4,0-6.8,0.6-10,1.9
		c-4.7,1.8-8.8,5.1-11.7,9.3c-1.7,2.4-2.6,5.3-2.5,8.3c0.1,1.6,0.5,3.1,1.3,4.4s2.1,2.4,3.7,2.8c1.5,0.5,3.1,0.4,4.6-0.2
		c1.4-0.7,2.4-1.9,2.8-3.4c0.3-1.5,0.3-3-0.2-4.4c-0.4-1.4-1.1-2.7-1.9-3.9c-3-4.1-7.6-6.8-12.7-7.5c-3.4-0.4-6.8,0-10,1.3
		c-0.9,0.4-1.7,0.8-2.5,1.2l-0.6,0.4l-0.2,0.1c1-0.8,2.1-1.4,3.2-1.9c3.2-1.4,6.7-1.9,10.1-1.5c5.2,0.7,9.9,3.4,13,7.5
		c0.9,1.2,1.6,2.6,2,4c0.5,1.5,0.5,3.1,0.2,4.7c-0.4,1.6-1.5,3-3.1,3.7s-3.4,0.8-5,0.2c-1.6-0.5-3-1.6-3.9-3.1
		c-0.9-1.4-1.4-3-1.5-4.6c-0.1-3.1,0.9-6.1,2.7-8.6c2.9-4.2,7.1-7.5,11.9-9.3c3.2-1.2,6.7-1.8,10.1-1.7
		C77.4,351,78.7,351.2,79.9,351.5z"/>
	<path class="st8" d="M78.3,325.6c-0.4,0.2-0.8,0.4-1.2,0.6c-0.5,0.2-1,0.4-1.5,0.5c-0.7,0.2-1.3,0.4-2,0.6
		c-0.8,0.2-1.6,0.4-2.5,0.5s-1.9,0.2-2.9,0.3c-2.2,0.1-4.4-0.1-6.6-0.5c-2.2-0.4-4.3-1-6.3-1.9c-0.9-0.4-1.8-0.8-2.6-1.2
		c-0.7-0.4-1.5-0.8-2.2-1.3c-0.6-0.4-1.1-0.8-1.7-1.2c-0.4-0.3-0.8-0.6-1.2-1c-0.3-0.3-0.7-0.6-0.9-0.9c0.1-0.1,1.4,1.2,4,2.9
		c0.7,0.4,1.4,0.9,2.2,1.2c0.8,0.4,1.7,0.8,2.6,1.2c4,1.6,8.4,2.4,12.7,2.3c1-0.1,2-0.1,2.8-0.2s1.7-0.2,2.4-0.4
		C76.5,326.2,78.2,325.5,78.3,325.6z"/>
	<path class="st7" d="M82.2,356.2c0.1,0.2,0.1,0.3,0.1,0.5c0.1,0.4,0.1,0.8,0.2,1.4c0.2,1.3,0.5,3,0.8,5.2
		c0.7,4.5,1.6,10.8,2.6,18.1v0.3h-0.3l-11.2,0.8l-25.9,1.7l-7.8,0.5l-2.1,0.1H38c0.2-0.1,0.5-0.1,0.7-0.1l2.1-0.2l7.8-0.6l25.9-1.9
		l11.2-0.8l-0.2,0.3c-1-7.3-1.8-13.6-2.4-18.1c-0.3-2.2-0.5-4-0.7-5.2c-0.1-0.6-0.1-1-0.2-1.4C82.2,356.5,82.2,356.3,82.2,356.2z"/>
	<g class="st13">
		<path d="M59.1,311.1c-0.5,1.7,0.9,3.3,1.7,4.8c1.7,2.9,1.8,6.5,1.9,9.8c0.1,6.2,1.1,12.3,2.8,18.3c1.9,5.9,5.2,11.4,10.1,15.2
			s11.4,5.6,17.4,4.1s11-6.9,11.5-13s-3.2-11.6-5.3-17.4c-1.6-4.4-2.4-9.1-3.3-13.8s-2.1-9.3-4.6-13.3s-6.3-7.4-11-8.2
			s-9.9,1.4-11.8,5.7"/>
	</g>
	<path class="st11" d="M82.1,230.4v5.3l-0.3,79.6c0,9.2,7.9,16.6,17.8,16.6l0,0c10,0,18.2-7.6,18.4-17c0.2-9.8,0.6-20.1,0.6-20.1
		s12.7-1.9,15.6-18.3c1.4-8.2,1.3-21.6,0.8-32.6c-0.4-9.6-8.6-17-18.1-16.6c-0.3,0-0.5,0-0.8,0.1L82.1,230.4z"/>
	<path class="st7" d="M131.1,254c0,1.1-0.9,2.1-2.1,2.1c-1.1,0.1-2.1-0.8-2.1-1.9v-0.1c0-1.1,0.9-2.1,2.1-2.1
		C130,252,131,252.8,131.1,254C131.1,253.9,131.1,254,131.1,254z"/>
	<path class="st7" d="M131.9,250.9c-0.3,0.3-1.8-0.9-4.1-1s-4,1.1-4.2,0.8c-0.1-0.1,0.2-0.6,0.9-1.1c1-0.7,2.2-1,3.4-1
		s2.3,0.4,3.3,1.1C131.8,250.2,132.1,250.7,131.9,250.9z"/>
	<path class="st7" d="M109.6,253.6c0,1.1-0.9,2.1-2.1,2.1c-1.1,0.1-2.1-0.8-2.1-1.9v-0.1c0-1.1,0.9-2.1,2.1-2.1
		c1.1-0.1,2.1,0.7,2.1,1.8C109.6,253.5,109.6,253.5,109.6,253.6z"/>
	<path class="st7" d="M109.6,250.9c-0.3,0.3-1.8-0.9-4.1-1s-4,1.1-4.2,0.8c-0.1-0.1,0.2-0.6,0.9-1.1c1-0.7,2.2-1,3.4-1
		c1.2,0,2.3,0.4,3.3,1.1C109.5,250.3,109.7,250.8,109.6,250.9z"/>
	<path class="st7" d="M117.5,267.9c1.2-0.4,2.4-0.6,3.7-0.6c0.6,0,1.1-0.1,1.2-0.5c0.1-0.6-0.1-1.2-0.3-1.7
		c-0.5-1.4-1.1-2.9-1.6-4.5c-2.3-6.3-3.9-11.5-3.7-11.6s2.3,5,4.6,11.3l1.6,4.5c0.4,0.7,0.4,1.5,0.3,2.3c-0.2,0.4-0.6,0.7-1,0.8
		c-0.3,0.1-0.7,0.1-1,0.1C120,268.1,118.7,268.1,117.5,267.9z"/>
	<path class="st12" d="M118.6,294.8c-7.8,0-15.4-2.2-22-6.3c0,0,5.2,11.4,21.7,10.2L118.6,294.8z"/>
	<path class="st12" d="M116.5,273.4c-0.9-1.1-2.2-1.7-3.6-1.6c-1,0.1-2,0.6-2.6,1.3c-0.6,0.8-0.7,1.8-0.2,2.7c0.7,0.9,1.9,1.2,3,0.8
		c1.1-0.4,2.1-0.9,2.9-1.7c0.3-0.2,0.5-0.4,0.7-0.7c0.2-0.3,0.2-0.6,0-0.9"/>
	<path class="st7" d="M110.8,269.4c0.4,0,0.3,2.5,2.4,4.2s4.7,1.6,4.7,1.9c0,0.1-0.6,0.5-1.7,0.5c-1.4,0-2.8-0.5-3.9-1.5
		c-1.1-0.9-1.7-2.2-1.9-3.5C110.3,270,110.6,269.3,110.8,269.4z"/>
	<path class="st7" d="M110.3,242c-0.2,0.6-2.5,0.3-5.2,0.6s-4.8,1-5.2,0.4c-0.2-0.3,0.2-0.8,1.1-1.4c1.2-0.7,2.5-1.2,3.9-1.3
		s2.7,0.1,4,0.6C109.9,241.2,110.4,241.7,110.3,242z"/>
	<path class="st7" d="M131.2,244.3c-0.4,0.5-2-0.1-3.8-0.1s-3.5,0.3-3.8-0.3c-0.2-0.3,0.1-0.8,0.8-1.3c1.9-1.2,4.4-1,6.2,0.3
		C131.2,243.5,131.4,244,131.2,244.3z"/>
	<path class="st7" d="M102.8,225c4.5,5.8,0,14.1-5.1,19.5S86.6,256,88,263.2c1.7,8.3,13.1,13.5,11.5,21.9c-0.6,3-3,5.6-2.9,8.8
		c0,5.6,7.3,8.2,9.4,13.4c2.9,7.1-4.8,14.3-4.9,21.9c0,4.4,2.5,8.4,2.7,12.7c0.3,8.9-10.1,15.5-18.8,13.4S70.4,344.7,68.4,336
		s-0.7-17.8,0.6-26.6c-0.8,3.8-6.5,4.5-9.3,1.9s-3.2-7-2.6-10.8c1.5-9.5,7.7-17.7,10.5-26.9c2.5-8.1,2.5-16.7,3.5-25
		c1.1-8.3,3.6-17.1,9.9-22.7s17.4-6.4,22.6,0.3"/>
	<path class="st10" d="M80.2,352c0.1-0.1,0.1-0.2,0.2-0.3c0.2-0.2,0.4-0.5,0.6-0.9c2-3.2,3.1-6.8,3.2-10.6c0.1-3-0.4-6-1.6-8.8
		c-1.3-3.1-3.6-6-6.1-9.2c-1.3-1.6-2.5-3.3-3.5-5.1c-1.1-1.9-1.9-3.9-2.3-6.1c-0.5-2.3-0.3-4.7,0.6-6.9c0.5-1.1,1.2-2.1,2-3
		c0.9-0.8,1.8-1.6,2.8-2.3c2-1.4,4-2.9,5.1-5.1c1-2.3,1.2-4.9,0.5-7.3c-1.2-5-4.7-8.9-6.9-13.2c-1.2-2.1-1.9-4.5-2.1-6.9
		c-0.1-2.3,0.3-4.7,1.3-6.8c1.8-3.9,4.5-7.3,7.8-10c3-2.7,5.9-4.9,8.3-7.3c2.2-2.1,4.1-4.5,5.5-7.2c1-2,1.7-4.3,1.9-6.5
		c0.1-1.4,0-2.9-0.4-4.3c-0.3-1-0.5-1.4-0.5-1.4c0.2,0.5,0.4,0.9,0.6,1.4c0.4,1.4,0.6,2.9,0.5,4.3c-0.1,2.3-0.8,4.6-1.8,6.6
		c-1.4,2.7-3.2,5.2-5.5,7.3c-2.4,2.4-5.3,4.7-8.3,7.4c-3.2,2.7-5.8,6.1-7.6,9.9c-0.9,2.1-1.3,4.3-1.2,6.6c0.2,2.4,0.9,4.6,2,6.7
		s2.5,4.2,3.8,6.3c1.4,2.2,2.5,4.5,3.1,7c0.7,2.5,0.6,5.2-0.5,7.6c-1.2,2.4-3.4,3.9-5.3,5.2c-1,0.7-1.9,1.4-2.8,2.3
		c-0.8,0.8-1.5,1.8-1.9,2.8c-0.8,2.1-1,4.4-0.5,6.6c0.4,2.1,1.2,4.1,2.3,6c1.1,1.7,2.2,3.4,3.5,5c2.4,3.1,4.7,6.1,6.1,9.3
		c1.2,2.8,1.7,5.9,1.6,9c-0.1,3.8-1.3,7.5-3.4,10.6c-0.3,0.4-0.5,0.7-0.7,0.9C80.3,351.8,80.3,351.9,80.2,352z"/>
	<path class="st7" d="M202.8,370.9l-37.9,66.2l-53.7,1.9v5.9H268l42.7-69.9c1.1-1.9,0.4-4.4-1.5-5.5c-0.6-0.3-1.2-0.5-1.9-0.5h-101
		C204.9,368.9,203.6,369.7,202.8,370.9z"/>
	<path class="st5" d="M250.3,406.2c-2.4,3.7-6,5.6-8.2,4.2s-1.9-5.5,0.4-9.2s6-5.6,8.2-4.2S252.7,402.5,250.3,406.2z"/>
</g>
<g id="freepik--Plant--inject-35">
	<path class="st7" d="M439.4,415c-0.1-0.2-0.1-0.3-0.2-0.5l-0.7-1.5c-0.8-1.9-1.5-3.9-2-5.9c-1.3-5.3-1.8-13.3,0.2-22.8
		c1.1-5.2,2.5-10.3,4.2-15.3c1.8-5.5,3.9-11.2,5.6-17.5c1.9-6.5,2.8-13.3,2.8-20.1c-0.2-7.1-2.4-14.2-4.7-21.2s-4.7-14-5.4-20.9
		c-0.8-6.7,0.6-13.5,3.9-19.3c3.1-5.6,6.9-10.5,9.8-15.5c2.7-4.6,4.7-9.6,5.9-14.9c1.7-7.6,1.9-15.4,0.4-23
		c-0.5-2.8-1.3-5.5-2.4-8.1c0,0.2,0.1,0.4,0.1,0.5c0.1,0.4,0.3,0.9,0.5,1.6c0.6,2,1.1,4,1.5,6.1c1.4,7.6,1.2,15.4-0.6,22.9
		c-1.2,5.2-3.2,10.1-5.9,14.7c-2.9,4.9-6.8,9.7-9.9,15.5c-3.4,6-4.8,12.9-4,19.7c0.7,7.1,3.1,14,5.4,21.1s4.4,14.1,4.7,21
		c0.1,6.7-0.8,13.4-2.7,19.9c-1.7,6.2-3.7,12-5.5,17.5c-1.7,5-3.1,10.2-4.2,15.4c-1.9,9.6-1.4,17.7,0.1,23c0.5,2,1.3,4,2.2,5.9
		l0.8,1.5C439.2,414.7,439.3,414.9,439.4,415z"/>
	<path class="st2" d="M448.8,259.3c0,0,5.9-18.7-4.6-29.7c-0.2-0.3-0.6-0.3-0.9-0.1c-0.1,0.1-0.2,0.2-0.2,0.4
		C442.5,233.1,441.8,242.5,448.8,259.3z"/>
	<path class="st7" d="M445.3,235.9c0,1.2,0.1,2.3,0.4,3.5c0.4,2.4,0.8,5.2,1.3,8.2s0.9,5.9,1.3,8.3c0.1,1.2,0.3,2.3,0.6,3.4
		c0.1-1.2,0.1-2.3-0.1-3.5c-0.2-2.1-0.6-5.1-1.1-8.3s-1.1-6.1-1.5-8.2C446.1,238.1,445.7,237,445.3,235.9z"/>
	<path class="st2" d="M442,303.5c0,0-3.6-19.3-18-24c-0.3-0.1-0.7,0-0.8,0.4c-0.1,0.1-0.1,0.3,0,0.4
		C424.1,283.2,427.9,291.9,442,303.5z"/>
	<path class="st7" d="M427.9,284.4c0.6,1,1.2,2,2,2.9c1.5,1.9,3.1,4.2,5,6.7l5,6.7c0.6,1,1.4,1.9,2.1,2.7c-0.5-1.1-1-2.1-1.7-3
		c-1.2-1.8-2.9-4.2-4.9-6.8s-3.8-4.9-5.2-6.5C429.6,286,428.8,285.2,427.9,284.4z"/>
	<path class="st2" d="M445.9,351.8c0,0,2.2-19.5-10.2-28.2c-0.3-0.2-0.7-0.1-0.9,0.2c-0.1,0.1-0.1,0.2-0.1,0.3
		C434.6,327.3,435.7,336.6,445.9,351.8z"/>
	<path class="st7" d="M437.9,329.5c0.2,1.1,0.6,2.2,1.1,3.3c0.8,2.3,1.8,4.9,2.9,7.9s2,5.6,2.9,7.9c0.3,1.1,0.7,2.2,1.3,3.2
		c-0.1-1.2-0.4-2.3-0.8-3.4c-0.6-2.1-1.5-4.9-2.7-8s-2.2-5.8-3.1-7.8C439.1,331.5,438.6,330.5,437.9,329.5z"/>
	<path class="st2" d="M435,400.5c0,0,1.5-19.6-11.2-27.9c-0.3-0.2-0.7-0.1-0.9,0.2c-0.1,0.1-0.1,0.2-0.1,0.4
		C422.9,376.3,424.4,385.6,435,400.5z"/>
	<path class="st7" d="M426.3,378.4c0.3,1.1,0.7,2.2,1.2,3.3l3.2,7.7c1.2,2.9,2.2,5.5,3.1,7.8c0.4,1.1,0.8,2.2,1.4,3.2
		c-0.2-1.2-0.5-2.3-0.9-3.4c-0.7-2-1.7-4.8-3-7.9s-2.5-5.7-3.4-7.7C427.5,380.4,426.9,379.4,426.3,378.4z"/>
	<path class="st2" d="M457.2,242.9c0,0,17.4-9.1,17.7-24.2c0-0.4-0.3-0.7-0.6-0.7c-0.1,0-0.3,0-0.4,0.1
		C471.4,219.8,464.2,226,457.2,242.9z"/>
	<path class="st7" d="M471.4,223.8c-0.8,0.8-1.5,1.7-2.2,2.7c-1.4,1.9-3.1,4.2-4.9,6.8s-3.5,4.8-4.9,6.8c-0.8,0.9-1.4,1.8-2,2.9
		c0.9-0.7,1.7-1.6,2.4-2.5c1.4-1.6,3.2-4,5.1-6.6s3.6-5.1,4.7-6.9C470.3,225.9,470.9,224.9,471.4,223.8z"/>
	<path class="st2" d="M438.6,283.1c0,0,17.9-8,19.2-23.1c0-0.4-0.2-0.7-0.6-0.7c-0.2,0-0.3,0-0.4,0.1
		C454.1,261,446.5,266.7,438.6,283.1z"/>
	<path class="st7" d="M453.8,264.9c-0.9,0.8-1.6,1.6-2.3,2.6l-5.3,6.5l-5.3,6.5c-0.8,0.8-1.5,1.8-2.1,2.7c0.9-0.7,1.8-1.5,2.5-2.4
		c1.5-1.6,3.4-3.8,5.5-6.3s3.9-4.9,5.1-6.6C452.6,266.9,453.3,266,453.8,264.9z"/>
	<path class="st2" d="M448.9,327.9c0,0,12.3-15.3,6.5-29.3c-0.1-0.3-0.5-0.5-0.8-0.4c-0.1,0.1-0.2,0.1-0.3,0.3
		C452.6,301.1,448.5,309.7,448.9,327.9z"/>
	<path class="st7" d="M454.2,304.8c-0.4,1.1-0.7,2.2-0.9,3.4c-0.5,2.4-1.1,5.1-1.8,8.2s-1.3,5.8-1.8,8.2c-0.3,1.1-0.5,2.2-0.7,3.4
		c0.5-1,0.9-2.1,1.2-3.3c0.6-2.1,1.3-4.9,2-8.1s1.2-6.1,1.6-8.2C454,307.1,454.2,306,454.2,304.8z"/>
	<path class="st2" d="M436.7,380.7c0,0,17.8-8.3,18.8-23.4c0-0.4-0.2-0.7-0.6-0.7c-0.1,0-0.3,0-0.4,0.1
		C451.8,358.3,444.4,364.1,436.7,380.7z"/>
	<path class="st7" d="M451.6,362.3c-0.8,0.8-1.6,1.7-2.3,2.6l-5.2,6.6L439,378c-0.8,0.9-1.5,1.8-2.1,2.8c0.9-0.7,1.8-1.5,2.5-2.4
		c1.5-1.6,3.4-3.9,5.4-6.4s3.8-4.9,5-6.7C450.5,364.3,451.1,363.3,451.6,362.3z"/>
	<path class="st7" d="M401.3,303.6c0,0,0,0.1,0,0.4s0,0.8,0,1.2c0,1.2,0.1,2.8,0.2,4.8c0.2,4.2,0.5,10,0.9,17l0,0l0,0
		c1.3,7.1,4.9,15,9.7,22.6c3.6,5.6,7.3,10.7,10.5,15.5c2.9,4.1,5.6,8.5,7.9,13c1.5,3.1,2.8,6.3,3.7,9.6c0.3,1.2,0.5,2.1,0.7,2.7
		c0.1,0.3,0.1,0.6,0.3,0.9c0-0.3-0.1-0.7-0.1-1c-0.1-0.6-0.3-1.6-0.5-2.8c-0.8-3.3-2-6.6-3.5-9.7c-2.3-4.6-4.9-9-7.8-13.2
		c-3.2-4.8-6.9-9.9-10.5-15.5c-4.8-7.6-8.4-15.3-9.7-22.3l0,0c-0.5-7-0.9-12.8-1.2-17c-0.2-2-0.3-3.6-0.4-4.7c0-0.5-0.1-0.9-0.1-1.2
		C401.4,303.7,401.3,303.7,401.3,303.6z"/>
	<path class="st2" d="M411.9,348.2c0,0-7.5-18.1,1.9-30c0.2-0.3,0.6-0.3,0.9-0.1c0.1,0.1,0.2,0.2,0.2,0.3
		C415.8,321.4,417.4,330.8,411.9,348.2z"/>
	<path class="st7" d="M413.3,324.5c-0.3,1.1-0.5,2.3-0.6,3.4c-0.3,2.1-0.6,5.1-0.8,8.3s-0.3,6.2-0.3,8.4c-0.1,1.2,0,2.3,0.2,3.5
		c0.2-1.1,0.3-2.3,0.3-3.5c0.2-2.4,0.4-5.2,0.6-8.3s0.4-5.9,0.6-8.3C413.3,326.8,413.4,325.7,413.3,324.5z"/>
	<g class="st14">
		<path d="M411.9,348.2c0,0-7.5-18.1,1.9-30c0.2-0.3,0.6-0.3,0.9-0.1c0.1,0.1,0.2,0.2,0.2,0.3C415.8,321.4,417.4,330.8,411.9,348.2z
			"/>
	</g>
	<path class="st2" d="M435.2,391.8c0,0-6-18.7,4.4-29.7c0.2-0.3,0.7-0.3,0.9,0c0.1,0.1,0.2,0.2,0.2,0.4
		C441.3,365.5,442,374.9,435.2,391.8z"/>
	<path class="st7" d="M438.5,368.3c-0.4,1.1-0.7,2.2-0.9,3.4c-0.4,2.1-1,5-1.5,8.2s-0.9,6.2-1,8.3c-0.2,1.2-0.2,2.3-0.1,3.5
		c0.3-1.1,0.5-2.3,0.6-3.4c0.4-2.4,0.8-5.2,1.2-8.3s0.9-5.9,1.3-8.3C438.4,370.7,438.5,369.5,438.5,368.3z"/>
	<g class="st14">
		<path d="M435.2,391.8c0,0-6-18.7,4.4-29.7c0.2-0.3,0.7-0.3,0.9,0c0.1,0.1,0.2,0.2,0.2,0.4C441.3,365.5,442,374.9,435.2,391.8z"/>
	</g>
	<path class="st2" d="M402.3,326c0,0-16.1-11.2-14.4-26.3c0-0.4,0.3-0.6,0.7-0.6c0.1,0,0.3,0.1,0.4,0.2
		C391.3,301.4,397.6,308.4,402.3,326z"/>
	<g class="st14">
		<path d="M402.3,326c0,0-16.1-11.2-14.4-26.3c0-0.4,0.3-0.6,0.7-0.6c0.1,0,0.3,0.1,0.4,0.2C391.3,301.4,397.6,308.4,402.3,326z"/>
	</g>
	<path class="st7" d="M390.8,305.3c0.3,1.1,0.8,2.2,1.3,3.2c0.9,1.9,2.2,4.6,3.8,7.5s3,5.4,4.2,7.2c0.6,1,1.3,2,2,2.8
		c-0.4-1.1-1-2.1-1.6-3.1l-4-7.3l-4-7.4C392.1,307.3,391.5,306.3,390.8,305.3z"/>
	<path class="st2" d="M428.7,373.3c0,0-19.4-3-24.6-17.3c-0.1-0.3,0.1-0.7,0.4-0.8c0.1,0,0.3-0.1,0.4,0
		C408,356,416.7,359.6,428.7,373.3z"/>
	<g class="st14">
		<path d="M428.7,373.3c0,0-19.4-3-24.6-17.3c-0.1-0.3,0.1-0.7,0.4-0.8c0.1,0,0.3-0.1,0.4,0C408,356,416.7,359.6,428.7,373.3z"/>
	</g>
	<path class="st7" d="M409.2,359.8c0.8,0.9,1.7,1.6,2.6,2.3c1.7,1.3,4,3.1,6.7,5s5.1,3.5,7,4.7c1,0.7,2,1.2,3.1,1.6
		c-0.9-0.8-1.8-1.5-2.8-2.1l-6.8-4.8l-6.8-4.9C411.3,361,410.3,360.3,409.2,359.8z"/>
	<polygon class="st10" points="451.6,409 446.1,445.4 423.9,445.4 416.4,409 	"/>
	<path class="st7" d="M419.7,423c0,0,0,0.1,0.2,0.1s0.3,0.2,0.6,0.3c0.8,0.4,1.6,0.6,2.5,0.7c1.4,0.2,2.8,0.1,4.1-0.4
		c1.8-0.6,3.3-1.7,4.4-3.2c0.6-0.9,0.9-2,1-3c0.1-1.2-0.5-2.5-1.5-3.1c-1.2-0.6-2.6-0.5-3.7,0.3s-1.9,2-2.1,3.4
		c-0.3,1.4-0.4,2.7-0.3,4.1s0.4,2.9,0.9,4.2c0.5,1.4,1.4,2.7,2.6,3.7c1.2,1.1,2.7,1.7,4.3,1.8c1.6,0,3.1-0.4,4.5-1.3
		c1.3-0.8,2.4-1.8,3.3-3c1-1.1,1.5-2.5,1.7-4c0.1-1.5-0.5-2.9-1.6-3.9c-1.1-0.9-2.7-0.9-3.9-0.2c-1.2,0.6-2,1.7-2.3,3
		c-0.3,2.3,0.8,4.6,2.8,5.8c1.6,0.9,3.5,1.2,5.4,0.8c1.3-0.3,2.6-0.8,3.8-1.5c0.7-0.4,1.5-0.9,2.1-1.4c0.3-0.2,0.5-0.4,0.7-0.6
		c-0.3,0.1-0.5,0.3-0.8,0.5c-0.5,0.3-1.2,0.8-2.2,1.3c-1.2,0.7-2.4,1.1-3.8,1.4c-1.7,0.3-3.5,0.1-5.1-0.8c-1.8-1.1-2.8-3.2-2.5-5.3
		c0.2-1.1,1-2.1,2-2.6c1.1-0.6,2.4-0.5,3.3,0.2c1,0.9,1.5,2.1,1.4,3.4c-0.1,1.4-0.7,2.6-1.6,3.7s-2,2.1-3.2,2.9s-2.6,1.2-4.1,1.2
		c-1.4-0.1-2.8-0.7-3.9-1.6s-1.9-2.1-2.4-3.4s-0.8-2.6-0.9-4c-0.1-1.3,0-2.7,0.2-4c0.2-1.2,0.9-2.3,1.9-3c0.9-0.7,2.1-0.8,3.2-0.3
		c0.9,0.6,1.4,1.6,1.3,2.7c-0.1,1-0.4,2-0.9,2.8c-1,1.4-2.5,2.5-4.1,3.1c-1.2,0.4-2.6,0.5-3.9,0.4
		C421.8,423.9,420.7,423.5,419.7,423z"/>
</g>
</svg>
