<?xml version="1.0" encoding="utf-8"?>
<!-- Generator: Adobe Illustrator 25.4.1, SVG Export Plug-In . SVG Version: 6.00 Build 0)  -->
<svg version="1.1" id="Layer_1" xmlns="http://www.w3.org/2000/svg" xmlns:xlink="http://www.w3.org/1999/xlink" x="0px" y="0px"
	 viewBox="0 0 500 500" style="enable-background:new 0 0 500 500;" xml:space="preserve">
<style type="text/css">
	.st0{fill:#FFFFFF;}
	.st1{fill:#EBEBEB;}
	.st2{fill:#E0E0E0;}
	.st3{fill:#263238;}
	.st4{fill:#66CC8A;}
	.st5{opacity:0.2;}
	.st6{fill:#455A64;}
	.st7{fill:#F5F5F5;}
	.st8{fill:#FAFAFA;}
	.st9{opacity:0.5;}
	.st10{fill:#FFBE9D;}
	.st11{fill:#EB996E;}
	.st12{opacity:0.4;}
	.st13{opacity:0.3;}
</style>
<rect class="st0" width="500" height="500"/>
<g id="freepik--background-complete--inject-69">
	<path class="st1" d="M425.5,407.6c3.6-1.7,7.5-2.2,11.4-1.4c2.1,0.4,4.2,1,5.6,2.5s1.7,4.3,0,5.6c-1,0.7-2.3,1-3.5,0.9
		c-3,0-6.4-0.6-8.8,1.2c-1.4,1-2.3,2.8-3.9,3.3c-1.7,0.4-3.4-0.4-4.3-1.9c-0.8-1.5-1-3.3-0.5-4.9C422,410.6,423.4,408.6,425.5,407.6
		z"/>
	<path class="st1" d="M417.5,392.2c2.1,3,6.2,2,8.1,0.2s2.7-4.5,3.5-7.1c1.7-5.8,3.4-12,2.1-17.9c-0.3-1.8-1.1-3.5-2.3-4.9
		c-1.2-1.4-3.1-2-4.9-1.6c-2.1,0.5-3.4,2.6-4.3,4.5c-2.7,5.7-4.2,12-4.2,18.3C415.5,386.7,415.9,389.8,417.5,392.2"/>
	<path class="st1" d="M411.7,396.6c2.2-2.9,2.9-6.7,1.7-10.1c-1.2-3.4-3.2-6.4-6-8.7c-3.1-2.8-6.8-4.9-10.8-6.3
		c-1.5-0.6-3.2-0.9-4.8-0.8c-1.7,0.1-3.2,1-4.1,2.5c-1.1,2.2,0,4.8,1.1,6.9c2.1,3.8,4.4,7.4,7.1,10.8c2.1,2.7,4.5,5.4,7.8,6.6
		s6.6,1.1,8.3-1.1"/>
	<path class="st2" d="M417.4,437.9c0.1-0.4,0.2-0.9,0.2-1.4c0.1-1,0.2-2.3,0.4-3.8c0.2-1.9,0.5-3.7,0.8-5.5c0.5-2.2,1.2-4.4,2-6.5
		c0.8-2.1,1.9-4.1,3.3-5.9c1.1-1.5,2.6-2.7,4.2-3.5c1.1-0.5,2.3-0.9,3.5-1.1c0.5,0,0.9-0.1,1.4-0.2c-0.5,0-0.9,0-1.4,0
		c-1.3,0.1-2.5,0.5-3.7,1c-1.7,0.8-3.2,2-4.4,3.5c-1.4,1.8-2.6,3.8-3.4,6c-0.9,2.1-1.5,4.4-2,6.6c-0.4,1.8-0.6,3.7-0.7,5.6
		c-0.1,1.6-0.2,2.9-0.2,3.8C417.3,437,417.3,437.5,417.4,437.9z"/>
	<path class="st2" d="M417.7,435c0-0.2,0-0.4,0-0.6v-1.8c0-1.6,0-3.9,0.1-6.7c0.1-5.7,0.6-11.8,1.6-20.4c0.9-8.1,2.1-17.5,3.4-23.6
		c0.3-1.4,0.5-2.6,0.8-3.7s0.5-2,0.7-2.8s0.3-1.3,0.4-1.8c0.1-0.2,0.1-0.4,0.1-0.6c-0.1,0.2-0.2,0.4-0.2,0.6c-0.1,0.5-0.3,1-0.5,1.8
		s-0.5,1.7-0.8,2.8s-0.6,2.3-0.9,3.7c-1.6,7.2-2.7,14.5-3.5,21.9c-1,8.6-1.4,16.5-1.4,22.1c0,2.8,0,5.1,0.1,6.7
		c0,0.8,0.1,1.4,0.1,1.8C417.6,434.6,417.6,434.8,417.7,435z"/>
	<path class="st2" d="M417.7,419.9c0.1-0.6,0.1-1.3,0-1.9c-0.1-1.2-0.2-3-0.6-5.2c-0.4-2.5-1-5.1-1.7-7.5c-0.8-3-1.9-6-3.1-8.9
		c-2.2-5.3-5.4-10.2-9.3-14.4c-0.7-0.7-1.4-1.4-2.2-2c-0.3-0.3-0.6-0.6-0.9-0.8l-0.8-0.6c-0.5-0.4-1-0.7-1.6-1
		c1.9,1.5,3.6,3,5.3,4.7c3.8,4.2,6.8,9.1,9,14.3c1.2,2.9,2.3,5.8,3.2,8.8c0.7,2.5,1.3,4.9,1.8,7.5c0.4,2.1,0.6,3.9,0.8,5.1
		C417.5,418.7,417.6,419.3,417.7,419.9z"/>
	<path class="st2" d="M444.6,122.9l-54.3,16.3c-2.6,0.8-5.4-0.7-6.2-3.3l-22-73.1c-0.8-2.6,0.7-5.4,3.3-6.2l38-11.4l27.3,14.2
		l17.3,57.4C448.8,119.3,447.2,122.1,444.6,122.9z"/>
	<path class="st1" d="M403.3,44.9l4.4,14.5c1.1,3.6,4.9,5.6,8.5,4.6c0,0,0,0,0,0l14.5-4.7L403.3,44.9z"/>
	<path class="st0" d="M432.1,110.9c0-0.1,0-0.1-0.1-0.2l-0.2-0.5c-0.1-0.5-0.3-1.1-0.6-1.9c-0.5-1.7-1.3-4.1-2.2-7.2
		c-1.9-6.2-4.6-15.1-7.9-25.7l0.3,0.2l-37,11.2c0,0.1,0.3-0.6,0.2-0.3l0,0v0.1v0.1l0,0.2l0.1,0.3l0.2,0.6l0.4,1.2l0.7,2.4l1.4,4.8
		l2.8,9.2c1.8,6,3.5,11.6,5,16.8l-0.3-0.2l26.8-7.9l7.6-2.2l2-0.6l0.5-0.1C431.9,110.9,432,110.9,432.1,110.9l-0.2,0.1l-0.5,0.2
		l-2,0.6L422,114l-26.9,8.2l-0.2,0.1l-0.1-0.2c-1.6-5.2-3.3-10.8-5.1-16.8c-0.9-3-1.8-6.1-2.8-9.2l-1.4-4.8l-0.7-2.4l-0.4-1.2
		l-0.2-0.6l-0.1-0.3l0-0.2v-0.1v-0.1l0,0c-0.2,0.3,0.2-0.4,0.2-0.3l37-11.1l0.2-0.1l0.1,0.2c3.2,10.7,5.8,19.7,7.7,25.9
		c0.9,3.1,1.6,5.5,2.1,7.2l0.5,1.9l0.1,0.5C432.1,110.8,432.1,110.9,432.1,110.9z"/>
	<path class="st0" d="M413.4,117c-0.1,0-2.6-7.9-5.6-17.7s-5.2-17.8-5.1-17.9s2.6,7.9,5.6,17.7S413.5,116.9,413.4,117z"/>
	<path class="st0" d="M429.3,102.2c0,0.1-8.2,2.8-18.5,5.8s-18.6,5.5-18.7,5.3s8.2-2.8,18.5-5.8S429.3,102,429.3,102.2z"/>
	<path class="st0" d="M427,93c0,0.1-8.2,2.8-18.5,5.8s-18.6,5.5-18.7,5.3s8.2-2.8,18.5-5.8S427,92.8,427,93z"/>
	<path class="st0" d="M424,84c0,0.1-8.2,2.7-18.4,5.8s-18.5,5.4-18.5,5.3s8.2-2.7,18.4-5.8S424,83.8,424,84z"/>
	<path class="st2" d="M48,198.1l-28-5c-1.4-0.3-2.2-1.5-2-2.9l6.8-37.7c0.2-1.4,1.5-2.2,2.9-2c0,0,0,0,0,0l19.6,3.5l9,12.5
		l-5.3,29.6C50.7,197.4,49.4,198.4,48,198.1C48,198.1,48,198.1,48,198.1z"/>
	<path class="st1" d="M47.2,153.9l-1.3,7.5c-0.4,1.8,0.8,3.6,2.7,4c0,0,0,0,0.1,0l7.5,1.2L47.2,153.9z"/>
	<path class="st0" d="M45.1,189.9c0-0.1,0-0.2,0-0.4l0.2-1c0.2-0.9,0.4-2.2,0.6-3.8c0.5-3.2,1.3-7.8,2.3-13.2l0.2,0.3l-19-3.4
		l0.3-0.2l0,0v0.1v0.1v0.2l-0.1,0.3l-0.1,0.6c-0.1,0.4-0.1,0.8-0.2,1.2c-0.1,0.8-0.3,1.6-0.5,2.4c-0.3,1.6-0.6,3.2-0.9,4.7
		c-0.6,3.1-1.1,6-1.6,8.7l-0.2-0.3l13.7,2.6l3.9,0.8l1,0.2L45.1,189.9l-0.3,0l-1-0.1l-3.9-0.6L26,186.7h-0.2v-0.2
		c0.5-2.7,1-5.6,1.5-8.7c0.3-1.5,0.6-3.1,0.9-4.7c0.1-0.8,0.3-1.6,0.4-2.4c0.1-0.4,0.1-0.8,0.2-1.2l0.1-0.6l0-0.3v-0.1v-0.1v-0.1
		l0,0l0.3-0.2l19.1,3.5h0.2v0.2c-1,5.5-1.9,10.1-2.5,13.4c-0.3,1.6-0.5,2.8-0.7,3.7c-0.1,0.4-0.2,0.7-0.2,1
		C45.1,189.7,45.1,189.8,45.1,189.9z"/>
	<path class="st0" d="M35.4,188.4c0.3-3.1,0.8-6.2,1.4-9.2c0.5-3.1,1.1-6.1,1.9-9.1c-0.3,3.1-0.8,6.2-1.4,9.2
		C36.8,182.3,36.2,185.4,35.4,188.4z"/>
	<path class="st0" d="M45.9,185.4c-3.2-0.3-6.4-0.8-9.6-1.5c-3.2-0.5-6.4-1.2-9.5-2c3.2,0.3,6.4,0.8,9.6,1.5
		C39.5,183.9,42.7,184.6,45.9,185.4z"/>
	<path class="st0" d="M46.9,180.8c-3.2-0.3-6.4-0.8-9.6-1.5c-3.2-0.5-6.4-1.2-9.5-2c3.2,0.3,6.4,0.8,9.6,1.5
		C40.6,179.3,43.8,179.9,46.9,180.8z"/>
	<path class="st0" d="M47.6,176.1c-3.2-0.3-6.4-0.8-9.5-1.4c-3.2-0.5-6.3-1.2-9.5-2c3.2,0.3,6.4,0.8,9.5,1.4
		C41.3,174.6,44.5,175.2,47.6,176.1z"/>
</g>
<g id="freepik--Floor--inject-69">
	<path class="st3" d="M469.6,437.8c0,0.1-98.3,0.3-219.6,0.3s-219.6-0.1-219.6-0.3s98.3-0.3,219.6-0.3S469.6,437.6,469.6,437.8z"/>
</g>
<g id="freepik--Icons--inject-69">
	<path class="st4" d="M149.8,106.7L111,120.1c-1.9,0.7-3.9-0.3-4.6-2.2l-18-52.3c-0.6-1.9,0.3-3.9,2.2-4.6l27.1-9.4l20.1,9.5
		l14.2,41C152.7,104,151.7,106,149.8,106.7z"/>
	<path class="st4" d="M117.7,51.5l3.6,10.4c0.9,2.6,3.7,3.9,6.2,3l10.3-3.8L117.7,51.5z"/>
	<g class="st5">
		<path d="M117.7,51.5l3.6,10.4c0.9,2.6,3.7,3.9,6.2,3l10.3-3.8L117.7,51.5z"/>
	</g>
	<path class="st0" d="M140.4,98.4c-0.1-0.2-0.1-0.3-0.2-0.5c-0.1-0.3-0.3-0.8-0.5-1.4l-1.8-5.2c-1.6-4.5-3.8-10.8-6.5-18.4l0.3,0.1
		l-26.4,9.2c0,0.1,0.3-0.6,0.2-0.3l0,0l0,0l0,0v0.1l0.1,0.2l0.2,0.4l0.3,0.9l0.6,1.7c0.4,1.2,0.8,2.3,1.2,3.4
		c0.8,2.2,1.5,4.4,2.3,6.6c1.5,4.3,2.9,8.3,4.1,12l-0.3-0.1l19.2-6.4l5.4-1.8l1.4-0.5L140.4,98.4c-0.1,0.1-0.3,0.1-0.5,0.2l-1.4,0.5
		l-5.3,1.9l-19.2,6.7l-0.2,0.1l-0.1-0.2c-1.3-3.7-2.7-7.7-4.2-12l-2.3-6.6c-0.4-1.1-0.8-2.3-1.2-3.4l-0.6-1.7l-0.3-0.9l-0.2-0.4
		l-0.1-0.2v-0.1l0,0l0,0l0,0c-0.1,0.3,0.2-0.4,0.2-0.3l26.5-9.1l0.2-0.1l0.1,0.2c2.6,7.7,4.8,14,6.3,18.6l1.7,5.2
		c0.2,0.6,0.3,1,0.4,1.3S140.4,98.4,140.4,98.4z"/>
	<path class="st0" d="M127,103.3c-0.1,0.1-2.2-5.6-4.6-12.6s-4.3-12.8-4.2-12.8s2.2,5.6,4.6,12.6S127.2,103.3,127,103.3z"/>
	<path class="st0" d="M138.1,92.2c0,0.1-5.9,2.3-13.2,4.8s-13.3,4.5-13.4,4.3s5.9-2.3,13.2-4.8C132.1,94,138.1,92,138.1,92.2z"/>
	<path class="st0" d="M136.2,85.6c0,0.1-5.9,2.3-13.2,4.8s-13.3,4.5-13.4,4.3s5.9-2.3,13.2-4.8C130.2,87.4,136.2,85.4,136.2,85.6z"
		/>
	<path class="st0" d="M133.8,79.2c0,0.1-5.8,2.3-13.1,4.8s-13.2,4.4-13.3,4.3s5.8-2.3,13.1-4.8S133.7,79,133.8,79.2z"/>
	<path class="st6" d="M424.9,340.2l-20.3,10.7c-1,0.5-2.2,0.2-2.7-0.8c0,0,0,0,0,0l-14.4-27.4c-0.5-1-0.2-2.2,0.8-2.7c0,0,0,0,0,0
		l14.2-7.5l12,3.5l11.3,21.5C426.3,338.4,426,339.6,424.9,340.2C425,340.1,424.9,340.2,424.9,340.2z"/>
	<path class="st2" d="M402.5,312.3l2.9,5.4c0.7,1.3,2.4,1.9,3.7,1.2c0,0,0,0,0,0l5.4-3L402.5,312.3z"/>
	<path class="st0" d="M419,336.4c-0.2-0.3-0.4-0.7-0.6-1l-1.5-2.7l-5.2-9.6l0.3,0.1l-13.9,7.3l0.1-0.4l0,0l0,0v0.1l0.1,0.1l0.1,0.2
		l0.2,0.5l0.5,0.9l0.9,1.8l1.8,3.5l3.3,6.3l-0.3-0.1l10-5.2l2.9-1.4c0.7-0.3,1-0.5,1.1-0.5c-0.3,0.2-0.6,0.4-0.9,0.5l-2.8,1.5
		l-10.1,5.4l-0.2,0.1l-0.1-0.2c-1-2-2.2-4.1-3.3-6.3c-0.6-1.1-1.2-2.3-1.8-3.4l-0.9-1.8l-0.5-0.9l-0.2-0.5l-0.1-0.2l-0.1-0.1v-0.1
		l0,0l0,0l0,0c-0.1,0.3,0.1-0.4,0.1-0.4l13.9-7.3l0.2-0.1l0.1,0.2c2.1,4,3.8,7.4,5,9.8c0.6,1.1,1,2,1.4,2.7
		C418.7,335.7,418.9,336,419,336.4z"/>
	<path class="st0" d="M412,340.2c-1.4-2.1-2.7-4.3-3.8-6.5c-1.3-2.2-2.3-4.5-3.3-6.8c1.4,2.1,2.6,4.3,3.7,6.5
		C410,335.6,411.1,337.9,412,340.2z"/>
	<path class="st0" d="M417.2,333.1c-2.2,1.5-4.5,2.8-6.8,3.9c-2.3,1.3-4.6,2.4-7.1,3.4c2.2-1.5,4.5-2.8,6.8-3.9
		C412.5,335.2,414.8,334.1,417.2,333.1z"/>
	<path class="st0" d="M415.6,329.6c-2.2,1.4-4.5,2.7-6.8,3.9c-2.3,1.3-4.6,2.5-7.1,3.5C406.2,334.2,410.8,331.8,415.6,329.6
		L415.6,329.6z"/>
	<path class="st0" d="M413.7,326.3c-4.4,2.7-9.1,5.2-13.8,7.3C404.3,330.8,409,328.4,413.7,326.3z"/>
</g>
<g id="freepik--Spreadsheets--inject-69">
	<rect x="74.2" y="114.3" class="st7" width="387.1" height="209.9"/>
	<rect x="74.2" y="114.3" class="st3" width="387.1" height="17.7"/>
	<circle class="st8" cx="83.4" cy="123.4" r="2.2"/>
	<circle class="st8" cx="91.4" cy="123.4" r="2.2"/>
	<circle class="st8" cx="99.3" cy="123.4" r="2.2"/>
	<rect x="73.7" y="162.4" class="st6" width="14.1" height="161.8"/>
	<rect x="73.7" y="156.1" class="st6" width="387.5" height="14.1"/>
	<path class="st2" d="M87.8,315.2c-0.1,0-0.3-35.6-0.3-79.5s0.1-79.5,0.3-79.5s0.3,35.6,0.3,79.5S87.9,315.2,87.8,315.2z"/>
	<path class="st2" d="M143.1,324.2c-0.1,0-0.3-37.6-0.3-84s0.1-84,0.3-84s0.3,37.6,0.3,84S143.2,324.2,143.1,324.2z"/>
	<path class="st2" d="M201.8,324.2c-0.1,0-0.3-37.5-0.3-83.8s0.1-83.8,0.3-83.8s0.3,37.5,0.3,83.8S202,324.2,201.8,324.2z"/>
	<path class="st2" d="M259.2,324.2c-0.1,0-0.3-37.5-0.3-83.8s0.1-83.8,0.3-83.8s0.3,37.5,0.3,83.8S259.3,324.2,259.2,324.2z"/>
	<path class="st2" d="M317.9,324.2c-0.1,0-0.3-37.6-0.3-84s0.1-84,0.3-84s0.3,37.6,0.3,84S318,324.2,317.9,324.2z"/>
	<path class="st2" d="M376.5,324.2c-0.1,0-0.3-37.6-0.3-84s0.1-84,0.3-84s0.3,37.6,0.3,84S376.7,324.2,376.5,324.2z"/>
	<path class="st2" d="M435.2,324.2c-0.1,0-0.3-37.5-0.3-83.8s0.1-83.8,0.3-83.8s0.3,37.5,0.3,83.8S435.4,324.2,435.2,324.2z"/>
	<path class="st2" d="M459,183.1c0,0.1-86.3,0.3-192.7,0.3s-192.7-0.1-192.7-0.3s86.3-0.3,192.7-0.3S459,182.9,459,183.1z"/>
	<path class="st2" d="M459,170.2c0,0.1-86.3,0.3-192.7,0.3s-192.7-0.1-192.7-0.3s86.3-0.3,192.7-0.3S459,170.1,459,170.2z"/>
	<path class="st2" d="M459,196.6c0,0.1-86.3,0.3-192.7,0.3s-192.7-0.1-192.7-0.3s86.3-0.3,192.7-0.3S459,196.4,459,196.6z"/>
	<path class="st2" d="M459,210.1c0,0.1-86.3,0.3-192.7,0.3s-192.7-0.1-192.7-0.3s86.3-0.3,192.7-0.3S459,210,459,210.1z"/>
	<path class="st2" d="M459,223.6c0,0.1-86.3,0.3-192.7,0.3s-192.7-0.1-192.7-0.3s86.3-0.3,192.7-0.3S459,223.5,459,223.6z"/>
	<path class="st2" d="M459,237.2c0,0.1-86.3,0.3-192.7,0.3s-192.7-0.1-192.7-0.3s86.3-0.3,192.7-0.3S459,237,459,237.2z"/>
	<path class="st2" d="M459,250.7c0,0.1-86.3,0.3-192.7,0.3s-192.7-0.1-192.7-0.3s86.3-0.3,192.7-0.3S459,250.6,459,250.7z"/>
	<path class="st2" d="M459,264.2c0,0.1-86.3,0.3-192.7,0.3s-192.7-0.1-192.7-0.3s86.3-0.3,192.7-0.3S459,264.1,459,264.2z"/>
	<path class="st2" d="M459,277.8c0,0.1-86.3,0.3-192.7,0.3s-192.7-0.1-192.7-0.3s86.3-0.3,192.7-0.3S459,277.6,459,277.8z"/>
	<path class="st2" d="M459,291.3c0,0.1-86.3,0.3-192.7,0.3s-192.7-0.1-192.7-0.3s86.3-0.3,192.7-0.3S459,291.1,459,291.3z"/>
	<path class="st2" d="M459,304.8c0,0.1-86.3,0.3-192.7,0.3S73.7,305,73.7,304.8s86.3-0.3,192.7-0.3S459,304.7,459,304.8z"/>
	<path class="st2" d="M459,318.3c0,0.1-86.3,0.3-192.7,0.3s-192.7-0.1-192.7-0.3s86.3-0.3,192.7-0.3S459,318.2,459,318.3z"/>
	<rect x="87.8" y="170.2" class="st4" width="373.4" height="26.4"/>
	<path class="st8" d="M381.7,181.6c0,0.1-43.9,0.3-98.1,0.3s-98.1-0.1-98.1-0.3s43.9-0.3,98.1-0.3S381.7,181.4,381.7,181.6z"/>
	<path class="st8" d="M400.3,189.1c0,0.1-55,0.3-122.7,0.3s-122.7-0.1-122.7-0.3s54.9-0.3,122.7-0.3S400.3,188.9,400.3,189.1z"/>
	<rect x="143.1" y="210.1" class="st4" width="116.1" height="13.5"/>
	<rect x="143.1" y="222.1" class="st1" width="116.1" height="57.1"/>
	<path class="st3" d="M192.2,229.8c0,0.1-9.6,0.3-21.4,0.3s-21.4-0.1-21.4-0.3s9.6-0.3,21.4-0.3S192.2,229.7,192.2,229.8z"/>
	<path class="st3" d="M175.1,244.7c0,0.1-5.8,0.3-12.9,0.3s-12.9-0.1-12.9-0.3s5.8-0.3,12.9-0.3S175.1,244.5,175.1,244.7z"/>
	<path class="st3" d="M196.3,255.5c0,0.1-10.5,0.3-23.4,0.3s-23.5-0.1-23.5-0.3s10.5-0.3,23.5-0.3S196.3,255.3,196.3,255.5z"/>
	<path class="st3" d="M175.1,233.9c0,0.1-5.8,0.3-12.9,0.3s-12.9-0.1-12.9-0.3s5.8-0.3,12.9-0.3S175.1,233.7,175.1,233.9z"/>
	<path class="st3" d="M254.9,229.8c-2.3,0.3-4.5,0.4-6.8,0.3c-2.3,0.1-4.6,0-6.8-0.3c2.3-0.3,4.5-0.3,6.8-0.3
		C250.3,229.5,252.6,229.6,254.9,229.8z"/>
	<path class="st3" d="M254.9,242c-2.3,0.3-4.5,0.3-6.8,0.3c-2.3,0.1-4.6,0-6.8-0.3c2.3-0.3,4.5-0.4,6.8-0.3
		C250.3,241.6,252.6,241.7,254.9,242z"/>
	<path class="st3" d="M254.9,255.5c-2.3,0.3-4.5,0.3-6.8,0.3c-2.3,0.1-4.6,0-6.8-0.3c2.3-0.3,4.5-0.4,6.8-0.3
		C250.3,255.1,252.6,255.2,254.9,255.5z"/>
	<path class="st3" d="M254.1,272c0,0.1-4.8,0.3-10.8,0.3s-10.8-0.1-10.8-0.3s4.8-0.3,10.8-0.3S254.1,271.9,254.1,272z"/>
	<path class="st2" d="M201.8,278.2c-0.1,0-0.3-12.3-0.3-27.6s0.1-27.6,0.3-27.6s0.3,12.3,0.3,27.6
		C202.1,265.9,202,278.2,201.8,278.2z"/>
	<path class="st2" d="M258.2,263c0,0.1-12.8,0.3-28.7,0.3s-28.6-0.1-28.6-0.3s12.8-0.3,28.6-0.3S258.2,262.9,258.2,263z"/>
	<rect x="143.1" y="304.3" class="st7" width="116.1" height="14"/>
	<rect x="142.9" y="291.3" class="st4" width="116.2" height="13.5"/>
	<path class="st3" d="M197.3,312c0,0.1-10.9,0.3-24.4,0.3s-24.4-0.1-24.4-0.3s10.9-0.3,24.4-0.3S197.3,311.9,197.3,312z"/>
	<path class="st3" d="M254.1,311.3c0,0.1-4.8,0.3-10.8,0.3s-10.8-0.1-10.8-0.3s4.8-0.3,10.8-0.3S254.1,311.2,254.1,311.3z"/>
	<rect x="320.7" y="257" class="st4" width="10" height="34.1"/>
	<rect x="381.7" y="263.2" class="st4" width="10" height="27.9"/>
	<rect x="422.4" y="271" class="st3" width="10" height="20.1"/>
	<rect x="341" y="236.1" class="st6" width="10" height="55"/>
	<rect x="361.4" y="236.1" class="st3" width="10" height="55"/>
	<rect x="402" y="223.4" class="st6" width="10" height="67.6"/>
	<rect x="84.7" y="138.2" class="st4" width="8.9" height="8.9"/>
	<path class="st4" d="M98.8,151h-9.9v-9.9h9.9V151z M89.9,150h7.9v-7.9h-7.9V150z"/>
	<rect x="111.8" y="140.5" class="st2" width="8.3" height="8.3"/>
	<rect x="125.3" y="140.5" class="st2" width="8.3" height="8.3"/>
	<rect x="138.9" y="140.5" class="st2" width="8.3" height="8.3"/>
	<rect x="152.4" y="140.5" class="st2" width="8.3" height="8.3"/>
	<rect x="165.9" y="140.5" class="st2" width="8.3" height="8.3"/>
	<rect x="186.6" y="140.4" class="st2" width="87.9" height="8.5"/>
	<rect x="286.6" y="140.4" class="st2" width="87.9" height="8.5"/>
	<rect x="385.4" y="140.4" class="st2" width="75.8" height="8.5"/>
	<path class="st3" d="M461.4,324.2c0-1.6-0.1-80.8-0.2-209.9l0.2,0.2l-387.1,0.1l0,0l0.3-0.3c0,74.2,0,145.2,0,209.9l-0.2-0.2
		L461.4,324.2l-387.1,0.2H74v-0.2c0-64.7,0-135.7,0-209.9v-0.3h0.3l387.1,0.1h0.2v0.2C461.4,243.4,461.4,322.6,461.4,324.2z"/>
	<rect x="48.5" y="97.3" class="st7" width="387.1" height="209.9"/>
	<rect x="48.5" y="97.3" class="st3" width="387.1" height="17.7"/>
	<circle class="st8" cx="57.6" cy="106.4" r="2.2"/>
	<circle class="st8" cx="65.6" cy="106.4" r="2.2"/>
	<circle class="st8" cx="73.6" cy="106.4" r="2.2"/>
	<rect x="47.9" y="145.4" class="st6" width="14.1" height="161.8"/>
	<rect x="47.9" y="139.2" class="st6" width="387.5" height="14.1"/>
	<path class="st2" d="M62,298.2c-0.1,0-0.3-35.6-0.3-79.5s0.1-79.5,0.3-79.5s0.3,35.6,0.3,79.5S62.1,298.2,62,298.2z"/>
	<path class="st2" d="M117.3,307.2c-0.1,0-0.3-37.6-0.3-84s0.1-84,0.3-84s0.3,37.6,0.3,84S117.5,307.2,117.3,307.2z"/>
	<path class="st2" d="M176.1,307.2c-0.1,0-0.3-37.5-0.3-83.8s0.1-83.8,0.3-83.8s0.3,37.5,0.3,83.8S176.2,307.2,176.1,307.2z"/>
	<path class="st2" d="M233.4,307.2c-0.1,0-0.3-37.5-0.3-83.8s0.1-83.8,0.3-83.8s0.3,37.5,0.3,83.8S233.5,307.2,233.4,307.2z"/>
	<path class="st2" d="M292.1,307.2c-0.1,0-0.3-37.6-0.3-84s0.1-84,0.3-84s0.3,37.6,0.3,84S292.2,307.2,292.1,307.2z"/>
	<path class="st2" d="M350.8,307.2c-0.1,0-0.3-37.6-0.3-84s0.1-84,0.3-84s0.3,37.6,0.3,84S350.9,307.2,350.8,307.2z"/>
	<path class="st2" d="M409.4,307.2c-0.1,0-0.3-37.5-0.3-83.8s0.1-83.8,0.3-83.8s0.3,37.5,0.3,83.8S409.6,307.2,409.4,307.2z"/>
	<path class="st2" d="M433.3,166.1c0,0.1-86.3,0.3-192.7,0.3s-192.7-0.1-192.7-0.3s86.3-0.3,192.7-0.3S433.3,166,433.3,166.1z"/>
	<path class="st2" d="M433.3,153.3c0,0.1-86.3,0.3-192.7,0.3s-192.7-0.1-192.7-0.3s86.3-0.3,192.7-0.3S433.3,153.1,433.3,153.3z"/>
	<path class="st2" d="M433.3,179.6c0,0.1-86.3,0.3-192.7,0.3s-192.7-0.1-192.7-0.3s86.3-0.3,192.7-0.3S433.3,179.5,433.3,179.6z"/>
	<path class="st2" d="M433.3,193.2c0,0.1-86.3,0.3-192.7,0.3s-192.7-0.1-192.7-0.3s86.3-0.3,192.7-0.3S433.3,193,433.3,193.2z"/>
	<path class="st2" d="M433.3,206.7c0,0.1-86.3,0.3-192.7,0.3s-192.7-0.1-192.7-0.3s86.3-0.3,192.7-0.3S433.3,206.5,433.3,206.7z"/>
	<path class="st2" d="M433.3,220.2c0,0.1-86.3,0.3-192.7,0.3s-192.7-0.1-192.7-0.3s86.3-0.3,192.7-0.3S433.3,220.1,433.3,220.2z"/>
	<path class="st2" d="M433.3,233.7c0,0.1-86.3,0.3-192.7,0.3s-192.7-0.1-192.7-0.3s86.3-0.3,192.7-0.3S433.3,233.6,433.3,233.7z"/>
	<path class="st2" d="M433.3,247.3c0,0.1-86.3,0.3-192.7,0.3s-192.7-0.1-192.7-0.3s86.3-0.3,192.7-0.3S433.3,247.1,433.3,247.3z"/>
	<path class="st2" d="M433.3,260.8c0,0.1-86.3,0.3-192.7,0.3s-192.7-0.1-192.7-0.3s86.3-0.3,192.7-0.3S433.3,260.6,433.3,260.8z"/>
	<path class="st2" d="M433.3,274.3c0,0.1-86.3,0.3-192.7,0.3s-192.7-0.1-192.7-0.3s86.3-0.3,192.7-0.3S433.3,274.2,433.3,274.3z"/>
	<path class="st2" d="M433.3,287.9c0,0.1-86.3,0.3-192.7,0.3S47.9,288,47.9,287.9s86.3-0.3,192.7-0.3S433.3,287.7,433.3,287.9z"/>
	<path class="st2" d="M433.3,301.4c0,0.1-86.3,0.3-192.7,0.3s-192.7-0.1-192.7-0.3s86.3-0.3,192.7-0.3S433.3,301.2,433.3,301.4z"/>
	<rect x="62" y="153.3" class="st4" width="373.4" height="26.4"/>
	<path class="st8" d="M356,164.6c0,0.1-44,0.3-98.1,0.3s-98.1-0.1-98.1-0.3s43.9-0.3,98.1-0.3S356,164.5,356,164.6z"/>
	<path class="st8" d="M374.5,172.1c0,0.1-55,0.3-122.7,0.3s-122.7-0.1-122.7-0.3s54.9-0.3,122.7-0.3S374.5,172,374.5,172.1z"/>
	<rect x="117.3" y="193.2" class="st4" width="116.1" height="13.5"/>
	<rect x="117.3" y="205.2" class="st1" width="116.1" height="57.1"/>
	<path class="st3" d="M166.4,212.9c0,0.1-9.6,0.3-21.4,0.3s-21.4-0.1-21.4-0.3s9.6-0.3,21.4-0.3S166.4,212.7,166.4,212.9z"/>
	<path class="st3" d="M149.3,227.7c0,0.1-5.8,0.3-12.8,0.3s-12.8-0.1-12.8-0.3s5.7-0.3,12.8-0.3S149.3,227.6,149.3,227.7z"/>
	<path class="st3" d="M170.6,238.5c0,0.1-10.5,0.3-23.4,0.3s-23.5-0.1-23.5-0.3s10.5-0.3,23.5-0.3S170.6,238.4,170.6,238.5z"/>
	<path class="st3" d="M149.3,216.9c0,0.1-5.8,0.3-12.8,0.3s-12.8-0.1-12.8-0.3s5.7-0.3,12.8-0.3S149.3,216.7,149.3,216.9z"/>
	<path class="st3" d="M229.1,212.9c-2.3,0.3-4.5,0.4-6.8,0.3c-2.3,0.1-4.6,0-6.8-0.3c2.3-0.3,4.6-0.3,6.8-0.3
		C224.5,212.5,226.8,212.6,229.1,212.9z"/>
	<path class="st3" d="M229.1,225c-2.3,0.3-4.5,0.3-6.8,0.3c-2.3,0.1-4.6,0-6.8-0.3c2.3-0.3,4.6-0.4,6.8-0.3
		C224.5,224.6,226.8,224.7,229.1,225z"/>
	<path class="st3" d="M229.1,238.5c-2.3,0.3-4.5,0.3-6.8,0.3c-2.3,0.1-4.6,0-6.8-0.3c2.3-0.3,4.6-0.4,6.8-0.3
		C224.5,238.2,226.8,238.3,229.1,238.5z"/>
	<path class="st3" d="M228.3,255.1c0,0.1-4.8,0.3-10.8,0.3s-10.8-0.1-10.8-0.3s4.8-0.3,10.8-0.3S228.3,254.9,228.3,255.1z"/>
	<path class="st2" d="M176.1,261.3c-0.1,0-0.3-12.3-0.3-27.6s0.1-27.6,0.3-27.6s0.3,12.3,0.3,27.6S176.2,261.3,176.1,261.3z"/>
	<path class="st2" d="M232.4,246.1c0,0.1-12.8,0.3-28.7,0.3s-28.7-0.1-28.7-0.3s12.8-0.3,28.7-0.3S232.4,245.9,232.4,246.1z"/>
	<rect x="117.3" y="287.4" class="st7" width="116.1" height="14"/>
	<rect x="117.1" y="274.3" class="st4" width="116.2" height="13.5"/>
	<path class="st3" d="M171.5,295c0,0.1-10.9,0.3-24.4,0.3s-24.5-0.1-24.5-0.3s11-0.3,24.5-0.3S171.5,294.9,171.5,295z"/>
	<path class="st3" d="M228.3,294.4c0,0.1-4.8,0.3-10.8,0.3s-10.8-0.1-10.8-0.3s4.8-0.3,10.8-0.3S228.3,294.2,228.3,294.4z"/>
	<rect x="294.9" y="240" class="st4" width="10" height="34.1"/>
	<rect x="355.9" y="246.2" class="st4" width="10" height="27.9"/>
	<rect x="396.6" y="254" class="st3" width="10" height="20.1"/>
	<rect x="315.2" y="219.1" class="st6" width="10" height="55"/>
	<rect x="335.6" y="219.1" class="st3" width="10" height="55"/>
	<rect x="376.2" y="206.4" class="st6" width="10" height="67.6"/>
	<rect x="58.9" y="121.2" class="st4" width="8.9" height="8.9"/>
	<path class="st4" d="M73,134h-9.9v-9.9H73V134z M64.1,133H72v-7.9h-7.9V133z"/>
	<rect x="86" y="123.6" class="st2" width="8.3" height="8.3"/>
	<rect x="99.6" y="123.6" class="st2" width="8.3" height="8.3"/>
	<rect x="113.1" y="123.6" class="st2" width="8.3" height="8.3"/>
	<rect x="126.6" y="123.6" class="st2" width="8.3" height="8.3"/>
	<rect x="140.1" y="123.6" class="st2" width="8.3" height="8.3"/>
	<rect x="160.8" y="123.5" class="st2" width="87.9" height="8.5"/>
	<rect x="260.8" y="123.5" class="st2" width="87.9" height="8.5"/>
	<rect x="359.6" y="123.5" class="st2" width="75.8" height="8.5"/>
	<path class="st3" d="M435.6,307.2c0-1.6-0.1-80.8-0.2-209.9l0.2,0.2L48.5,97.6l0,0l0.3-0.3c0,74.2,0,145.2,0,209.9l-0.2-0.2
		L435.6,307.2l-387.1,0.2h-0.2v-0.2c0-64.7,0-135.7,0-209.9v-0.3h0.3l387.1,0.1h0.2v0.2C435.6,226.5,435.6,305.7,435.6,307.2z"/>
</g>
<g id="freepik--Character--inject-69">
	<path class="st4" d="M252.1,329.6l27,28.8l40.4-12l7.1,15.7c0,0-46.9,17.5-51,15.9s-28.8-22.5-28.8-22.5L252.1,329.6z"/>
	<path class="st8" d="M268.4,348c-0.6,0.7-1.2,1.4-1.9,2.1c-1.2,1.2-2.8,3-4.5,5c-2.8,3.3-4.9,6.3-5.6,7.2l-0.4,0.5l0.3-0.6
		c0.1-0.3,0.2-0.4,0.2-0.4s0,0.2-0.1,0.5l-0.1-0.1c1.6-2.6,3.3-5.1,5.3-7.5c1.5-1.7,3-3.4,4.7-5C266.9,349.1,267.6,348.5,268.4,348z
		"/>
	<path class="st8" d="M266.2,344.6c-0.7,0.8-1.4,1.5-2.2,2.1c-1.4,1.3-3.2,3.1-5.1,5.3s-3.4,4.3-4.5,5.8c-0.5,0.9-1.1,1.7-1.8,2.5
		c0.4-0.9,0.9-1.9,1.5-2.7c1.3-2.1,2.8-4.1,4.4-6c1.6-1.9,3.4-3.6,5.2-5.3C264.5,345.7,265.4,345.1,266.2,344.6z"/>
	<path class="st4" d="M323.6,431.4l-0.7-3.1l-17.5,3.5l1.2,6.8l1.1-0.1c4.9-0.5,24.8-2.9,27.9-4.4
		C339,432.4,323.6,431.4,323.6,431.4z"/>
	<g class="st9">
		<path class="st0" d="M313,437.4c-0.4-1.5-1.4-2.7-2.7-3.5c-1.3-0.8-3-1-4.5-0.5l0.9,4.9L313,437.4z"/>
	</g>
	<g class="st9">
		<path class="st0" d="M331.2,432.1c0,0,5.5,0.7,5,1.6s-20.5,4.1-29.5,4.8v-0.4l23.3-3.5C330,434.6,330.2,432.4,331.2,432.1z"/>
	</g>
	<path class="st3" d="M306.4,438.2h0.3l0.9-0.1l3.2-0.4c2.7-0.3,6.4-0.8,10.5-1.5s7.8-1.3,10.5-1.8l3.2-0.6l0.9-0.2
		c0.1,0,0.2,0,0.3-0.1h-0.3l-0.9,0.1l-3.2,0.6c-2.7,0.5-6.4,1.1-10.5,1.8s-7.8,1.2-10.5,1.5l-3.2,0.4l-0.9,0.1L306.4,438.2z"/>
	<path class="st3" d="M330,434.9c0.1-0.5,0.2-1.1,0.4-1.6c0.2-0.5,0.5-1,0.9-1.4C330.3,432.6,329.8,433.8,330,434.9z"/>
	<path class="st3" d="M324.5,433.1c0.1,0,0.3-0.3,0.5-0.8c0.1-0.3,0.2-0.6,0.2-0.9c-0.1,0-0.3,0.3-0.5,0.8
		C324.6,432.5,324.5,432.8,324.5,433.1z"/>
	<path class="st3" d="M322.9,432.6c0,0,0.3-0.2,0.6-0.5s0.4-0.6,0.4-0.6s-0.3,0.2-0.5,0.5S322.9,432.5,322.9,432.6z"/>
	<path class="st3" d="M321.8,431.1c0.6,0.1,1.2,0,1.8-0.3C323,430.8,322.4,430.9,321.8,431.1z"/>
	<path class="st3" d="M321.3,430c0.3,0.2,0.7,0.2,1.1,0.1c0.4,0,0.7-0.1,1-0.3C322.6,429.9,321.9,429.9,321.3,430L321.3,430z"/>
	<path class="st3" d="M324.8,431.5c0.4,0,0.8-0.1,1.1-0.2c0.4-0.1,0.8-0.3,1.2-0.5c0.2-0.1,0.4-0.2,0.6-0.4c0.1-0.1,0.2-0.2,0.2-0.4
		c0-0.2-0.1-0.3-0.2-0.4c-1-0.3-2,0.1-2.5,1c-0.1,0.3-0.2,0.5-0.2,0.8c0,0.1,0,0.2,0,0.3c0.1-0.4,0.2-0.7,0.4-1
		c0.2-0.3,0.5-0.6,0.9-0.8c0.4-0.2,0.9-0.3,1.4-0.1c0.2,0.1,0.2,0.3,0,0.5c-0.2,0.1-0.4,0.3-0.6,0.4c-0.4,0.2-0.7,0.3-1.1,0.5
		C325.2,431.4,324.8,431.5,324.8,431.5z"/>
	<path class="st3" d="M325.1,431.5c0.1-0.3,0.1-0.5,0-0.8c-0.1-0.3-0.2-0.6-0.4-0.8c-0.2-0.3-0.6-0.5-1-0.4
		c-0.2,0.1-0.4,0.3-0.3,0.6c0.1,0.2,0.1,0.3,0.3,0.5c0.2,0.2,0.4,0.4,0.6,0.6C324.5,431.3,324.8,431.4,325.1,431.5
		c-0.1,0-0.3-0.2-0.7-0.5c-0.2-0.2-0.4-0.4-0.6-0.6c-0.2-0.2-0.4-0.6-0.1-0.7s0.6,0.2,0.8,0.4c0.2,0.2,0.3,0.4,0.4,0.7
		C325.1,431,325.1,431.2,325.1,431.5z"/>
	<path class="st3" d="M306,433.3c0,0,0.5-0.1,1.3-0.2c1,0,2.1,0.2,3,0.7c0.9,0.5,1.7,1.3,2.2,2.2c0.4,0.7,0.5,1.2,0.5,1.2
		c0-0.1,0-0.2-0.1-0.4c-0.1-0.3-0.2-0.6-0.3-0.9c-1-2-3.1-3.2-5.3-3c-0.3,0-0.7,0.1-1,0.2C306.2,433.2,306.1,433.3,306,433.3z"/>
	<path class="st3" d="M314.9,435.3c0.9,0.1,1.7,0,2.6-0.1c0.9-0.1,1.7-0.3,2.5-0.6c0-0.1-1.1,0.2-2.6,0.4S314.9,435.3,314.9,435.3z"
		/>
	<path class="st3" d="M311.5,435.9c0,0,0.1,0.2,0.3,0.5s0.3,0.5,0.3,0.5s0-0.3-0.1-0.6S311.5,435.8,311.5,435.9z"/>
	<path class="st3" d="M310,434.5c0,0,0.1,0.2,0.3,0.4s0.4,0.2,0.4,0.2s-0.1-0.2-0.3-0.4S310,434.4,310,434.5z"/>
	<path class="st3" d="M308,434c0,0.1,0.3,0,0.5,0.1s0.5,0.2,0.5,0.1s-0.1-0.3-0.5-0.3S308,434,308,434z"/>
	<path class="st3" d="M306.6,433.9c0,0.1,0.1,0.1,0.3,0.2s0.3,0,0.3,0s-0.1-0.1-0.3-0.2S306.6,433.8,306.6,433.9z"/>
	<path class="st3" d="M221.2,410.5l60-56.6c3.7-3.8,8.8-5.9,14.1-5.9l0,0h1.2c9.6,0.6,17.6,7.8,19.1,17.4l12.5,62.3l-25,7l-9-50.5
		L264.4,411L221.2,410.5z"/>
	<path class="st3" d="M202.2,416.4c-0.3,0.7-1.9,21.5,24,21.5h69.3c8.8,0,15.9-6.7,15.9-14.9l0,0c0-8.2-7.1-14.9-15.9-14.9H231
		c-2.3,0-4.6,0.5-6.7,1.4L202.2,416.4z"/>
	<path class="st6" d="M301.7,408c0,0.1-14.3,0.3-32,0.3s-32-0.1-32-0.3s14.3-0.3,32-0.3S301.7,407.9,301.7,408z"/>
	<path class="st6" d="M292.2,371c0.2,0,0.2,3,0.7,6.6s1.4,6.5,1.2,6.6C292.4,380.1,291.7,375.5,292.2,371L292.2,371z"/>
	<path class="st6" d="M295.1,370.6c0.4,4.6,0,9.1-1.1,13.6c-0.2,0,0.3-3,0.6-6.8S295,370.6,295.1,370.6z"/>
	<path class="st6" d="M300.1,437.3c1.8-0.7,3.5-1.7,5.1-3c1.6-1.4,2.9-3.1,3.9-5c2.3-4.8,1.9-10.4-1.1-14.8
		c-1.2-1.8-2.7-3.2-4.5-4.4c-1.7-1-3.5-1.7-5.4-2.2c0.1,0,0.3,0,0.4,0c0.4,0,0.8,0.1,1.2,0.2c1.4,0.3,2.8,0.9,4,1.6
		c1.9,1.1,3.5,2.6,4.8,4.4c3.1,4.5,3.5,10.3,1.1,15.3c-1,2-2.4,3.7-4,5c-1.1,0.9-2.4,1.7-3.8,2.2c-0.4,0.1-0.7,0.3-1.1,0.4
		C300.3,437.2,300.2,437.2,300.1,437.3z"/>
	<path class="st10" d="M242.6,276.1l-0.6,3l-8.7,45c-1,5.2,2.7,10.2,8.3,11.3l0,0c5.6,1,11.1-2.4,12.2-7.6
		c1.2-5.5,2.5-11.3,2.5-11.3s7.4,0.3,10.8-8.7c1.7-4.5,3-12.1,3.9-18.3c0.8-5.5-3-10.5-8.4-11.3c-0.2,0-0.3,0-0.5-0.1L242.6,276.1z"
		/>
	<path class="st3" d="M268.5,294.6c-0.1,0.7-0.7,1.1-1.4,1c0,0,0,0,0,0c-0.6-0.1-1.1-0.7-1-1.3c0,0,0,0,0,0c0.1-0.7,0.7-1.1,1.4-1
		C268.2,293.4,268.6,294,268.5,294.6C268.5,294.6,268.5,294.6,268.5,294.6z"/>
	<path class="st3" d="M268.5,293c-0.2,0.1-0.9-0.7-2.2-1s-2.4,0.2-2.5,0s0.1-0.3,0.6-0.5c0.6-0.3,1.3-0.3,2-0.2
		c0.7,0.1,1.3,0.5,1.7,1C268.5,292.6,268.6,293,268.5,293z"/>
	<path class="st3" d="M255.8,291.7c-0.1,0.7-0.7,1.1-1.4,1c-0.6-0.1-1.1-0.6-1-1.3c0,0,0,0,0,0c0.1-0.7,0.7-1.1,1.4-1c0,0,0,0,0,0
		C255.4,290.5,255.8,291.1,255.8,291.7z"/>
	<path class="st3" d="M255.9,290.6c-0.2,0.1-1-0.7-2.2-1s-2.4,0.2-2.4,0s0.1-0.3,0.6-0.5c0.6-0.3,1.3-0.3,2-0.2
		c0.7,0.1,1.3,0.5,1.7,1C255.9,290.3,255.9,290.6,255.9,290.6z"/>
	<path class="st3" d="M258.5,301.1c0.7-0.1,1.4-0.1,2.2,0.1c0.3,0,0.7,0,0.8-0.2c0.1-0.3,0.1-0.7,0-1c-0.1-0.9-0.3-1.8-0.5-2.7
		c-0.5-2.3-0.7-4.6-0.8-7c0.6,2.3,1.1,4.6,1.4,6.9c0.1,0.9,0.3,1.8,0.4,2.7c0.1,0.4,0.1,0.9-0.1,1.3c-0.1,0.2-0.4,0.3-0.6,0.4
		c-0.2,0-0.4,0-0.6,0C259.9,301.5,259.2,301.3,258.5,301.1z"/>
	<path class="st11" d="M256.3,316.4c-4.4-0.8-8.4-2.9-11.7-5.9c0,0,1.7,7,11.2,8.1L256.3,316.4z"/>
	<path class="st3" d="M254.6,301.2c0.2,0-0.1,1.4,0.9,2.7c1,1.2,2.5,1.4,2.5,1.6s-0.4,0.2-1,0.1c-0.8-0.2-1.5-0.6-2.1-1.2
		c-0.5-0.6-0.7-1.4-0.7-2.2C254.3,301.5,254.5,301.2,254.6,301.2z"/>
	<path class="st3" d="M257.2,285.7c-0.2,0.3-1.4-0.1-3-0.2s-2.8,0-3-0.3c-0.1-0.2,0.2-0.5,0.8-0.7c0.7-0.3,1.5-0.4,2.3-0.3
		c0.8,0.1,1.6,0.3,2.2,0.7C257.1,285.2,257.3,285.5,257.2,285.7z"/>
	<path class="st3" d="M268.8,289.2c-0.3,0.2-1.1-0.2-2.2-0.5s-2-0.2-2.1-0.6c-0.1-0.2,0.1-0.4,0.6-0.6c0.6-0.2,1.2-0.3,1.9-0.1
		c0.6,0.1,1.2,0.5,1.6,0.9C268.9,288.8,268.9,289.1,268.8,289.2z"/>
	<path class="st3" d="M280.7,278.8c0.2-0.8,0.1-1.5-0.3-2.2c-0.1-0.6-0.5-1.2-1-1.5c-0.7-0.2-1.4-0.2-2,0.1c-2.3,0.7-5,0.5-6.6-1.2
		c-1.2-1.4-1.5-3.5-2.9-4.7s-3.9-0.9-5.8-0.3s-4,1.5-5.9,0.9c-1.3-0.6-2.6-1.4-3.7-2.3c-2.2-1.5-4.9-2.2-7.6-1.7
		c-2.7,0.5-4.9,2.3-6,4.8c-1,2.5-0.5,5.4,1.3,7.4c0.1,0.1,0.2,0.2,0.3,0.3c-0.9,4.8-2,12.5,0.2,13.1c3.2,0.9,4.3-7.3,4.3-7.3
		c4.3-0.5,5.3-4.8,6.5-5.4s5.9,1.2,9.6,4c4.7,3.5,12.9,4,15.7,4.1c0.2,0,0.5,0,0.8,0h0.3l0,0c0.2,0,0.4-0.1,0.5-0.2
		c0.9-0.6,1.5-1.4,1.8-2.4c0.4-0.8,0.6-1.8,0.5-2.7c-0.1-0.7-0.5-1.3-1.1-1.6C280.2,279.6,280.6,279.3,280.7,278.8z"/>
	<path class="st6" d="M275.2,280.7c0.1-0.2,0.2-0.3,0.4-0.4c0.4-0.3,1-0.4,1.5-0.3c0.9,0.3,1.3,1.2,1.1,2.1c-0.2,0.5-0.6,1-1.1,1.1
		c-0.6,0.2-1.2,0.2-1.8,0c-1.3-0.4-2-1.8-2.5-3c-0.2-0.7-0.5-1.4-0.9-2c-0.3-0.7-0.9-1.2-1.5-1.6c-0.7-0.3-1.5-0.4-2.2-0.1
		c-0.8,0.2-1.5,0.6-2.4,0.9c-0.9,0.3-1.8,0.3-2.7,0.1c-0.9-0.2-1.8-0.6-2.6-1.1c-1.5-1-2.9-2.2-4.1-3.6c-1.1-1.2-2.4-2.3-3.8-3.1
		c-1.3-0.7-2.8-0.9-4.2-0.6c-3.2,0.7-5.4,3.7-4.9,6.9c0.1,0.7,0.3,1.4,0.5,2c-0.1-0.1-0.2-0.3-0.3-0.5c-0.2-0.5-0.3-1-0.4-1.5
		c-0.3-1.9,0.3-3.9,1.6-5.4c2.1-2.2,5.3-2.8,8-1.4c1.5,0.8,2.8,1.9,3.9,3.1c1.2,1.3,2.5,2.5,4,3.5c0.7,0.5,1.6,0.8,2.4,1
		c0.8,0.2,1.7,0.1,2.5-0.1c0.8-0.2,1.6-0.6,2.4-0.8c0.8-0.3,1.8-0.2,2.5,0.2c1.5,0.9,2,2.5,2.5,3.8s1.2,2.5,2.3,2.9
		c0.5,0.2,1,0.2,1.6,0.1c0.5-0.1,0.8-0.5,1-0.9c0.2-0.8-0.2-1.6-0.9-1.9c-0.5-0.2-1-0.1-1.4,0.1
		C275.3,280.6,275.2,280.7,275.2,280.7z"/>
	<path class="st6" d="M278.9,282.5c0,0.1-0.1,0.3-0.1,0.4c-0.2,0.4-0.4,0.7-0.7,1c-0.4,0.4-1,0.8-1.6,0.9c-0.8,0.2-1.7,0.1-2.5-0.2
		c-0.9-0.5-1.6-1.2-2.1-2.1c-0.3-0.4-0.6-0.8-1.1-1.1c-0.4-0.3-1-0.4-1.5-0.3c-0.6,0.1-1.1,0.3-1.7,0.5c-0.6,0.2-1.3,0.3-1.9,0.3
		c-1.4,0-2.7-0.4-3.9-1c-2.5-1.3-4.3-3.2-6.3-4.4c-1.7-1.2-3.7-1.7-5.8-1.4c-1.3,0.3-2.5,1.2-3.1,2.4c-0.2,0.5-0.3,1-0.4,1.5
		c0-0.1,0-0.3,0-0.4c0-0.4,0.1-0.8,0.2-1.1c0.6-1.3,1.8-2.3,3.2-2.7c2.1-0.4,4.3,0.1,6.1,1.3c2.1,1.2,3.9,3.1,6.3,4.3
		c1.1,0.6,2.4,1,3.7,1c0.6,0,1.2-0.1,1.8-0.3c0.6-0.2,1.2-0.4,1.8-0.6c0.6-0.1,1.3,0,1.8,0.4c0.5,0.3,0.8,0.8,1.2,1.2
		c0.5,0.8,1.1,1.5,1.9,2c0.7,0.3,1.5,0.4,2.2,0.3c0.6-0.1,1.1-0.4,1.5-0.8C278.3,283.4,278.6,283,278.9,282.5z"/>
	<path class="st10" d="M241.5,288c-0.1-0.1-5-3-6.2,2.5s4.5,5.5,4.5,5.3S241.5,288,241.5,288z"/>
	<path class="st11" d="M238.7,293.4c0,0-0.1,0-0.3,0.1c-0.2,0-0.5,0-0.7-0.1c-0.6-0.6-0.8-1.5-0.6-2.3c0.1-0.5,0.3-0.9,0.6-1.3
		c0.2-0.3,0.5-0.5,0.9-0.6c0.2,0,0.4,0.1,0.5,0.4c0,0.2,0,0.3,0,0.3s0.1-0.1,0.1-0.3c0-0.1,0-0.3-0.1-0.4c-0.1-0.1-0.3-0.2-0.5-0.2
		c-0.5,0-0.9,0.2-1.2,0.6c-0.3,0.4-0.6,0.9-0.7,1.4c-0.3,1,0.1,2,0.9,2.6c0.3,0.1,0.6,0.1,0.9,0
		C238.7,293.5,238.7,293.4,238.7,293.4z"/>
	<path class="st10" d="M329.9,346.6c1.5,0.2,11.5,1.7,12.4,2.5s0.9,1.8-0.2,2s-7.4-0.2-7.4-0.2s8.1,0.2,8.3,1c0.4,1.3-2.5,2-7.9,1.1
		c0,0,8.2-0.9,8.2,1.1c0,1-7.4,1.1-7.4,1.1c-0.2,0.6,7.4-1,7.6,0.2c0.1,0.6-0.9,1.2-4.8,1.7c-2.3,0.3-6.2,0.8-10,1.3v0l-4.2,0.6
		l-4.9-11c0.4-0.4,2.7-1.8,4.3-2.9c1-0.7,2.2-1,3.4-0.9l0,0C328.5,344.5,329.5,345.4,329.9,346.6L329.9,346.6z"/>
	<path class="st11" d="M341.6,351.4c-2.6-0.2-5.2-0.4-7.7-0.8c1.3-0.3,2.6-0.3,3.9-0.1C339.1,350.6,340.4,350.9,341.6,351.4z"/>
	<path class="st11" d="M341.9,353.2c-1.1,0.1-2.3,0.1-3.4,0c-1.2,0-2.3,0-3.4-0.2c1.1-0.3,2.3-0.4,3.5-0.3
		C339.6,352.6,340.8,352.8,341.9,353.2z"/>
	<path class="st11" d="M342.2,355c-1.1,0.3-2.3,0.4-3.4,0.4c-1.1,0.2-2.3,0.3-3.4,0.2c1.1-0.5,2.2-0.7,3.4-0.7
		C339.8,354.7,341,354.7,342.2,355z"/>
	<path class="st4" d="M358.1,376.5l-28.5-4.4c-1.4-0.2-2.3-1.5-2.1-2.9c0,0,0,0,0,0l6-38.4c0.2-1.4,1.5-2.3,2.9-2.1c0,0,0,0,0,0
		l19.9,3.1l9.4,12.5l-4.7,30.1C360.8,375.8,359.5,376.7,358.1,376.5C358.1,376.5,358.1,376.5,358.1,376.5z"/>
	<path class="st4" d="M356.3,331.7l-1.2,7.6c-0.3,1.9,1,3.6,2.9,3.9l7.7,1L356.3,331.7z"/>
	<g class="st5">
		<path d="M356.3,331.7l-1.2,7.6c-0.3,1.9,1,3.6,2.9,3.9l7.7,1L356.3,331.7z"/>
	</g>
	<path class="st0" d="M355,368.3c0-0.1,0-0.2,0-0.4c0-0.3,0.1-0.6,0.1-1c0.1-0.9,0.3-2.2,0.5-3.8c0.5-3.3,1.2-7.9,2-13.5l0.2,0.3
		l-19.4-3l0.3-0.2l0,0v0.1v0.2v0.3l-0.1,0.6c-0.1,0.4-0.1,0.8-0.2,1.3l-0.4,2.5c-0.3,1.6-0.5,3.2-0.8,4.8c-0.5,3.1-1,6.1-1.4,8.8
		l-0.2-0.3l14,2.3l4,0.7l1.1,0.2c0.1,0,0.3,0,0.4,0.1h-0.3l-1-0.1l-3.9-0.5l-14.2-2.1h-0.2v-0.2c0.4-2.7,0.9-5.7,1.4-8.8
		c0.2-1.6,0.5-3.2,0.8-4.8l0.4-2.5c0.1-0.4,0.1-0.8,0.2-1.3l0.1-0.6l0-0.3v-0.2v-0.1l0,0l0.3-0.2l19.4,3h0.2v0.2
		c-0.9,5.6-1.7,10.3-2.2,13.6c-0.3,1.6-0.5,2.8-0.6,3.8c-0.1,0.4-0.1,0.7-0.2,1C355.1,368.1,355.1,368.2,355,368.3z"/>
	<path class="st0" d="M345.1,367c0.2-3.1,0.6-6.3,1.2-9.4c0.4-3.1,1-6.2,1.7-9.3c-0.2,3.1-0.6,6.3-1.2,9.4
		C346.4,360.8,345.8,363.9,345.1,367z"/>
	<path class="st0" d="M355.6,363.7c-3.3-0.2-6.6-0.7-9.8-1.3c-3.3-0.4-6.5-1-9.7-1.8c3.3,0.2,6.6,0.7,9.8,1.3
		C349.2,362.3,352.4,362.9,355.6,363.7z"/>
	<path class="st0" d="M356.6,359c-3.3-0.2-6.5-0.7-9.8-1.3c-3.3-0.4-6.5-1-9.7-1.8c3.3,0.2,6.6,0.7,9.8,1.3
		C350.2,357.7,353.4,358.2,356.6,359z"/>
	<path class="st0" d="M357.2,354.2c-3.3-0.2-6.5-0.7-9.7-1.2c-3.2-0.4-6.5-1-9.6-1.8c3.3,0.2,6.5,0.7,9.7,1.2
		C350.8,352.8,354,353.4,357.2,354.2z"/>
	<polygon class="st6" points="249,407.6 249,404 299.7,405 328.9,358.4 331.6,360.4 301.7,408 	"/>
	<path class="st10" d="M284.1,392l2.5,3.8v7.8c-0.7,0.2-1.5-0.1-1.9-0.8c-0.5-1.5-0.9-3.1-1.2-4.7l-1.2,3.2c-0.5,1.3-1.9,2-3.2,1.7
		l-9.4-2.4l3.8-11L284.1,392z"/>
	<path class="st10" d="M327.6,344.4l8.6,2.8c0,0.8-0.5,1.5-1.3,1.5c-0.1,0-0.1,0-0.2,0c-1.6-0.1-5.8-0.5-5.8-0.5s0,3-2.5,3.6
		c0,0-3.1-5.4-3-5.6S327.6,344.4,327.6,344.4z"/>
	<path class="st11" d="M328.3,355.8c0,0-0.1-0.3-0.4-0.8c-0.4-0.7-0.9-1.2-1.6-1.5l-0.5-0.2l0.5-0.2c1-0.4,1.8-1.1,2.3-2.1
		c0.4-0.8,0.6-1.7,0.5-2.6v-0.3h0.3c1.3,0,2.5,0.2,3.8,0.5c-1.3,0.1-2.6,0.1-3.8,0l0.2-0.3c0.1,1,0,2-0.5,2.9
		c-0.5,1.1-1.5,1.9-2.6,2.3v-0.4c0.8,0.4,1.4,1,1.7,1.8C328.3,355.5,328.3,355.8,328.3,355.8z"/>
	<path class="st4" d="M232.2,316.8c0,0-11.3,6.5-15.5,12.8s-11.7,13.8-16.9,34.1c-4.5,17.7-6.2,41.8-1.3,48.4
		c1.6,2.4,3.6,4.5,5.9,6.4l8.8-3.6c10.4-3.7,19.9-6.1,28.1-13.6l16.6-15.2l-8.8-6.9c0,0,6.7-36.1,4.9-48.8
		C252.4,319.4,232.2,316.8,232.2,316.8z"/>
	<path class="st4" d="M227.9,334.3l-9.3,43.4c-1.6,7.6,2.6,15.2,9.9,17.8l40.3,7.7l5-15l0,0L241.1,378l9.6-41.9L227.9,334.3z"/>
	<path class="st3" d="M218.2,385.9l0.1,0.3c0,0.2,0.1,0.4,0.1,0.8l0.1,0.5l0.2,0.6l0.3,0.8c0.1,0.2,0.3,0.5,0.4,0.8
		c0.8,1.4,1.9,2.6,3.3,3.4c1.8,1.2,3.8,2.1,5.9,2.6l39.9,7.3l-0.3,0.1c1.7-4.8,3.4-9.8,5.2-15l0.2,0.3L241,378.2l-0.2-0.1l0.1-0.3
		c0.6-2.2,1.2-4.6,1.8-7c1.9-7.6,3.7-15,5.2-22.2c0.8-3.6,1.5-7.2,2-10.7c0.1-0.9,0.1-1.7,0.2-2.6c0-0.9-0.1-1.7-0.3-2.5
		c-0.4-1.6-1.1-3.2-2.2-4.5c-2.1-2.5-5.3-3.9-8.6-3.8c-3.1,0.2-6,1.6-7.9,4c-1.9,2.2-3.3,4.8-4.1,7.5c-0.8,2.6-1.4,5.2-1.9,7.8
		c-2,10-3.6,18.2-4.7,23.8l-1.3,6.5c-0.1,0.7-0.3,1.3-0.4,1.7s-0.1,0.6-0.1,0.6c0-0.2,0-0.4,0.1-0.6c0.1-0.4,0.2-1,0.3-1.7
		c0.3-1.5,0.7-3.7,1.2-6.5c1.1-5.7,2.6-13.8,4.5-23.9c0.4-2.7,1.1-5.3,1.8-7.9c0.8-2.8,2.2-5.5,4.1-7.7c2.1-2.5,5.1-4,8.3-4.2
		c3.4-0.1,6.7,1.4,8.9,4c1.1,1.3,1.9,2.9,2.4,4.7c0.2,0.9,0.3,1.8,0.3,2.6c-0.1,0.9-0.1,1.8-0.2,2.7c-0.5,3.5-1.2,7.1-2,10.7
		c-1.6,7.2-3.4,14.6-5.2,22.2c-0.6,2.4-1.2,4.8-1.8,7l-0.2-0.3l32.7,10.2l0.2,0.1l-0.1,0.2l-5.3,15l-0.1,0.2h-0.2
		c-16.5-3.1-30.2-5.6-39.9-7.5c-2.1-0.5-4.2-1.4-6-2.7c-1.3-0.9-2.5-2.1-3.3-3.5c-0.2-0.3-0.3-0.6-0.4-0.8l-0.3-0.8l-0.2-0.6
		c0-0.2,0-0.4-0.1-0.6l-0.1-0.8C218.2,386,218.2,385.9,218.2,385.9z"/>
	<path class="st3" d="M235.4,383.6c-0.1,0-0.1-0.5,0.1-1.3c0.3-1,0.8-2,1.6-2.7c0.8-0.7,1.7-1.3,2.8-1.5c0.8-0.2,1.3-0.1,1.3,0
		s-0.5,0.2-1.2,0.4c-1.9,0.7-3.4,2.1-4.1,4C235.6,383.2,235.5,383.6,235.4,383.6z"/>
	<g class="st5">
		<path d="M226.9,333.7c-4.7,15.1-7.9,30.6-9.7,46.3c-0.6,3.6-0.7,7.3-0.2,10.9c0.6,3.6,2.4,7.1,5.4,9.1c3,1.7,6.5,2.3,9.9,1.5
			c3.4-0.6,8.8-1.4,11.8-2.8l-18-3.7c0,0-11.6-0.7-6.6-23S226.9,333.7,226.9,333.7z"/>
	</g>
	<path class="st3" d="M249,379.2c0-0.6,0.1-1.2,0.2-1.7c0.2-1.2,0.4-2.8,0.7-4.7c0.6-4,1.4-9.5,2.2-15.4s1.6-11.5,2.1-15.5l0.6-4.7
		c0-0.6,0.1-1.1,0.3-1.7c0,0.6,0,1.2-0.1,1.7c-0.1,1.1-0.2,2.7-0.4,4.7c-0.4,4-1.1,9.5-1.9,15.5s-1.7,11.5-2.4,15.4
		c-0.3,2-0.6,3.6-0.8,4.7C249.3,378.1,249.2,378.7,249,379.2z"/>
	<path class="st8" d="M248.4,347.7c0,0.1-1.3-0.4-3.4-1c-5.4-1.7-11-2.5-16.6-2.4c-2.2,0-3.5,0.1-3.5,0c0.3-0.1,0.6-0.2,0.9-0.2
		c0.6-0.1,1.5-0.2,2.6-0.2c5.7-0.3,11.4,0.5,16.8,2.5c1,0.4,1.8,0.7,2.4,1C247.9,347.4,248.2,347.5,248.4,347.7z"/>
	<path class="st8" d="M247.4,352.1c0,0.1-1.3-0.4-3.4-1c-5.5-1.6-11.2-2.2-16.9-1.8c-2.2,0.2-3.5,0.4-3.5,0.3
		c0.3-0.1,0.6-0.2,0.9-0.2c0.6-0.1,1.5-0.3,2.6-0.4c2.9-0.3,5.8-0.3,8.6,0c2.9,0.3,5.7,0.9,8.4,1.8c1.1,0.4,1.9,0.7,2.4,0.9
		S247.4,352.1,247.4,352.1z"/>
	<path class="st6" d="M261.6,320.2c0-1.3-0.8-2.5-2-2.9c-1.1-0.3-2.2-0.3-3.3,0c-4,0.4-8-0.6-11.3-2.7c-3-2-5.4-4.9-8.8-6.2
		c-0.9-0.4-1.8-0.6-2.7-0.5c-0.9,0.1-1.8,0.5-2.4,1.3c-0.8,1.3-0.3,3,0.7,4.2c-1.8,0.9-2.7,3.3-1.6,4.9c8.2,1.1,15.6,5.4,20.6,12
		c0.8,1.2,1.8,2.3,3,3.1c2.4,1.2,5.5-0.2,6.6-2.6c1-2.5,0.6-5.4-1-7.6C260.7,322.7,261.6,321.5,261.6,320.2z"/>
	<path class="st3" d="M259.2,322.8c-0.3,0.2-0.6,0.4-1,0.5c-0.9,0.4-1.9,0.6-2.9,0.8c-1.5,0.2-3,0.1-4.4-0.3
		c-1.8-0.5-3.4-1.3-4.9-2.4c-1.6-1.1-2.9-2.4-4.2-3.4c-1.1-0.9-2.3-1.8-3.5-2.5c-1.2-0.6-2.4-1.2-3.7-1.5c0.4,0,0.7,0,1.1,0.1
		c1,0.2,1.9,0.6,2.8,1.1c1.3,0.7,2.5,1.5,3.7,2.5c1.3,1,2.7,2.2,4.2,3.3c1.4,1.1,3,1.9,4.7,2.4c1.4,0.4,2.8,0.5,4.3,0.4
		C256.6,323.6,258,323.3,259.2,322.8z"/>
	<path class="st8" d="M255.5,333.8c0.2-0.1,0.5-0.2,0.7-0.3c0.6-0.3,1.1-0.8,1.4-1.4c0.5-0.9,0.7-1.9,0.6-2.9
		c-0.1-1.2-0.3-2.5-0.7-3.7c-0.2-0.7-0.8-1.2-1.5-1.4h-0.2l0.2-0.2c0.6-0.8,1-1.7,1-2.7c0-0.8-0.2-1.5-0.5-2.2
		c-0.3-0.6-0.8-1.2-1.3-1.6c0.2,0.1,0.3,0.2,0.5,0.3c0.4,0.3,0.7,0.8,1,1.2c0.4,0.7,0.6,1.5,0.6,2.3c0,1-0.4,2-1,2.8L256,324
		c0.8,0.1,1.5,0.7,1.7,1.5c0.4,1.2,0.6,2.5,0.7,3.7c0.1,1-0.2,2.1-0.7,3c-0.4,0.6-0.9,1.1-1.5,1.4
		C256,333.7,255.7,333.8,255.5,333.8z"/>
	<path class="st8" d="M249.5,316.6c0.5,0.5,0.9,1,1.1,1.6c0.7,1.5,0.8,3.2,0.3,4.8l-0.2,0.4v-0.1c0.7,1.4,0.9,3,0.4,4.5
		c-0.2,0.6-0.5,1.1-0.9,1.6c0.3-0.5,0.6-1.1,0.8-1.6c0.5-1.4,0.3-3-0.4-4.3v0v0l0.1-0.4c0.5-1.5,0.4-3.2-0.2-4.7
		C250.2,317.7,249.9,317.1,249.5,316.6z"/>
	<path class="st8" d="M245.3,314.5c0.1,0.1,0.1,0.2,0.2,0.3c0.1,0.3,0.3,0.6,0.3,1c0.2,1.1,0.1,2.2-0.4,3.2c-0.2,0.4-0.4,0.7-0.6,1
		V320c-0.1,0.9-0.5,1.7-1.2,2.2c-0.2,0.2-0.4,0.3-0.6,0.4c-0.1,0-0.2,0.1-0.2,0.1c0.3-0.2,0.6-0.4,0.8-0.5c0.6-0.5,1-1.3,1.1-2.1
		l0,0l0,0c0.2-0.3,0.4-0.6,0.6-0.9c0.5-1,0.6-2.1,0.4-3.1C245.5,315.4,245.4,315,245.3,314.5z"/>
	<path class="st8" d="M239.8,310.6c-0.4,0.3-0.7,0.7-1.1,1.1c-0.7,1-0.9,2.3-0.7,3.5v0.2v0.1H238c-1.2,0.3-2.1,1.2-2.3,2.4
		c-0.1,0.5-0.1,1,0,1.5c-0.1-0.1-0.1-0.2-0.1-0.4c-0.1-0.4-0.1-0.7,0-1.1c0.2-1.2,1.2-2.2,2.4-2.5l-0.1,0.1l-0.1-0.2
		c-0.3-1.3,0-2.6,0.8-3.6c0.2-0.3,0.5-0.6,0.8-0.8C239.6,310.7,239.7,310.6,239.8,310.6z"/>
	<path class="st8" d="M231.4,318.4c-0.1-0.1-0.2-0.2-0.3-0.4c-0.2-0.4-0.4-0.8-0.5-1.2c-0.1-0.7,0-1.4,0.3-2
		c0.4-0.8,1.1-1.3,1.9-1.6l-0.1,0.2l-0.2-0.2c-0.5-0.7-0.7-1.6-0.5-2.5c0.1-0.7,0.5-1.3,1-1.8c0.3-0.3,0.8-0.6,1.2-0.7
		c0.2-0.1,0.3-0.1,0.5-0.1c-0.6,0.2-1.2,0.5-1.6,0.9c-0.5,0.5-0.8,1.1-0.9,1.8c-0.1,0.8,0,1.7,0.5,2.4c0,0.1,0.1,0.2,0.1,0.2
		l0.1,0.1h-0.1c-0.8,0.3-1.4,0.8-1.8,1.5c-0.3,0.6-0.4,1.2-0.3,1.9C230.8,317.3,231.1,317.9,231.4,318.4z"/>
</g>
<g id="freepik--Plant--inject-69">
	<path class="st4" d="M107.8,393.4c2-5.1,4.5-10,7.6-14.5c0.9-1.6,2.3-2.9,4-3.7c2.9-1.1,6,0.7,8.5,2.4l5.9,3.9
		c0.4,0.2,0.7,0.5,0.8,0.9c0.1,0.7-0.8,1.2-1.6,1.2c-2.5,0.3-5.1-0.3-7.2-1.8c-1.6-1.1-3.2-2.7-5.1-2.5c-2.4,0.2-3.5,3-4.4,5.3
		c-2,4.8-5.6,8.8-10.2,11.4"/>
	<path class="st4" d="M107.8,394.4c0.5-11.9,0.9-23.9,3.8-35.4s8.3-22.8,17.2-30.6c-1.2,10-4.8,19.5-8.4,29
		c-4.9,12.7-9.7,25.3-14.6,38"/>
	<path class="st4" d="M105.7,398.7c-1.7-10.8-4.7-21.4-9-31.5c-0.5-1.5-1.4-2.9-2.7-3.9c-2-1.2-4.6-0.4-6.8,0.5
		c-5.2,2.3-9.9,5.4-14.2,9.1c-0.4,0.3-0.6,0.6-0.8,1.1c0,0.7,0.4,1.3,1.1,1.4c0.7,0.1,1.4,0.1,2-0.1l11.9-2.8
		c1.2-0.4,2.4-0.4,3.6-0.1c1.4,0.5,2.2,2,2.8,3.4l11.7,23.5"/>
	<g class="st12">
		<path d="M107.8,393.4c2-5.1,4.5-10,7.6-14.5c0.9-1.6,2.3-2.9,4-3.7c2.9-1.1,6,0.7,8.5,2.4l5.9,3.9c0.4,0.2,0.7,0.5,0.8,0.9
			c0.1,0.7-0.8,1.2-1.6,1.2c-2.5,0.3-5.1-0.3-7.2-1.8c-1.6-1.1-3.2-2.7-5.1-2.5c-2.4,0.2-3.5,3-4.4,5.3c-2,4.8-5.6,8.8-10.2,11.4"/>
	</g>
	<g class="st12">
		<path d="M107.8,394.4c0.5-11.9,0.9-23.9,3.8-35.4s8.3-22.8,17.2-30.6c-1.2,10-4.8,19.5-8.4,29c-4.9,12.7-9.7,25.3-14.6,38"/>
	</g>
	<g class="st13">
		<path d="M105.7,398.7c-1.7-10.8-4.7-21.4-9-31.5c-0.5-1.5-1.4-2.9-2.7-3.9c-2-1.2-4.6-0.4-6.8,0.5c-5.2,2.3-9.9,5.4-14.2,9.1
			c-0.4,0.3-0.6,0.6-0.8,1.1c0,0.7,0.4,1.3,1.1,1.4c0.7,0.1,1.4,0.1,2-0.1l11.9-2.8c1.2-0.4,2.4-0.4,3.6-0.1c1.4,0.5,2.2,2,2.8,3.4
			l11.7,23.5"/>
	</g>
	<path class="st4" d="M123.8,309.1c-9.9,11.8-15.7,26.5-16.5,41.9c-1.1,25.3-2.6,43.5-2.6,43.5h2.8c0,0,5.6-51,9.3-59.9
		S126.2,313,123.8,309.1z"/>
	<path class="st3" d="M123.8,309.1c-0.1,0.3-0.2,0.6-0.3,0.8l-1.1,2.3c-0.9,2-2.2,4.9-3.6,8.5s-3,8-4.5,13
		c-1.6,5.3-2.9,10.8-3.9,16.3c-0.5,2.9-0.7,5.8-0.9,8.6s-0.4,5.5-0.5,8.1c-0.3,5.2-0.6,9.8-1.1,13.7s-0.9,7-1.4,9.2
		c-0.2,1.1-0.4,1.9-0.5,2.5c0,0.3-0.1,0.6-0.2,0.8c0-0.3,0.1-0.6,0.1-0.9c0.1-0.6,0.3-1.4,0.4-2.5c0.4-2.1,0.8-5.3,1.2-9.2
		s0.7-8.5,0.9-13.7c0.1-2.6,0.3-5.3,0.5-8.1c0.2-2.9,0.5-5.8,0.9-8.7c0.9-5.5,2.3-11,3.9-16.4c1.5-5,3.1-9.4,4.6-13s2.8-6.5,3.8-8.5
		c0.5-1,0.9-1.7,1.2-2.2C123.5,309.6,123.6,309.3,123.8,309.1z"/>
	<path class="st4" d="M134.1,332.8c0,0-18.8,18-21,35s-3.1,26-3.1,26h1.9c0,0,4.4-24.2,10.1-31.8S135.4,334.8,134.1,332.8z"/>
	<path class="st3" d="M133.9,333.9c-0.1,0.2-0.2,0.4-0.3,0.6l-0.9,1.6l-3.3,5.8c-2.8,4.9-6.6,11.7-10,19.5c-3,6.7-5.3,13.7-6.7,20.9
		c-0.5,2.8-0.8,5-1,6.6c-0.1,0.8-0.1,1.4-0.2,1.8c0,0.2,0,0.4-0.1,0.6c0-0.2,0-0.4,0-0.6c0-0.4,0-1,0.1-1.8c0.2-2.2,0.5-4.4,0.9-6.6
		c1.4-7.2,3.6-14.3,6.6-21c3-6.7,6.4-13.2,10.2-19.5c1.4-2.4,2.6-4.4,3.4-5.7l1-1.5C133.7,334.3,133.8,334.1,133.9,333.9z"/>
	<path class="st4" d="M97.7,335.9c0,0-2.8,35.5,3.7,56.7h2.2C103.7,392.7,105.2,346.7,97.7,335.9z"/>
	<path class="st3" d="M99.3,342.6c0.1,0.2,0.1,0.3,0.1,0.5l0.2,1.4c0.1,1.3,0.3,3.1,0.5,5.3c0.4,4.5,0.8,10.7,1.3,17.5
		s0.9,13,1.2,17.5c0.1,2.2,0.2,4,0.3,5.3c0,0.6,0,1,0,1.4c0,0.2,0,0.3,0,0.5c-0.1-0.2-0.1-0.3-0.1-0.5l-0.2-1.4
		c-0.1-1.3-0.3-3.1-0.5-5.3c-0.4-4.5-0.8-10.7-1.3-17.5s-0.9-13-1.2-17.5c-0.1-2.2-0.2-4-0.3-5.3c0-0.6,0-1.1,0-1.5
		C99.2,343,99.2,342.8,99.3,342.6z"/>
	<path class="st3" d="M93.3,390.6c0,0,6.8,4.9,6.5,7.2S83,412.3,84,422s8.9,16.3,22.4,15.8s22.6-8.9,21.4-17.5S113.2,398,113,397.3
		c-0.4-1.9,6-6.7,6-6.7L93.3,390.6z"/>
	<path class="st8" d="M117.8,403.1c0,0.1-5,0.3-11.1,0.3s-11.1-0.1-11.1-0.3s5-0.3,11.1-0.3S117.8,402.9,117.8,403.1z"/>
	<path class="st8" d="M119.4,405.4c0,0.1-5.9,0.3-13.1,0.3s-13.1-0.1-13.1-0.3s5.9-0.3,13.1-0.3S119.4,405.2,119.4,405.4z"/>
	<path class="st8" d="M121.8,408c0,0.1-6.9,0.3-15.5,0.3s-15.5-0.1-15.5-0.3s6.9-0.3,15.5-0.3S121.8,407.8,121.8,408z"/>
	<path class="st8" d="M123.9,411.4c0,0.1-8,0.3-17.8,0.3s-17.8-0.1-17.8-0.3s8-0.3,17.8-0.3S123.9,411.3,123.9,411.4z"/>
</g>
</svg>
