<?xml version="1.0" encoding="utf-8"?>
<!-- Generator: Adobe Illustrator 25.4.1, SVG Export Plug-In . SVG Version: 6.00 Build 0)  -->
<svg version="1.1" id="Layer_1" xmlns="http://www.w3.org/2000/svg" xmlns:xlink="http://www.w3.org/1999/xlink" x="0px" y="0px"
	 viewBox="0 0 750 750" style="enable-background:new 0 0 750 750;" xml:space="preserve">
<style type="text/css">
	.st0{fill:#FFFFFF;}
	.st1{fill:#EBEBEB;}
	.st2{fill:#E0E0E0;}
	.st3{fill:#F5F5F5;}
	.st4{fill:#FAFAFA;}
	.st5{fill:#263238;}
	.st6{fill:#66CC8A;}
	.st7{opacity:0.3;}
	.st8{fill:#455A64;}
	.st9{opacity:0.5;}
	.st10{opacity:0.5;fill:#FFFFFF;enable-background:new    ;}
	.st11{fill:#FFBE9D;}
	.st12{fill:#EB996E;}
	.st13{opacity:0.2;}
</style>
<rect class="st0" width="750" height="750"/>
<g id="freepik--background-complete--inject-4">
	<path class="st1" d="M131.9,657.2c19.1-18.3,20.8-48.1,17.4-74.3c-0.6-4.4-0.6-9.1-2.9-12.7c-2.3-3.6-7-5.7-10.4-3.4
		c-2.8,1.9-3.7,5.8-5.1,9.2c-1.8,4.5-4.7,8.3-8.4,11c-2.4,1.8-5.5,3-8.2,1.8c-3.7-1.7-4.6-6.9-5-11.2c-0.8-8.2-1.6-16.3-2.3-24.4
		c-0.4-4.4-0.9-8.8-2.5-12.8c-1.7-4-4.8-7.5-8.7-8.2s-8.4,2.3-8.7,6.6c-0.2,1.8,0.4,3.6,0.4,5.5s-0.5,3.9-2,4.6s-3.3-0.3-4.6-1.5
		c-4.6-3.9-7.9-9.3-11.1-14.6s-6.3-10.8-10.5-15.2c-4.2-4.4-9.8-7.5-15.5-7.2s-11.5,4.9-12.3,11.2s3.1,12.2,7.2,16.7
		c6,6.7,12.9,12.5,20.4,17.1c1.4,0.8,2.8,1.7,3.5,3.3c1.2,2.8-1.1,6-3.6,7.3c-2.9,1.4-6.1,1.5-9.2,2.3s-6.3,2.7-7.2,6.1
		c-1.2,4.7,2.7,8.9,6.4,11.6c7.3,5.3,15.5,9.2,24,11.5c3.1,0.8,6.3,1.5,8.9,3.5s4.4,5.7,3.3,9c-1.2,3.3-4.7,4.7-7.8,4.4
		c-3.1-0.3-6.1-1.7-9.1-2.6c-5.7-1.6-12.8-0.3-15.8,5.3c-2,3.7-1.7,8.5-0.1,12.4c1.8,3.9,4.2,7.3,7.2,10.1
		c9.9,10.2,22.1,18,35.3,21.2S119.8,663.8,131.9,657.2"/>
	<path class="st2" d="M134.2,676.6c-2.3-12.1-5.7-23.9-10.2-35.2c-5.4-13.8-11.6-27.3-18.4-40.4l-5.3-10.3c-1.8-3.4-3.5-6.7-5.4-9.9
		c-3.6-6.1-7.6-11.9-11.8-17.5c-4-5.4-8-10.3-11.7-14.9c-3.8-4.6-7.3-8.8-10.8-12.5c-5.4-5.8-11.1-11.2-17.3-16
		c-2.2-1.7-3.9-3-5.1-3.8c-0.6-0.4-1-0.7-1.3-0.9c-0.2-0.1-0.3-0.2-0.5-0.3c0.1,0.1,0.3,0.3,0.4,0.4l1.3,1c1.2,0.9,2.8,2.2,5,3.9
		c6,4.9,11.8,10.3,17.1,16.2c3.4,3.7,6.9,7.9,10.7,12.5c3.7,4.6,7.7,9.6,11.7,14.9c4.2,5.6,8.1,11.4,11.7,17.5
		c1.9,3.2,3.6,6.5,5.4,9.9l5.3,10.3c6.8,13.1,13,26.5,18.4,40.3c4.4,11.3,7.9,23,10.3,35"/>
	<path class="st2" d="M94.6,580.8c0.1-0.6,0.2-1.3,0.2-1.9c0.1-1.2,0.2-3,0.2-5.2c0.1-4.4,0.1-10.5,0.1-17.3c0-6.7,0-12.8,0.2-17.2
		c0.1-2.2,0.2-4,0.2-5.2c0.1-0.6,0.1-1.3,0-1.9c-0.2,0.6-0.3,1.2-0.3,1.9c-0.2,1.2-0.3,3-0.5,5.2c-0.3,4.4-0.5,10.5-0.4,17.3
		c0,6.7,0.1,12.6,0.1,17.2c0,2.1,0,3.8,0,5.2C94.5,579.5,94.5,580.2,94.6,580.8z"/>
	<path class="st2" d="M42.2,576.5c0.7,0.1,1.4,0.1,2.1,0c1.3,0,3.3-0.1,5.6-0.1c4.8,0,11.3,0.2,18.6,0.8s13.8,1.5,18.4,2.3
		c2.4,0.4,4.3,0.7,5.6,1c0.7,0.2,1.4,0.3,2.1,0.3c-0.6-0.3-1.3-0.5-2-0.6c-1.3-0.3-3.2-0.8-5.5-1.2c-4.7-0.9-11.3-1.9-18.5-2.5
		c-6.2-0.5-12.4-0.7-18.6-0.6c-2.4,0.1-4.3,0.2-5.6,0.3C43.5,576.2,42.9,576.3,42.2,576.5z"/>
	<path class="st2" d="M123.3,640.5c0.1-0.2,0.2-0.5,0.3-0.7l0.7-2.1c0.6-1.9,1.3-4.6,2.3-7.9c1.8-6.7,4.1-16.1,6.5-26.5
		c2.4-10.4,4.5-19.8,6.2-26.6l2-8c0.2-0.9,0.4-1.6,0.5-2.2c0.1-0.3,0.1-0.5,0.1-0.8c-0.1,0.2-0.2,0.5-0.3,0.7l-0.7,2.1
		c-0.6,1.9-1.3,4.6-2.3,7.9c-1.8,6.7-4.1,16.1-6.5,26.5c-2.4,10.4-4.5,19.8-6.2,26.6l-2,8c-0.2,0.9-0.4,1.6-0.5,2.2
		C123.4,640,123.4,640.2,123.3,640.5z"/>
	<path class="st2" d="M52.6,624.7c0.2,0.1,0.5,0.2,0.7,0.2l2.1,0.5l7.6,1.7c6.4,1.4,15.2,3.6,25,5.9c9.8,2.4,18.6,4.4,25,5.7
		c3.3,0.7,5.8,1.2,7.6,1.5l2.1,0.3c0.2,0.1,0.5,0.1,0.7,0.1c-0.2-0.1-0.5-0.2-0.7-0.2l-2.1-0.5l-7.6-1.7c-6.4-1.4-15.2-3.6-25-5.9
		c-9.8-2.4-18.6-4.4-25-5.7c-3.3-0.7-5.8-1.2-7.6-1.4l-2.1-0.3C53.1,624.7,52.9,624.7,52.6,624.7z"/>
	<rect x="133.5" y="368.5" class="st3" width="92" height="308.1"/>
	<rect x="225.2" y="368.5" class="st4" width="72.7" height="308.1"/>
	<rect x="138.4" y="417.8" class="st2" width="78" height="24"/>
	<rect x="140.6" y="420.8" class="st3" width="4.4" height="18.4"/>
	<path class="st4" d="M150.1,424.7c0,0.8-0.6,1.5-1.4,1.5c-0.8,0-1.4-0.7-1.4-1.5c0-0.8,0.6-1.5,1.4-1.5l0,0
		C149.5,423.2,150.1,423.9,150.1,424.7z"/>
	<ellipse class="st4" cx="148.7" cy="431.2" rx="1.4" ry="1.5"/>
	<rect x="155.7" y="423.2" class="st3" width="4.3" height="14.1"/>
	<rect x="161.9" y="423.2" class="st3" width="4.3" height="14.1"/>
	<rect x="168.1" y="423.2" class="st3" width="4.3" height="14.1"/>
	<rect x="174.3" y="423.2" class="st3" width="4.3" height="14.1"/>
	<rect x="180.5" y="423.2" class="st3" width="4.3" height="14.1"/>
	<rect x="186.7" y="423.2" class="st3" width="4.3" height="14.1"/>
	<rect x="192.9" y="423.2" class="st3" width="4.3" height="14.1"/>
	<rect x="199.1" y="423.2" class="st3" width="4.3" height="14.1"/>
	<rect x="205.3" y="423.2" class="st3" width="4.3" height="14.1"/>
	<rect x="211.5" y="423.2" class="st3" width="4.3" height="14.1"/>
	<rect x="138.4" y="456.3" class="st2" width="78" height="24"/>
	<rect x="140.6" y="459.3" class="st3" width="4.4" height="18.4"/>
	<path class="st4" d="M150.1,463.2c0,0.8-0.6,1.5-1.4,1.5c-0.8,0-1.4-0.7-1.4-1.5c0-0.8,0.6-1.5,1.4-1.5l0,0
		C149.5,461.6,150.1,462.3,150.1,463.2z"/>
	<ellipse class="st4" cx="148.7" cy="469.6" rx="1.4" ry="1.5"/>
	<rect x="155.7" y="461.6" class="st3" width="4.3" height="14.1"/>
	<rect x="161.9" y="461.6" class="st3" width="4.3" height="14.1"/>
	<rect x="168.1" y="461.6" class="st3" width="4.3" height="14.1"/>
	<rect x="174.3" y="461.6" class="st3" width="4.3" height="14.1"/>
	<rect x="180.5" y="461.6" class="st3" width="4.3" height="14.1"/>
	<rect x="186.7" y="461.6" class="st3" width="4.3" height="14.1"/>
	<rect x="192.9" y="461.6" class="st3" width="4.3" height="14.1"/>
	<rect x="199.1" y="461.6" class="st3" width="4.3" height="14.1"/>
	<rect x="205.3" y="461.6" class="st3" width="4.3" height="14.1"/>
	<rect x="211.5" y="461.6" class="st3" width="4.3" height="14.1"/>
	<rect x="138.4" y="494.7" class="st2" width="78" height="24"/>
	<rect x="140.6" y="497.8" class="st3" width="4.4" height="18.4"/>
	<path class="st4" d="M150.1,501.6c0,0.8-0.6,1.5-1.4,1.5c-0.8,0-1.4-0.7-1.4-1.5c0-0.8,0.6-1.5,1.4-1.5l0,0
		C149.5,500.1,150.1,500.8,150.1,501.6z"/>
	<ellipse class="st4" cx="148.7" cy="508.1" rx="1.4" ry="1.5"/>
	<rect x="155.7" y="500.1" class="st3" width="4.3" height="14.1"/>
	<rect x="161.9" y="500.1" class="st3" width="4.3" height="14.1"/>
	<rect x="168.1" y="500.1" class="st3" width="4.3" height="14.1"/>
	<rect x="174.3" y="500.1" class="st3" width="4.3" height="14.1"/>
	<rect x="180.5" y="500.1" class="st3" width="4.3" height="14.1"/>
	<rect x="186.7" y="500.1" class="st3" width="4.3" height="14.1"/>
	<rect x="192.9" y="500.1" class="st3" width="4.3" height="14.1"/>
	<rect x="199.1" y="500.1" class="st3" width="4.3" height="14.1"/>
	<rect x="205.3" y="500.1" class="st3" width="4.3" height="14.1"/>
	<rect x="211.5" y="500.1" class="st3" width="4.3" height="14.1"/>
	<rect x="138.4" y="533.2" class="st2" width="78" height="24"/>
	<rect x="140.6" y="536.2" class="st3" width="4.4" height="18.4"/>
	<path class="st4" d="M150.1,540.1c0,0.8-0.6,1.5-1.4,1.5c-0.8,0-1.4-0.7-1.4-1.5c0-0.8,0.6-1.5,1.4-1.5l0,0
		C149.5,538.6,150.1,539.3,150.1,540.1z"/>
	<ellipse class="st4" cx="148.7" cy="546.6" rx="1.4" ry="1.5"/>
	<rect x="155.7" y="538.6" class="st3" width="4.3" height="14.1"/>
	<rect x="161.9" y="538.6" class="st3" width="4.3" height="14.1"/>
	<rect x="168.1" y="538.6" class="st3" width="4.3" height="14.1"/>
	<rect x="174.3" y="538.6" class="st3" width="4.3" height="14.1"/>
	<rect x="180.5" y="538.6" class="st3" width="4.3" height="14.1"/>
	<rect x="186.7" y="538.6" class="st3" width="4.3" height="14.1"/>
	<rect x="192.9" y="538.6" class="st3" width="4.3" height="14.1"/>
	<rect x="199.1" y="538.6" class="st3" width="4.3" height="14.1"/>
	<rect x="205.3" y="538.6" class="st3" width="4.3" height="14.1"/>
	<rect x="211.5" y="538.6" class="st3" width="4.3" height="14.1"/>
	<rect x="138.4" y="571.7" class="st2" width="78" height="24"/>
	<rect x="140.6" y="574.7" class="st3" width="4.4" height="18.4"/>
	<path class="st4" d="M150.1,578.6c0,0.8-0.6,1.5-1.4,1.5c-0.8,0-1.4-0.7-1.4-1.5s0.6-1.5,1.4-1.5l0,0
		C149.5,577,150.1,577.7,150.1,578.6z"/>
	<ellipse class="st4" cx="148.7" cy="585.1" rx="1.4" ry="1.5"/>
	<rect x="155.7" y="577" class="st3" width="4.3" height="14.1"/>
	<rect x="161.9" y="577" class="st3" width="4.3" height="14.1"/>
	<rect x="168.1" y="577" class="st3" width="4.3" height="14.1"/>
	<rect x="174.3" y="577" class="st3" width="4.3" height="14.1"/>
	<rect x="180.5" y="577" class="st3" width="4.3" height="14.1"/>
	<rect x="186.7" y="577" class="st3" width="4.3" height="14.1"/>
	<rect x="192.9" y="577" class="st3" width="4.3" height="14.1"/>
	<rect x="199.1" y="577" class="st3" width="4.3" height="14.1"/>
	<rect x="205.3" y="577" class="st3" width="4.3" height="14.1"/>
	<rect x="211.5" y="577" class="st3" width="4.3" height="14.1"/>
	<rect x="138.4" y="610.1" class="st2" width="78" height="24"/>
	<rect x="140.6" y="613.2" class="st3" width="4.4" height="18.4"/>
	<path class="st4" d="M150.1,617c0,0.8-0.6,1.5-1.4,1.5c-0.8,0-1.4-0.7-1.4-1.5c0-0.8,0.6-1.5,1.4-1.5
		C149.5,615.5,150.1,616.2,150.1,617C150.1,617,150.1,617,150.1,617z"/>
	<ellipse class="st4" cx="148.7" cy="623.5" rx="1.4" ry="1.5"/>
	<rect x="155.7" y="615.5" class="st3" width="4.3" height="14.1"/>
	<rect x="161.9" y="615.5" class="st3" width="4.3" height="14.1"/>
	<rect x="168.1" y="615.5" class="st3" width="4.3" height="14.1"/>
	<rect x="174.3" y="615.5" class="st3" width="4.3" height="14.1"/>
	<rect x="180.5" y="615.5" class="st3" width="4.3" height="14.1"/>
	<rect x="186.7" y="615.5" class="st3" width="4.3" height="14.1"/>
	<rect x="192.9" y="615.5" class="st3" width="4.3" height="14.1"/>
	<rect x="199.1" y="615.5" class="st3" width="4.3" height="14.1"/>
	<rect x="205.3" y="615.5" class="st3" width="4.3" height="14.1"/>
	<rect x="211.5" y="615.5" class="st3" width="4.3" height="14.1"/>
	<rect x="138.4" y="648.6" class="st2" width="78" height="24"/>
	<rect x="140.6" y="651.6" class="st3" width="4.4" height="18.4"/>
	<ellipse class="st4" cx="148.7" cy="655.5" rx="1.4" ry="1.5"/>
	<ellipse class="st4" cx="148.7" cy="662" rx="1.4" ry="1.5"/>
	<rect x="155.7" y="654" class="st3" width="4.3" height="14.1"/>
	<rect x="161.9" y="654" class="st3" width="4.3" height="14.1"/>
	<rect x="168.1" y="654" class="st3" width="4.3" height="14.1"/>
	<rect x="174.3" y="654" class="st3" width="4.3" height="14.1"/>
	<rect x="180.5" y="654" class="st3" width="4.3" height="14.1"/>
	<rect x="186.7" y="654" class="st3" width="4.3" height="14.1"/>
	<rect x="192.9" y="654" class="st3" width="4.3" height="14.1"/>
	<rect x="199.1" y="654" class="st3" width="4.3" height="14.1"/>
	<rect x="205.3" y="654" class="st3" width="4.3" height="14.1"/>
	<rect x="211.5" y="654" class="st3" width="4.3" height="14.1"/>
	<path class="st2" d="M186.7,417.8c-0.1-0.2-0.1-0.5-0.1-0.7c0-0.5,0-1.2-0.1-2.1s0-2.1-0.1-3.4c0-1.5-0.2-2.9-0.5-4.4
		c-0.4-1.7-1.1-3.3-2.1-4.7c-1.1-1.7-2.5-3-4.3-3.7c-1.9-0.8-4-1.2-6.1-1.3l-6.7-0.6c-9.2-0.9-17.6-1.4-23.6-1.6
		c-3-0.1-5.4-0.1-7.2,0h-2c-0.2,0-0.5,0-0.7,0c0.2-0.1,0.5-0.1,0.7-0.1l1.9-0.1c1.7-0.1,4.1-0.2,7.2-0.1c6.1,0,14.4,0.5,23.7,1.4
		l6.7,0.6c2.1,0.1,4.2,0.6,6.2,1.4c1.8,0.8,3.3,2.2,4.4,4c1,1.5,1.7,3.2,2.1,5c0.3,1.5,0.5,3,0.5,4.5c0,1.3,0,2.5,0,3.4s0,1.6,0,2.1
		C186.7,417.4,186.7,417.6,186.7,417.8z"/>
	<path class="st2" d="M163,417.8c0-0.2-0.1-0.5-0.1-0.7c0-0.5,0-1.2,0-2c0-0.8,0-1.9-0.1-3.2c-0.1-1.4-0.4-2.7-1-4
		c-0.8-1.4-2.1-2.4-3.5-3c-1.6-0.7-3.4-0.9-5.1-0.6c-0.9,0.2-1.8,0.5-2.6,1c-0.9,0.5-1.6,1.2-2.1,2.1c-0.5,0.9-0.5,2.1,0,3
		c0.5,1,1.3,1.6,2.3,1.9c1,0.2,2-0.1,2.7-0.9c0.7-0.7,1.1-1.8,1.2-2.8c0.1-1-0.2-2.1-0.8-2.9c-0.5-0.8-1.2-1.5-2.1-2
		c-0.8-0.4-1.7-0.7-2.6-0.8c-0.9-0.1-1.7-0.3-2.6-0.4c-1.7-0.2-3.3-0.3-4.6-0.4c-2.8-0.1-5.2-0.1-6.7-0.1h-1.8c-0.2,0-0.4,0-0.6,0
		c0.2-0.1,0.4-0.1,0.6-0.1l1.8-0.1c1.6-0.1,3.9-0.2,6.8-0.1c1.4,0,3,0.1,4.7,0.3c0.8,0.1,1.7,0.2,2.6,0.3c0.4,0.1,0.9,0.1,1.3,0.2
		c0.5,0.1,1,0.3,1.4,0.5c0.9,0.5,1.7,1.2,2.3,2.1c0.7,0.9,1,2.1,0.9,3.3c-0.1,1.2-0.6,2.4-1.4,3.2c-0.9,0.9-2.1,1.3-3.3,1
		c-1.1-0.3-2.1-1.1-2.7-2.2c-0.6-1.1-0.6-2.5,0-3.6c0.5-1,1.3-1.8,2.3-2.4c0.9-0.5,1.8-0.9,2.8-1c1.8-0.3,3.7-0.1,5.4,0.7
		c1.5,0.6,2.8,1.7,3.7,3.2c0.6,1.3,0.9,2.7,0.9,4.1c0.1,1.2,0,2.4,0,3.2c0,0.8-0.1,1.5-0.1,2C163.1,417.3,163.1,417.6,163,417.8z"/>
	<path class="st2" d="M193,417.8c-0.1-0.3-0.1-0.5-0.2-0.8c-0.1-0.5-0.2-1.3-0.4-2.3c-0.5-2.8-1.3-5.5-2.3-8.1
		c-1.4-3.9-3.8-7.3-6.8-9.9c-1.8-1.4-4-2.3-6.2-2.6c-2.4-0.3-4.9-0.4-7.3-0.4c-10.1-0.2-19.2-0.2-25.8-0.5c-3.3-0.1-6-0.3-7.8-0.5
		l-2.2-0.2c-0.2,0-0.5-0.1-0.7-0.1c0.2,0,0.5,0,0.7,0l2.2,0.1c1.8,0.1,4.5,0.2,7.8,0.2c6.6,0.2,15.7,0.1,25.8,0.3
		c2.5,0,4.9,0.1,7.4,0.4c2.3,0.3,4.6,1.2,6.4,2.7c1.7,1.4,3.1,3.1,4.3,5c1,1.6,1.9,3.4,2.5,5.3c1,2.7,1.7,5.5,2.2,8.3
		c0.2,1,0.3,1.8,0.3,2.3C193.1,417.3,193.1,417.6,193,417.8z"/>
	<rect x="139.5" y="372.3" class="st2" width="75.9" height="12"/>
	<rect x="156.2" y="378.3" class="st3" width="41.3" height="6"/>
</g>
<g id="freepik--Floor--inject-4">
	<path class="st5" d="M718.8,676.8c0,0.1-154,0.3-343.8,0.3s-343.9-0.1-343.9-0.3c0-0.1,153.9-0.3,343.9-0.3
		S718.8,676.6,718.8,676.8z"/>
</g>
<g id="freepik--Plants--inject-4">
	<path class="st6" d="M699.4,535.7c0,0-6.9-4.3-15,11.4c-8.2,15.6-11.3,24.7-11.3,24.7s-2.2,3.3-4.5,1.1c-2.4-2.1-5.6-8.2-9.6-7
		c-4,1.1-5.5,5.6-4.6,12.1c0.8,6.5,2.2,20.7,2.3,22s-0.6,3.1-2.5,1.9s-12.6-12.4-17.8-7.2c-5.3,5.2,0.2,22.9,0.8,24.8
		c0.6,1.9,0.2,2.8-0.8,3.3c-1,0.5-4.2-3.6-7.4-6.7s-7.4-6.1-10.2-2.9s-3.6,16.5,9.9,38l6.9,9.6l12.2-0.7c26-3.1,36.5-11.9,37.5-15.9
		c1-4-4.2-5.4-8.7-5.9s-9.8-0.4-10-1.5s0.3-1.8,2.2-2.6c1.9-0.8,19.9-7.5,20.9-14.7c1-7.2-14.8-8.3-16.9-9c-2.1-0.7-1-2.4,0.1-3.1
		c1.1-0.7,13.7-8.5,19.6-11.8c5.9-3.3,8.7-7.1,7.1-10.9c-1.6-3.8-8.5-2.4-11.7-2.9c-3.2-0.5-1.8-4.1-1.8-4.1s5.5-7.9,13.4-23.7
		C707.1,538.2,699.3,535.6,699.4,535.7"/>
	<path class="st5" d="M692,549.7l-0.2,0.3l-0.5,1l-1.8,3.8c-1.6,3.3-3.9,8-6.9,13.7c-5.8,11.6-14,27.5-23.1,45.1
		c-9.1,17.6-17.4,33.5-23.3,45l-7,13.6l-1.9,3.7l-0.5,1c-0.1,0.2-0.2,0.3-0.2,0.3l0.1-0.3l0.5-1c0.4-0.9,1-2.1,1.8-3.8
		c1.6-3.3,3.9-8,6.9-13.7c5.8-11.6,14-27.5,23.2-45.1c9.1-17.6,17.4-33.5,23.3-45l7-13.6l1.9-3.7l0.5-1
		C691.9,549.8,692,549.7,692,549.7z"/>
	<path class="st5" d="M663.1,574.6c0.1,0.3,0.2,0.5,0.3,0.8c0.2,0.5,0.4,1.3,0.7,2.2c0.6,1.9,1.3,4.4,2,7.3c0.7,2.9,1.4,5.4,1.9,7.3
		c0.2,0.9,0.4,1.6,0.6,2.2c0.1,0.3,0.1,0.5,0.2,0.8c-0.1-0.2-0.2-0.5-0.3-0.8c-0.2-0.5-0.4-1.3-0.7-2.2c-0.5-1.9-1.2-4.4-2-7.3
		c-0.8-2.9-1.4-5.4-1.9-7.3c-0.2-0.9-0.4-1.6-0.6-2.2C663.2,575.1,663.1,574.8,663.1,574.6z"/>
	<path class="st5" d="M669.9,595.4c0-0.1,5.5-1.8,12.3-3.7c6.8-1.9,12.4-3.4,12.4-3.3c0,0.1-5.5,1.8-12.3,3.7
		C675.5,594,669.9,595.5,669.9,595.4z"/>
	<path class="st5" d="M654.6,621.8c0.3-0.1,0.6-0.1,0.9-0.1h2.4c2.1,0,4.9,0,8-0.2c3.1-0.2,6-0.4,8-0.5l2.4-0.2c0.3,0,0.6,0,0.9,0
		c-0.3,0.1-0.6,0.1-0.9,0.2c-0.6,0.1-1.4,0.2-2.4,0.3c-2,0.2-4.9,0.5-8,0.6c-3.2,0.1-6,0.1-8.1,0.1c-1,0-1.9-0.1-2.4-0.1
		C655.2,621.9,654.9,621.8,654.6,621.8z"/>
	<path class="st5" d="M644.1,604.2c0.2,0.2,0.4,0.4,0.5,0.6c0.3,0.4,0.7,1,1.2,1.8c1,1.6,2.4,3.7,3.8,6.1c1.4,2.4,2.8,4.5,3.7,6.2
		c0.5,0.8,0.8,1.4,1.1,1.9c0.1,0.2,0.3,0.5,0.4,0.7c-0.2-0.2-0.4-0.4-0.5-0.6c-0.3-0.4-0.7-1.1-1.2-1.8c-1-1.6-2.4-3.7-3.8-6.1
		c-1.4-2.4-2.8-4.5-3.7-6.2c-0.5-0.8-0.8-1.4-1.1-1.9C644.4,604.7,644.2,604.5,644.1,604.2z"/>
	<path class="st5" d="M627.6,625.9c0.2,0.3,0.4,0.5,0.6,0.8c0.4,0.6,0.9,1.4,1.5,2.3c1.3,2,3,4.7,5,7.8c1.9,3,3.6,5.8,4.9,7.9
		l1.4,2.4c0.2,0.3,0.4,0.6,0.5,0.9c-0.2-0.3-0.4-0.5-0.6-0.8l-1.5-2.3c-1.3-2-3-4.7-5-7.8c-1.9-3.1-3.6-5.8-4.9-7.9
		c-0.6-1-1.1-1.8-1.4-2.4C627.9,626.5,627.7,626.2,627.6,625.9z"/>
	<path class="st5" d="M641.3,647.4c0.4-0.1,0.8-0.1,1.2-0.1l3.1-0.1c2.6-0.1,6.2-0.3,10.2-0.6c4-0.3,7.6-0.6,10.2-0.9l3.1-0.3
		c0.4-0.1,0.8-0.1,1.2-0.1c-0.4,0.1-0.7,0.2-1.1,0.2c-0.7,0.1-1.8,0.3-3.1,0.4c-2.6,0.3-6.2,0.7-10.2,1s-7.6,0.4-10.2,0.4
		c-1.3,0-2.4,0-3.1,0C642.1,647.4,641.7,647.4,641.3,647.4z"/>
	<path class="st6" d="M110.2,646.4c-3.8-1.7-8.1-2.3-12.2-1.5c-2.3,0.2-4.4,1.1-6.1,2.5c-1.5,1.6-1.8,4.4-0.1,5.8
		c1.1,0.7,2.5,1.1,3.8,1c3.2,0,6.8-0.5,9.4,1.3c1.5,1.1,2.4,2.8,4.2,3.4c1.8,0.4,3.7-0.4,4.6-1.9c0.8-1.5,1-3.3,0.6-5
		C114,649.6,112.5,647.6,110.2,646.4z"/>
	<g class="st7">
		<path d="M110.2,646.4c-3.8-1.7-8.1-2.3-12.2-1.5c-2.3,0.2-4.4,1.1-6.1,2.5c-1.5,1.6-1.8,4.4-0.1,5.8c1.1,0.7,2.5,1.1,3.8,1
			c3.2,0,6.8-0.5,9.4,1.3c1.5,1.1,2.4,2.8,4.2,3.4c1.8,0.4,3.7-0.4,4.6-1.9c0.8-1.5,1-3.3,0.6-5C114,649.6,112.5,647.6,110.2,646.4z
			"/>
	</g>
	<path class="st6" d="M118.9,630.8c-2.3,3.1-6.7,2-8.7,0.1c-2-1.9-2.9-4.7-3.7-7.3c-1.8-6-3.6-12.3-2.1-18.4c0.3-1.8,1.2-3.6,2.5-5
		c1.3-1.4,3.4-2,5.3-1.6c2.2,0.6,3.6,2.7,4.6,4.7c2.9,5.9,4.5,12.3,4.5,18.8C121.2,625.1,120.8,628.3,118.9,630.8"/>
	<g class="st7">
		<path class="st0" d="M118.9,630.8c-2.3,3.1-6.7,2-8.7,0.1c-2-1.9-2.9-4.7-3.7-7.3c-1.8-6-3.6-12.3-2.1-18.4c0.3-1.8,1.2-3.6,2.5-5
			c1.3-1.4,3.4-2,5.3-1.6c2.2,0.6,3.6,2.7,4.6,4.7c2.9,5.9,4.5,12.3,4.5,18.8C121.2,625.1,120.8,628.3,118.9,630.8"/>
	</g>
	<path class="st6" d="M125.1,635.3c-2.3-3-3-6.9-1.8-10.4c1.3-3.5,3.5-6.6,6.5-8.9c3.4-2.8,7.3-5,11.6-6.4c1.6-0.6,3.4-0.9,5.2-0.8
		c1.8,0.1,3.4,1.1,4.3,2.5c1.2,2.2,0,4.9-1.3,7.1c-2.2,3.8-4.8,7.5-7.7,11c-2.3,2.8-4.9,5.5-8.4,6.8c-3.5,1.3-7.1,1.1-8.9-1.2"/>
	<path class="st5" d="M118.7,677.6c-0.1-0.5-0.2-0.9-0.2-1.4c-0.1-1-0.2-2.3-0.4-3.9c-0.2-1.9-0.5-3.8-0.9-5.7
		c-0.5-2.3-1.2-4.5-2.1-6.6c-0.9-2.2-2-4.2-3.5-6c-1.2-1.5-2.7-2.7-4.5-3.6c-1.2-0.6-2.5-0.9-3.8-1.1c-0.5,0-1-0.1-1.5-0.2
		c0.5,0,1,0,1.5,0c1.4,0.1,2.7,0.4,4,1c1.9,0.8,3.5,2.1,4.8,3.6c1.5,1.9,2.8,4,3.7,6.2c0.9,2.2,1.6,4.5,2.1,6.8
		c0.4,1.9,0.6,3.8,0.7,5.7c0.1,1.6,0.2,3,0.2,3.9C118.8,676.7,118.8,677.2,118.7,677.6z"/>
	<path class="st5" d="M118.4,674.7c0-0.2,0-0.4,0-0.7c0-0.5,0-1.1,0-1.9c0-1.6,0-4,0-6.9c-0.1-5.8-0.6-13.8-1.5-22.6
		c-0.9-8.8-2.2-16.8-3.4-22.5c-0.3-1.4-0.6-2.7-0.8-3.8c-0.3-1.1-0.5-2.1-0.7-2.9s-0.3-1.3-0.4-1.8c-0.1-0.2-0.1-0.4-0.1-0.6
		c0.1,0.2,0.2,0.4,0.2,0.6c0.1,0.5,0.3,1.1,0.5,1.8c0.2,0.7,0.5,1.8,0.8,2.9c0.3,1.1,0.6,2.4,0.9,3.8c1.6,7.4,2.8,14.9,3.6,22.5
		c1,8.8,1.3,16.9,1.3,22.7c0,2.9-0.1,5.3-0.2,6.9c0,0.8-0.1,1.4-0.1,1.9C118.5,674.3,118.5,674.5,118.4,674.7z"/>
	<path class="st5" d="M118.5,659.2c0-0.7,0-1.3,0-2c0.1-1.3,0.3-3.1,0.7-5.3c0.5-2.6,1.1-5.2,1.9-7.7c0.9-3.1,2.1-6.1,3.4-9.1
		c2.4-5.4,5.8-10.4,10-14.7c0.7-0.7,1.5-1.4,2.4-2.1c0.4-0.3,0.7-0.6,1-0.8l0.9-0.6c0.5-0.4,1.1-0.7,1.7-1c-2,1.5-3.9,3.1-5.7,4.8
		c-4.1,4.3-7.4,9.3-9.8,14.6c-1.4,2.9-2.5,6-3.5,9c-0.9,2.8-1.5,5.4-2,7.6c-0.5,2.2-0.7,4-0.9,5.2
		C118.7,657.9,118.7,658.5,118.5,659.2z"/>
</g>
<path class="st5" d="M314.2,323.4c-0.2,0-0.3-13.1-0.3-29.2s0.1-29.2,0.3-29.2c0.2,0,0.3,13.1,0.3,29.2
	C314.5,310.3,314.4,323.4,314.2,323.4z"/>
<rect x="466.2" y="543.3" class="st5" width="120.5" height="126.3"/>
<rect x="448.6" y="568.5" class="st8" width="131.7" height="31.2"/>
<rect x="454.4" y="574.9" class="st5" width="25.9" height="3.8"/>
<rect x="454.4" y="581.5" class="st5" width="25.9" height="3.8"/>
<rect x="454.4" y="588.3" class="st5" width="25.9" height="3.8"/>
<path class="st5" d="M490.6,577.2c0,0.8-0.7,1.4-1.5,1.4c-0.8,0-1.5-0.6-1.5-1.4s0.7-1.4,1.5-1.4
	C489.9,575.8,490.6,576.5,490.6,577.2L490.6,577.2z"/>
<path class="st5" d="M497.2,577.2c0,0.8-0.7,1.4-1.5,1.4c-0.8,0-1.5-0.6-1.5-1.4s0.7-1.4,1.5-1.4
	C496.5,575.8,497.2,576.5,497.2,577.2L497.2,577.2z"/>
<path class="st5" d="M503.7,577.2c0,0.8-0.7,1.4-1.5,1.4c-0.8,0-1.5-0.6-1.5-1.4s0.7-1.4,1.5-1.4
	C503.1,575.8,503.7,576.5,503.7,577.2L503.7,577.2z"/>
<path class="st5" d="M510.3,577.2c0,0.8-0.7,1.4-1.5,1.4c-0.8,0-1.5-0.6-1.5-1.4s0.7-1.4,1.5-1.4
	C509.6,575.8,510.3,576.5,510.3,577.2L510.3,577.2z"/>
<path class="st5" d="M561.2,577.2c0,0.8-0.7,1.4-1.5,1.4s-1.5-0.6-1.5-1.4c0-0.8,0.7-1.4,1.5-1.4
	C560.5,575.8,561.2,576.5,561.2,577.2L561.2,577.2z"/>
<path class="st5" d="M567.8,577.2c0,0.8-0.7,1.4-1.5,1.4s-1.5-0.6-1.5-1.4c0-0.8,0.7-1.4,1.5-1.4
	C567.2,575.8,567.8,576.5,567.8,577.2L567.8,577.2z"/>
<path class="st5" d="M516.9,577.2c0,0.8-0.7,1.4-1.5,1.4c-0.8,0-1.5-0.6-1.5-1.4s0.7-1.4,1.5-1.4
	C516.2,575.8,516.9,576.5,516.9,577.2L516.9,577.2z"/>
<path class="st5" d="M549.1,577.2c0,0.8-0.7,1.4-1.5,1.4c-0.8,0-1.5-0.6-1.5-1.4c0-0.8,0.7-1.4,1.5-1.4S549.1,576.5,549.1,577.2
	L549.1,577.2z"/>
<path class="st3" d="M523.4,577.2c0,0.8-0.7,1.4-1.5,1.4s-1.5-0.6-1.5-1.4s0.7-1.4,1.5-1.4S523.4,576.5,523.4,577.2L523.4,577.2z"/>
<path class="st3" d="M530,577.2c0,0.8-0.7,1.4-1.5,1.4c-0.8,0-1.5-0.6-1.5-1.4c0-0.8,0.7-1.4,1.5-1.4c0,0,0,0,0,0
	C529.3,575.8,530,576.5,530,577.2z"/>
<path class="st3" d="M543.3,577.2c0,0.8-0.7,1.4-1.5,1.4c-0.8,0-1.5-0.6-1.5-1.4c0-0.8,0.7-1.4,1.5-1.4c0,0,0,0,0,0
	C542.6,575.8,543.3,576.5,543.3,577.2z"/>
<path class="st3" d="M573.3,577.2c0,0.8-0.7,1.4-1.5,1.4s-1.5-0.6-1.5-1.4c0-0.8,0.7-1.4,1.5-1.4
	C572.6,575.8,573.3,576.5,573.3,577.2L573.3,577.2z"/>
<path class="st6" d="M536.6,577.2c0,0.8-0.7,1.4-1.5,1.4s-1.5-0.6-1.5-1.4c0-0.8,0.7-1.4,1.5-1.4c0,0,0,0,0,0
	C535.9,575.8,536.6,576.5,536.6,577.2L536.6,577.2z"/>
<path class="st6" d="M555.3,577.2c0,0.8-0.7,1.4-1.5,1.4c-0.8,0-1.5-0.6-1.5-1.4c0-0.8,0.7-1.4,1.5-1.4S555.3,576.5,555.3,577.2
	L555.3,577.2z"/>
<path class="st5" d="M570.3,584.1c0-0.8,0.7-1.4,1.5-1.4s1.5,0.6,1.5,1.4c0,0.8-0.7,1.4-1.5,1.4C571,585.5,570.3,584.9,570.3,584.1
	L570.3,584.1z"/>
<path class="st5" d="M563.8,584.1c0-0.8,0.7-1.4,1.5-1.4c0.8,0,1.5,0.6,1.5,1.4c0,0.8-0.7,1.4-1.5,1.4c0,0,0,0,0,0
	C564.4,585.5,563.8,584.9,563.8,584.1z"/>
<path class="st5" d="M557.2,584.1c0-0.8,0.7-1.4,1.5-1.4s1.5,0.6,1.5,1.4c0,0.8-0.7,1.4-1.5,1.4c0,0,0,0,0,0
	C557.9,585.5,557.2,584.9,557.2,584.1L557.2,584.1z"/>
<path class="st5" d="M550.6,584.1c0-0.8,0.7-1.4,1.5-1.4c0.8,0,1.5,0.6,1.5,1.4s-0.7,1.4-1.5,1.4c0,0,0,0,0,0
	C551.3,585.5,550.6,584.9,550.6,584.1L550.6,584.1z"/>
<path class="st5" d="M499.8,584.1c0-0.8,0.7-1.4,1.5-1.4s1.5,0.6,1.5,1.4s-0.7,1.4-1.5,1.4c0,0,0,0,0,0
	C500.4,585.5,499.8,584.9,499.8,584.1L499.8,584.1z"/>
<path class="st5" d="M493.1,584.1c0-0.8,0.7-1.4,1.5-1.4c0.8,0,1.5,0.6,1.5,1.4c0,0.8-0.7,1.4-1.5,1.4
	C493.7,585.5,493.1,584.9,493.1,584.1L493.1,584.1z"/>
<path class="st5" d="M544.1,584.1c0-0.8,0.7-1.4,1.5-1.4s1.5,0.6,1.5,1.4c0,0.8-0.7,1.4-1.5,1.4
	C544.7,585.5,544.1,584.9,544.1,584.1L544.1,584.1z"/>
<path class="st5" d="M511.8,584.1c0-0.8,0.7-1.4,1.5-1.4c0.8,0,1.5,0.6,1.5,1.4c0,0.8-0.7,1.4-1.5,1.4
	C512.5,585.5,511.8,584.9,511.8,584.1L511.8,584.1z"/>
<path class="st3" d="M537.5,584.1c0-0.8,0.7-1.4,1.5-1.4s1.5,0.6,1.5,1.4c0,0.8-0.7,1.4-1.5,1.4
	C538.2,585.5,537.5,584.9,537.5,584.1L537.5,584.1z"/>
<path class="st3" d="M530.9,584.1c0-0.8,0.7-1.4,1.5-1.4s1.5,0.6,1.5,1.4c0,0.8-0.7,1.4-1.5,1.4
	C531.6,585.5,530.9,584.9,530.9,584.1L530.9,584.1z"/>
<path class="st3" d="M517.6,584.1c0-0.8,0.7-1.4,1.5-1.4c0.8,0,1.5,0.6,1.5,1.4c0,0.8-0.7,1.4-1.5,1.4
	C518.3,585.5,517.6,584.9,517.6,584.1L517.6,584.1z"/>
<path class="st3" d="M487.6,584.1c0-0.8,0.7-1.4,1.5-1.4c0.8,0,1.5,0.6,1.5,1.4c0,0.8-0.7,1.4-1.5,1.4
	C488.3,585.5,487.6,584.9,487.6,584.1L487.6,584.1z"/>
<path class="st6" d="M524.4,584.1c0-0.8,0.7-1.4,1.5-1.4c0.8,0,1.5,0.6,1.5,1.4c0,0.8-0.7,1.4-1.5,1.4S524.4,584.9,524.4,584.1
	L524.4,584.1z"/>
<path class="st6" d="M505.6,584.1c0-0.8,0.7-1.4,1.5-1.4c0.8,0,1.5,0.6,1.5,1.4c0,0.8-0.7,1.4-1.5,1.4c0,0,0,0,0,0
	C506.3,585.5,505.6,584.9,505.6,584.1z"/>
<ellipse class="st5" cx="489.1" cy="590.2" rx="1.5" ry="1.4"/>
<ellipse class="st5" cx="495.7" cy="590.2" rx="1.5" ry="1.4"/>
<ellipse class="st5" cx="502.2" cy="590.2" rx="1.5" ry="1.4"/>
<ellipse class="st5" cx="508.8" cy="590.2" rx="1.5" ry="1.4"/>
<ellipse class="st5" cx="559.7" cy="590.2" rx="1.5" ry="1.4"/>
<ellipse class="st5" cx="566.4" cy="590.2" rx="1.5" ry="1.4"/>
<ellipse class="st5" cx="515.4" cy="590.2" rx="1.5" ry="1.4"/>
<path class="st5" d="M549.1,590.2c0,0.8-0.7,1.4-1.5,1.4c-0.8,0-1.5-0.6-1.5-1.4c0-0.8,0.7-1.4,1.5-1.4S549.1,589.4,549.1,590.2
	L549.1,590.2z"/>
<ellipse class="st3" cx="521.9" cy="590.2" rx="1.5" ry="1.4"/>
<path class="st3" d="M530,590.2c0,0.8-0.7,1.4-1.5,1.4c-0.8,0-1.5-0.6-1.5-1.4s0.7-1.4,1.5-1.4c0,0,0,0,0,0
	C529.3,588.8,530,589.4,530,590.2z"/>
<ellipse class="st3" cx="541.8" cy="590.2" rx="1.5" ry="1.4"/>
<path class="st3" d="M573.3,590.2c0,0.8-0.7,1.4-1.5,1.4s-1.5-0.6-1.5-1.4c0-0.8,0.7-1.4,1.5-1.4
	C572.6,588.8,573.3,589.4,573.3,590.2L573.3,590.2z"/>
<ellipse class="st6" cx="535.1" cy="590.2" rx="1.5" ry="1.4"/>
<ellipse class="st6" cx="553.9" cy="590.2" rx="1.5" ry="1.4"/>
<rect x="448.6" y="607" class="st8" width="131.7" height="31.2"/>
<path class="st5" d="M490.3,615.5c0,0.8-0.7,1.4-1.5,1.4s-1.5-0.6-1.5-1.4c0-0.8,0.7-1.4,1.5-1.4S490.3,614.7,490.3,615.5
	L490.3,615.5z"/>
<path class="st5" d="M496.8,615.5c0,0.8-0.7,1.4-1.5,1.4c-0.8,0-1.5-0.6-1.5-1.4c0-0.8,0.7-1.4,1.5-1.4
	C496.2,614,496.8,614.7,496.8,615.5L496.8,615.5z"/>
<path class="st5" d="M503.4,615.5c0,0.8-0.7,1.4-1.5,1.4c-0.8,0-1.5-0.6-1.5-1.4c0-0.8,0.7-1.4,1.5-1.4c0,0,0,0,0,0
	C502.7,614,503.4,614.7,503.4,615.5z"/>
<path class="st5" d="M510,615.5c0,0.8-0.7,1.4-1.5,1.4c-0.8,0-1.5-0.6-1.5-1.4c0-0.8,0.7-1.4,1.5-1.4c0,0,0,0,0,0
	C509.3,614,510,614.7,510,615.5L510,615.5z"/>
<path class="st5" d="M560.8,615.5c0,0.8-0.7,1.4-1.5,1.4c-0.8,0-1.5-0.6-1.5-1.4c0-0.8,0.7-1.4,1.5-1.4c0,0,0,0,0,0
	C560.2,614,560.8,614.7,560.8,615.5z"/>
<path class="st5" d="M567.5,615.5c0,0.8-0.7,1.4-1.5,1.4s-1.5-0.6-1.5-1.4c0-0.8,0.7-1.4,1.5-1.4C566.9,614,567.5,614.7,567.5,615.5
	L567.5,615.5z"/>
<path class="st5" d="M516.5,615.5c0,0.8-0.7,1.4-1.5,1.4c-0.8,0-1.5-0.6-1.5-1.4c0-0.8,0.7-1.4,1.5-1.4c0,0,0,0,0,0
	C515.9,614,516.5,614.7,516.5,615.5L516.5,615.5z"/>
<path class="st5" d="M548.8,615.5c0,0.8-0.7,1.4-1.5,1.4c-0.8,0-1.5-0.6-1.5-1.4c0-0.8,0.7-1.4,1.5-1.4c0,0,0,0,0,0
	C548.1,614,548.8,614.7,548.8,615.5L548.8,615.5z"/>
<path class="st3" d="M523.1,615.5c0,0.8-0.7,1.4-1.5,1.4s-1.5-0.6-1.5-1.4c0-0.8,0.7-1.4,1.5-1.4S523.1,614.7,523.1,615.5
	L523.1,615.5z"/>
<path class="st3" d="M529.7,615.5c0,0.8-0.7,1.4-1.5,1.4c-0.8,0-1.5-0.6-1.5-1.4c0-0.8,0.7-1.4,1.5-1.4S529.7,614.7,529.7,615.5
	L529.7,615.5z"/>
<path class="st3" d="M543,615.5c0,0.8-0.7,1.4-1.5,1.4s-1.5-0.6-1.5-1.4c0-0.8,0.7-1.4,1.5-1.4C542.3,614,543,614.7,543,615.5
	L543,615.5z"/>
<path class="st3" d="M573,615.5c0,0.8-0.7,1.4-1.5,1.4s-1.5-0.6-1.5-1.4c0-0.8,0.7-1.4,1.5-1.4C572.3,614,573,614.7,573,615.5
	L573,615.5z"/>
<path class="st6" d="M536.2,615.5c0,0.8-0.7,1.4-1.5,1.4s-1.5-0.6-1.5-1.4c0-0.8,0.7-1.4,1.5-1.4C535.6,614,536.2,614.7,536.2,615.5
	L536.2,615.5z"/>
<path class="st6" d="M555,615.5c0,0.8-0.7,1.4-1.5,1.4c-0.8,0-1.5-0.6-1.5-1.4c0-0.8,0.7-1.4,1.5-1.4c0,0,0,0,0,0
	C554.3,614,555,614.7,555,615.5z"/>
<path class="st5" d="M570,622.3c0-0.8,0.7-1.4,1.5-1.4s1.5,0.6,1.5,1.4c0,0.8-0.7,1.4-1.5,1.4C570.7,623.7,570,623.1,570,622.3z"/>
<path class="st5" d="M563.4,622.3c0-0.8,0.7-1.4,1.5-1.4s1.5,0.6,1.5,1.4c0,0.8-0.7,1.4-1.5,1.4
	C564.1,623.7,563.4,623.1,563.4,622.3z"/>
<path class="st5" d="M556.9,622.3c0-0.8,0.7-1.4,1.5-1.4s1.5,0.6,1.5,1.4c0,0.8-0.7,1.4-1.5,1.4
	C557.5,623.7,556.9,623.1,556.9,622.3z"/>
<path class="st5" d="M550.3,622.3c0-0.8,0.7-1.4,1.5-1.4s1.5,0.6,1.5,1.4c0,0.8-0.7,1.4-1.5,1.4
	C550.9,623.7,550.3,623.1,550.3,622.3z"/>
<path class="st5" d="M499.4,622.3c0-0.8,0.7-1.4,1.5-1.4c0.8,0,1.5,0.6,1.5,1.4c0,0.8-0.7,1.4-1.5,1.4
	C500.1,623.7,499.5,623.1,499.4,622.3z"/>
<path class="st5" d="M492.8,622.3c0-0.8,0.7-1.4,1.5-1.4c0.8,0,1.5,0.6,1.5,1.4c0,0.8-0.7,1.4-1.5,1.4
	C493.4,623.7,492.8,623.1,492.8,622.3z"/>
<path class="st5" d="M543.7,622.3c0-0.8,0.7-1.4,1.5-1.4s1.5,0.6,1.5,1.4c0,0.8-0.7,1.4-1.5,1.4
	C544.4,623.7,543.8,623.1,543.7,622.3z"/>
<path class="st5" d="M511.5,622.3c0-0.8,0.7-1.4,1.5-1.4c0.8,0,1.5,0.6,1.5,1.4c0,0.8-0.7,1.4-1.5,1.4
	C512.2,623.7,511.5,623.1,511.5,622.3z"/>
<path class="st3" d="M537.2,622.3c0-0.8,0.7-1.4,1.5-1.4c0.8,0,1.5,0.6,1.5,1.4c0,0.8-0.7,1.4-1.5,1.4c0,0,0,0,0,0
	C537.8,623.7,537.2,623.1,537.2,622.3z"/>
<path class="st3" d="M530.6,622.3c0-0.8,0.7-1.4,1.5-1.4c0.8,0,1.5,0.6,1.5,1.4c0,0.8-0.7,1.4-1.5,1.4c0,0,0,0,0,0
	C531.3,623.7,530.6,623.1,530.6,622.3z"/>
<path class="st3" d="M517.3,622.3c0-0.8,0.7-1.4,1.5-1.4c0.8,0,1.5,0.6,1.5,1.4c0,0.8-0.7,1.4-1.5,1.4c0,0,0,0,0,0
	C518,623.7,517.3,623.1,517.3,622.3z"/>
<path class="st3" d="M487.3,622.3c0-0.8,0.7-1.4,1.5-1.4c0.8,0,1.5,0.6,1.5,1.4c0,0.8-0.7,1.4-1.5,1.4
	C488,623.7,487.3,623.1,487.3,622.3z"/>
<path class="st6" d="M524,622.3c0-0.8,0.7-1.4,1.5-1.4s1.5,0.6,1.5,1.4c0,0.8-0.7,1.4-1.5,1.4c0,0,0,0,0,0
	C524.7,623.7,524.1,623.1,524,622.3z"/>
<path class="st6" d="M505.3,622.3c0-0.8,0.7-1.4,1.5-1.4s1.5,0.6,1.5,1.4c0,0.8-0.7,1.4-1.5,1.4
	C505.9,623.7,505.3,623.1,505.3,622.3z"/>
<ellipse class="st5" cx="488.8" cy="628.4" rx="1.5" ry="1.4"/>
<ellipse class="st5" cx="495.4" cy="628.4" rx="1.5" ry="1.4"/>
<ellipse class="st5" cx="501.9" cy="628.4" rx="1.5" ry="1.4"/>
<ellipse class="st5" cx="508.5" cy="628.4" rx="1.5" ry="1.4"/>
<ellipse class="st5" cx="559.3" cy="628.4" rx="1.5" ry="1.4"/>
<ellipse class="st5" cx="566" cy="628.4" rx="1.5" ry="1.4"/>
<ellipse class="st5" cx="515" cy="628.4" rx="1.5" ry="1.4"/>
<ellipse class="st5" cx="547.3" cy="628.4" rx="1.5" ry="1.4"/>
<ellipse class="st3" cx="521.6" cy="628.4" rx="1.5" ry="1.4"/>
<ellipse class="st3" cx="528.2" cy="628.4" rx="1.5" ry="1.4"/>
<ellipse class="st3" cx="541.5" cy="628.4" rx="1.5" ry="1.4"/>
<path class="st3" d="M573,628.4c0,0.8-0.7,1.4-1.5,1.4s-1.5-0.6-1.5-1.4c0-0.8,0.7-1.4,1.5-1.4C572.3,627,573,627.6,573,628.4
	L573,628.4z"/>
<ellipse class="st6" cx="534.7" cy="628.4" rx="1.5" ry="1.4"/>
<ellipse class="st6" cx="553.5" cy="628.4" rx="1.5" ry="1.4"/>
<rect x="454.4" y="613.5" class="st5" width="25.9" height="3.8"/>
<rect x="454.4" y="620" class="st5" width="25.9" height="3.8"/>
<rect x="454.4" y="626.8" class="st5" width="25.9" height="3.8"/>
<rect x="448.6" y="645.6" class="st8" width="131.7" height="31.2"/>
<rect x="454.4" y="652" class="st5" width="25.9" height="3.8"/>
<rect x="454.4" y="658.5" class="st5" width="25.9" height="3.8"/>
<rect x="454.4" y="665.3" class="st5" width="25.9" height="3.8"/>
<path class="st5" d="M489.8,654c0,0.8-0.7,1.4-1.5,1.4s-1.5-0.6-1.5-1.4c0-0.8,0.7-1.4,1.5-1.4c0,0,0,0,0,0
	C489.1,652.6,489.8,653.2,489.8,654L489.8,654z"/>
<path class="st5" d="M496.4,654c0,0.8-0.7,1.4-1.5,1.4c-0.8,0-1.5-0.6-1.5-1.4c0-0.8,0.7-1.4,1.5-1.4
	C495.7,652.6,496.4,653.2,496.4,654L496.4,654z"/>
<path class="st5" d="M502.9,654c0,0.8-0.7,1.4-1.5,1.4s-1.5-0.6-1.5-1.4c0-0.8,0.7-1.4,1.5-1.4S502.9,653.2,502.9,654L502.9,654z"/>
<path class="st5" d="M509.5,654c0,0.8-0.7,1.4-1.5,1.4c-0.8,0-1.5-0.6-1.5-1.4c0-0.8,0.7-1.4,1.5-1.4
	C508.8,652.6,509.5,653.2,509.5,654L509.5,654z"/>
<path class="st5" d="M560.4,654c0,0.8-0.7,1.4-1.5,1.4s-1.5-0.6-1.5-1.4c0-0.8,0.7-1.4,1.5-1.4C559.7,652.6,560.4,653.2,560.4,654
	L560.4,654z"/>
<path class="st5" d="M567,654c0,0.8-0.7,1.4-1.5,1.4s-1.5-0.6-1.5-1.4c0-0.8,0.7-1.4,1.5-1.4C566.4,652.6,567,653.2,567,654L567,654
	z"/>
<path class="st5" d="M516.1,654c0,0.8-0.7,1.4-1.5,1.4c-0.8,0-1.5-0.6-1.5-1.4c0-0.8,0.7-1.4,1.5-1.4
	C515.4,652.6,516.1,653.2,516.1,654L516.1,654z"/>
<path class="st5" d="M548.3,654c0,0.8-0.7,1.4-1.5,1.4s-1.5-0.6-1.5-1.4c0-0.8,0.7-1.4,1.5-1.4C547.6,652.6,548.3,653.2,548.3,654
	L548.3,654z"/>
<path class="st3" d="M522.6,654c0,0.8-0.7,1.4-1.5,1.4c-0.8,0-1.5-0.6-1.5-1.4c0-0.8,0.7-1.4,1.5-1.4
	C522,652.6,522.6,653.2,522.6,654L522.6,654z"/>
<path class="st3" d="M529.2,654c0,0.8-0.7,1.4-1.5,1.4c-0.8,0-1.5-0.6-1.5-1.4c0-0.8,0.7-1.4,1.5-1.4S529.2,653.2,529.2,654
	L529.2,654z"/>
<path class="st3" d="M542.5,654c0,0.8-0.7,1.4-1.5,1.4s-1.5-0.6-1.5-1.4c0-0.8,0.7-1.4,1.5-1.4C541.8,652.6,542.5,653.2,542.5,654
	L542.5,654z"/>
<path class="st3" d="M572.5,654c0,0.8-0.7,1.4-1.5,1.4s-1.5-0.6-1.5-1.4s0.7-1.4,1.5-1.4c0,0,0,0,0,0
	C571.8,652.6,572.5,653.2,572.5,654L572.5,654z"/>
<path class="st6" d="M535.8,654c0,0.8-0.7,1.4-1.5,1.4c-0.8,0-1.5-0.6-1.5-1.4c0-0.8,0.7-1.4,1.5-1.4c0,0,0,0,0,0
	C535.1,652.6,535.7,653.2,535.8,654z"/>
<path class="st6" d="M554.6,654c0,0.8-0.7,1.4-1.5,1.4s-1.5-0.6-1.5-1.4c0-0.8,0.7-1.4,1.5-1.4C553.9,652.6,554.6,653.2,554.6,654
	L554.6,654z"/>
<path class="st5" d="M569.5,660.8c0-0.8,0.7-1.4,1.5-1.4c0.8,0,1.5,0.6,1.5,1.4s-0.7,1.4-1.5,1.4c0,0,0,0,0,0
	C570.2,662.2,569.5,661.6,569.5,660.8z"/>
<path class="st5" d="M563,660.8c0-0.8,0.7-1.4,1.5-1.4s1.5,0.6,1.5,1.4c0,0.8-0.7,1.4-1.5,1.4c0,0,0,0,0,0
	C563.6,662.2,563,661.6,563,660.8L563,660.8z"/>
<path class="st5" d="M556.4,660.8c0-0.8,0.7-1.4,1.5-1.4c0.8,0,1.5,0.6,1.5,1.4c0,0.8-0.7,1.4-1.5,1.4S556.4,661.6,556.4,660.8
	L556.4,660.8z"/>
<path class="st5" d="M549.8,660.8c0-0.8,0.7-1.4,1.5-1.4c0.8,0,1.5,0.6,1.5,1.4c0,0.8-0.7,1.4-1.5,1.4
	C550.5,662.2,549.8,661.6,549.8,660.8L549.8,660.8z"/>
<path class="st5" d="M499,660.8c0-0.8,0.7-1.4,1.5-1.4c0.8,0,1.5,0.6,1.5,1.4c0,0.8-0.7,1.4-1.5,1.4
	C499.6,662.2,499,661.6,499,660.8L499,660.8z"/>
<path class="st5" d="M492.3,660.8c0-0.8,0.7-1.4,1.5-1.4c0.8,0,1.5,0.6,1.5,1.4c0,0.8-0.7,1.4-1.5,1.4
	C492.9,662.2,492.3,661.6,492.3,660.8L492.3,660.8z"/>
<path class="st5" d="M543.3,660.8c0-0.8,0.7-1.4,1.5-1.4s1.5,0.6,1.5,1.4c0,0.8-0.7,1.4-1.5,1.4
	C543.9,662.2,543.3,661.6,543.3,660.8L543.3,660.8z"/>
<path class="st5" d="M511,660.8c0-0.8,0.7-1.4,1.5-1.4c0.8,0,1.5,0.6,1.5,1.4c0,0.8-0.7,1.4-1.5,1.4
	C511.7,662.2,511,661.6,511,660.8L511,660.8z"/>
<path class="st3" d="M536.7,660.8c0-0.8,0.7-1.4,1.5-1.4s1.5,0.6,1.5,1.4c0,0.8-0.7,1.4-1.5,1.4
	C537.4,662.2,536.7,661.6,536.7,660.8L536.7,660.8z"/>
<path class="st3" d="M530.1,660.8c0-0.8,0.7-1.4,1.5-1.4s1.5,0.6,1.5,1.4c0,0.8-0.7,1.4-1.5,1.4
	C530.8,662.2,530.1,661.6,530.1,660.8L530.1,660.8z"/>
<path class="st3" d="M516.8,660.8c0-0.8,0.7-1.4,1.5-1.4s1.5,0.6,1.5,1.4c0,0.8-0.7,1.4-1.5,1.4S516.8,661.6,516.8,660.8
	L516.8,660.8z"/>
<path class="st3" d="M486.8,660.8c0-0.8,0.7-1.4,1.5-1.4c0.8,0,1.5,0.6,1.5,1.4c0,0.8-0.7,1.4-1.5,1.4c0,0,0,0,0,0
	C487.5,662.2,486.8,661.6,486.8,660.8z"/>
<path class="st6" d="M523.6,660.8c0-0.8,0.7-1.4,1.5-1.4s1.5,0.6,1.5,1.4c0,0.8-0.7,1.4-1.5,1.4
	C524.2,662.2,523.6,661.6,523.6,660.8L523.6,660.8z"/>
<path class="st6" d="M504.8,660.8c0-0.8,0.7-1.4,1.5-1.4s1.5,0.6,1.5,1.4c0,0.8-0.7,1.4-1.5,1.4c0,0,0,0,0,0
	C505.4,662.2,504.8,661.6,504.8,660.8L504.8,660.8z"/>
<path class="st5" d="M489.8,666.9c0,0.8-0.7,1.4-1.5,1.4s-1.5-0.6-1.5-1.4c0-0.8,0.7-1.4,1.5-1.4
	C489.1,665.5,489.8,666.1,489.8,666.9C489.8,666.9,489.8,666.9,489.8,666.9z"/>
<path class="st5" d="M496.4,666.9c0,0.8-0.7,1.4-1.5,1.4c-0.8,0-1.5-0.6-1.5-1.4s0.7-1.4,1.5-1.4
	C495.7,665.5,496.4,666.1,496.4,666.9z"/>
<path class="st5" d="M502.9,666.9c0,0.8-0.7,1.4-1.5,1.4s-1.5-0.6-1.5-1.4s0.7-1.4,1.5-1.4C502.3,665.5,502.9,666.1,502.9,666.9z"/>
<path class="st5" d="M509.5,666.9c0,0.8-0.7,1.4-1.5,1.4c-0.8,0-1.5-0.6-1.5-1.4s0.7-1.4,1.5-1.4
	C508.8,665.5,509.5,666.1,509.5,666.9z"/>
<path class="st5" d="M560.4,666.9c0,0.8-0.7,1.4-1.5,1.4c-0.8,0-1.5-0.6-1.5-1.4c0-0.8,0.6-1.4,1.4-1.4
	C559.7,665.5,560.3,666.1,560.4,666.9C560.4,666.9,560.4,666.9,560.4,666.9z"/>
<path class="st5" d="M567,666.9c0,0.8-0.7,1.4-1.5,1.4s-1.5-0.6-1.5-1.4c0-0.8,0.7-1.4,1.5-1.4C566.4,665.5,567,666.1,567,666.9z"/>
<path class="st5" d="M516.1,666.9c0,0.8-0.7,1.4-1.5,1.4c-0.8,0-1.5-0.6-1.5-1.4s0.7-1.4,1.5-1.4
	C515.4,665.5,516.1,666.1,516.1,666.9z"/>
<path class="st5" d="M548.3,666.9c0,0.8-0.7,1.4-1.5,1.4s-1.5-0.6-1.5-1.4c0-0.8,0.7-1.4,1.5-1.4
	C547.6,665.5,548.3,666.1,548.3,666.9z"/>
<path class="st3" d="M522.6,666.9c0,0.8-0.7,1.4-1.5,1.4c-0.8,0-1.5-0.6-1.5-1.4s0.7-1.4,1.5-1.4
	C521.9,665.5,522.6,666.1,522.6,666.9z"/>
<path class="st3" d="M529.2,666.9c0,0.8-0.7,1.4-1.5,1.4c-0.8,0-1.5-0.6-1.5-1.4c0-0.8,0.7-1.4,1.5-1.4
	C528.5,665.5,529.2,666.1,529.2,666.9z"/>
<path class="st3" d="M542.5,666.9c0,0.8-0.7,1.4-1.5,1.4s-1.5-0.6-1.5-1.4c0-0.8,0.7-1.4,1.5-1.4
	C541.8,665.5,542.5,666.1,542.5,666.9z"/>
<path class="st3" d="M572.5,666.9c0,0.8-0.7,1.4-1.5,1.4c-0.8,0-1.5-0.6-1.5-1.4c0-0.8,0.7-1.4,1.5-1.4c0,0,0,0,0,0
	C571.8,665.5,572.5,666.1,572.5,666.9z"/>
<path class="st6" d="M535.8,666.9c0,0.8-0.7,1.4-1.5,1.4c-0.8,0-1.5-0.6-1.5-1.4c0-0.8,0.7-1.4,1.5-1.4c0,0,0,0,0,0
	C535.1,665.5,535.7,666.1,535.8,666.9z"/>
<path class="st6" d="M554.6,666.9c0,0.8-0.7,1.4-1.5,1.4s-1.5-0.6-1.5-1.4c0-0.8,0.7-1.4,1.5-1.4
	C553.9,665.5,554.5,666.1,554.6,666.9z"/>
<polygon class="st5" points="600.1,599.7 580.3,599.7 580.3,568.5 600.1,568.5 "/>
<polygon class="st5" points="600.1,561.7 580.3,561.8 580.3,530.6 600.1,530.5 "/>
<polygon class="st5" points="600.1,638 580.3,638 580.3,606.8 600.1,606.7 "/>
<polygon class="st5" points="600.1,676.7 580.3,676.8 580.3,645.6 600.1,645.5 "/>
<rect x="449.5" y="530.3" class="st8" width="131.7" height="31.2"/>
<rect x="455.4" y="536.7" class="st5" width="25.9" height="3.8"/>
<rect x="455.4" y="543.3" class="st5" width="25.9" height="3.8"/>
<rect x="455.4" y="550" class="st5" width="25.9" height="3.8"/>
<path class="st5" d="M491.6,539c0,0.8-0.7,1.4-1.5,1.4c-0.8,0-1.5-0.6-1.5-1.4c0-0.8,0.7-1.4,1.5-1.4
	C490.9,537.6,491.6,538.2,491.6,539L491.6,539z"/>
<path class="st5" d="M498.1,539c0,0.8-0.7,1.4-1.5,1.4c-0.8,0-1.5-0.6-1.5-1.4c0-0.8,0.7-1.4,1.5-1.4
	C497.5,537.6,498.1,538.2,498.1,539L498.1,539z"/>
<path class="st5" d="M504.7,539c0,0.8-0.7,1.4-1.5,1.4c-0.8,0-1.5-0.6-1.5-1.4c0-0.8,0.7-1.4,1.5-1.4
	C504,537.6,504.7,538.2,504.7,539L504.7,539z"/>
<path class="st5" d="M511.2,539c0,0.8-0.7,1.4-1.5,1.4c-0.8,0-1.5-0.6-1.5-1.4c0-0.8,0.7-1.4,1.5-1.4
	C510.6,537.6,511.2,538.2,511.2,539L511.2,539z"/>
<path class="st5" d="M562.1,539c0,0.8-0.7,1.4-1.5,1.4c-0.8,0-1.5-0.6-1.5-1.4c0-0.8,0.7-1.4,1.5-1.4
	C561.4,537.6,562.1,538.2,562.1,539L562.1,539z"/>
<path class="st5" d="M568.8,539c0,0.8-0.7,1.4-1.5,1.4c-0.8,0-1.5-0.6-1.5-1.4c0-0.8,0.7-1.4,1.5-1.4c0,0,0,0,0,0
	C568.1,537.6,568.8,538.2,568.8,539z"/>
<path class="st5" d="M517.8,539c0,0.8-0.7,1.4-1.5,1.4c-0.8,0-1.5-0.6-1.5-1.4c0-0.8,0.7-1.4,1.5-1.4c0,0,0,0,0,0
	C517.1,537.6,517.8,538.2,517.8,539z"/>
<path class="st5" d="M550,539c0,0.8-0.7,1.4-1.5,1.4s-1.5-0.6-1.5-1.4c0-0.8,0.7-1.4,1.5-1.4C549.4,537.6,550,538.2,550,539L550,539
	z"/>
<path class="st3" d="M524.4,539c0,0.8-0.7,1.4-1.5,1.4c-0.8,0-1.5-0.6-1.5-1.4c0-0.8,0.7-1.4,1.5-1.4c0,0,0,0,0,0
	C523.7,537.6,524.4,538.2,524.4,539z"/>
<path class="st3" d="M530.9,539c0,0.8-0.7,1.4-1.5,1.4s-1.5-0.6-1.5-1.4s0.7-1.4,1.5-1.4c0,0,0,0,0,0
	C530.3,537.6,530.9,538.2,530.9,539L530.9,539z"/>
<path class="st3" d="M544.3,539c0,0.8-0.7,1.4-1.5,1.4s-1.5-0.6-1.5-1.4c0-0.8,0.7-1.4,1.5-1.4c0,0,0,0,0,0
	C543.6,537.6,544.3,538.2,544.3,539L544.3,539z"/>
<path class="st3" d="M574.2,539c0,0.8-0.7,1.4-1.5,1.4c-0.8,0-1.5-0.6-1.5-1.4c0-0.8,0.7-1.4,1.5-1.4S574.2,538.2,574.2,539
	L574.2,539z"/>
<path class="st6" d="M537.5,539c0,0.8-0.7,1.4-1.5,1.4s-1.5-0.6-1.5-1.4c0-0.8,0.7-1.4,1.5-1.4C536.8,537.6,537.5,538.2,537.5,539
	L537.5,539z"/>
<path class="st6" d="M556.3,539c0,0.8-0.7,1.4-1.5,1.4s-1.5-0.6-1.5-1.4c0-0.8,0.7-1.4,1.5-1.4C555.6,537.6,556.3,538.2,556.3,539
	L556.3,539z"/>
<path class="st5" d="M571.3,545.9c0-0.8,0.7-1.4,1.5-1.4s1.5,0.6,1.5,1.4c0,0.8-0.7,1.4-1.5,1.4
	C571.9,547.3,571.3,546.6,571.3,545.9z"/>
<path class="st5" d="M564.7,545.9c0-0.8,0.7-1.4,1.5-1.4s1.5,0.6,1.5,1.4c0,0.8-0.7,1.4-1.5,1.4
	C565.4,547.3,564.7,546.6,564.7,545.9z"/>
<path class="st5" d="M558.2,545.9c0-0.8,0.7-1.4,1.5-1.4s1.5,0.6,1.5,1.4c0,0.8-0.7,1.4-1.5,1.4
	C558.8,547.3,558.2,546.6,558.2,545.9z"/>
<path class="st5" d="M551.6,545.9c0-0.8,0.7-1.4,1.5-1.4c0.8,0,1.5,0.6,1.5,1.4c0,0.8-0.7,1.4-1.5,1.4c0,0,0,0,0,0
	C552.3,547.3,551.6,546.6,551.6,545.9z"/>
<path class="st5" d="M500.7,545.9c0-0.8,0.7-1.4,1.5-1.4c0.8,0,1.5,0.6,1.5,1.4c0,0.8-0.7,1.4-1.5,1.4
	C501.4,547.3,500.7,546.6,500.7,545.9z"/>
<path class="st5" d="M494,545.9c0-0.8,0.7-1.4,1.5-1.4s1.5,0.6,1.5,1.4c0,0.8-0.7,1.4-1.5,1.4c0,0,0,0,0,0
	C494.7,547.3,494,546.6,494,545.9z"/>
<path class="st5" d="M545,545.9c0-0.8,0.7-1.4,1.5-1.4s1.5,0.6,1.5,1.4c0,0.8-0.7,1.4-1.5,1.4c0,0,0,0,0,0
	C545.7,547.3,545,546.6,545,545.9z"/>
<path class="st5" d="M512.8,545.9c0-0.8,0.7-1.4,1.5-1.4s1.5,0.6,1.5,1.4c0,0.8-0.7,1.4-1.5,1.4c0,0,0,0,0,0
	C513.5,547.3,512.8,546.6,512.8,545.9z"/>
<path class="st3" d="M538.5,545.9c0-0.8,0.7-1.4,1.5-1.4c0.8,0,1.5,0.6,1.5,1.4c0,0.8-0.7,1.4-1.5,1.4
	C539.1,547.3,538.5,546.6,538.5,545.9z"/>
<path class="st3" d="M531.9,545.9c0-0.8,0.7-1.4,1.5-1.4s1.5,0.6,1.5,1.4c0,0.8-0.7,1.4-1.5,1.4
	C532.6,547.3,531.9,546.6,531.9,545.9z"/>
<path class="st3" d="M518.6,545.9c0-0.8,0.7-1.4,1.5-1.4s1.5,0.6,1.5,1.4c0,0.8-0.7,1.4-1.5,1.4
	C519.2,547.3,518.6,546.6,518.6,545.9z"/>
<path class="st3" d="M488.6,545.9c0-0.8,0.7-1.4,1.5-1.4c0.8,0,1.5,0.6,1.5,1.4c0,0.8-0.7,1.4-1.5,1.4
	C489.3,547.3,488.6,546.6,488.6,545.9z"/>
<path class="st6" d="M525.3,545.9c0-0.8,0.7-1.4,1.5-1.4s1.5,0.6,1.5,1.4c0,0.8-0.7,1.4-1.5,1.4C526,547.3,525.3,546.6,525.3,545.9z
	"/>
<path class="st6" d="M506.5,545.9c0-0.8,0.7-1.4,1.5-1.4c0.8,0,1.5,0.6,1.5,1.4c0,0.8-0.7,1.4-1.5,1.4
	C507.2,547.3,506.5,546.6,506.5,545.9z"/>
<path class="st5" d="M491.6,551.9c0,0.8-0.7,1.4-1.5,1.4c-0.8,0-1.5-0.6-1.5-1.4c0-0.8,0.7-1.4,1.5-1.4
	C490.9,550.5,491.6,551.2,491.6,551.9L491.6,551.9z"/>
<path class="st5" d="M498.1,551.9c0,0.8-0.7,1.4-1.5,1.4c-0.8,0-1.5-0.6-1.5-1.4c0-0.8,0.7-1.4,1.5-1.4
	C497.5,550.5,498.1,551.2,498.1,551.9L498.1,551.9z"/>
<path class="st5" d="M504.7,551.9c0,0.8-0.7,1.4-1.5,1.4c-0.8,0-1.5-0.6-1.5-1.4c0-0.8,0.7-1.4,1.5-1.4c0,0,0,0,0,0
	C504.1,550.5,504.7,551.2,504.7,551.9z"/>
<path class="st5" d="M511.2,551.9c0,0.8-0.7,1.4-1.5,1.4c-0.8,0-1.5-0.6-1.5-1.4c0-0.8,0.7-1.4,1.5-1.4
	C510.6,550.5,511.2,551.2,511.2,551.9L511.2,551.9z"/>
<path class="st5" d="M562.1,551.9c0,0.8-0.7,1.4-1.5,1.4c-0.8,0-1.5-0.6-1.5-1.4c0-0.8,0.7-1.4,1.5-1.4
	C561.4,550.5,562.1,551.2,562.1,551.9L562.1,551.9z"/>
<path class="st5" d="M568.8,551.9c0,0.8-0.7,1.4-1.5,1.4c-0.8,0-1.5-0.6-1.5-1.4c0-0.8,0.7-1.4,1.5-1.4c0,0,0,0,0,0
	C568.1,550.5,568.8,551.2,568.8,551.9z"/>
<path class="st5" d="M517.8,551.9c0,0.8-0.7,1.4-1.5,1.4c-0.8,0-1.5-0.6-1.5-1.4c0-0.8,0.7-1.4,1.5-1.4c0,0,0,0,0,0
	C517.1,550.5,517.8,551.2,517.8,551.9z"/>
<path class="st5" d="M550,551.9c0,0.8-0.7,1.4-1.5,1.4s-1.5-0.6-1.5-1.4c0-0.8,0.7-1.4,1.5-1.4C549.4,550.5,550,551.2,550,551.9
	L550,551.9z"/>
<path class="st3" d="M524.4,551.9c0,0.8-0.7,1.4-1.5,1.4c-0.8,0-1.5-0.6-1.5-1.4c0-0.8,0.7-1.4,1.5-1.4c0,0,0,0,0,0
	C523.7,550.5,524.4,551.2,524.4,551.9z"/>
<path class="st3" d="M530.9,551.9c0,0.8-0.7,1.4-1.5,1.4s-1.5-0.6-1.5-1.4s0.7-1.4,1.5-1.4c0,0,0,0,0,0
	C530.3,550.5,530.9,551.2,530.9,551.9L530.9,551.9z"/>
<path class="st3" d="M544.3,551.9c0,0.8-0.7,1.4-1.5,1.4s-1.5-0.6-1.5-1.4c0-0.8,0.7-1.4,1.5-1.4c0,0,0,0,0,0
	C543.6,550.5,544.3,551.2,544.3,551.9z"/>
<path class="st3" d="M574.2,551.9c0,0.8-0.7,1.4-1.5,1.4c-0.8,0-1.5-0.6-1.5-1.4c0-0.8,0.6-1.4,1.4-1.4
	C573.5,550.5,574.2,551.1,574.2,551.9C574.2,551.9,574.2,551.9,574.2,551.9z"/>
<path class="st6" d="M537.5,551.9c0,0.8-0.7,1.4-1.5,1.4s-1.5-0.6-1.5-1.4c0-0.8,0.7-1.4,1.5-1.4
	C536.8,550.5,537.5,551.2,537.5,551.9L537.5,551.9z"/>
<path class="st6" d="M556.3,551.9c0,0.8-0.7,1.4-1.5,1.4s-1.5-0.6-1.5-1.4c0-0.8,0.7-1.4,1.5-1.4
	C555.6,550.5,556.3,551.2,556.3,551.9L556.3,551.9z"/>
<path class="st5" d="M364.4,252.5h1.1h3.4h13.3l48.9-0.1l161.3-0.1c4-0.1,7.9,0.7,11.6,2.1c3.7,1.5,7.2,3.8,10.2,6.7
	c6,5.8,10.1,13.9,11.7,22.9c0.6,4.4,0.8,8.8,0.7,13.2c0,4.4,0,8.7,0,13v25.1c0,32.7,0,62.1-0.1,86.8c0,6.2,0,12.1,0,17.6
	c0,2.7,0,5.5,0,8.1c0.1,2.6-0.4,5.1-1.3,7.5c-1.7,4.3-4.8,7.4-8.6,8.5c-1.7,0.4-3.3,0.6-5,0.5H607h-13.3h-3.4h-1.1h1.1h3.4H607h4.6
	c1.7,0.1,3.3-0.1,5-0.5c3.7-1.1,6.8-4.2,8.4-8.3c0.9-2.3,1.3-4.8,1.1-7.3c0-2.6,0-5.3,0-8.1c0-5.6,0-11.5,0-17.6
	c0-24.7,0-54.2,0-86.8c0-8.2,0-16.5,0-25.1c0-4.3,0-8.6,0-13c0.2-4.4-0.1-8.8-0.6-13.1c-1.6-8.9-5.6-16.8-11.4-22.5
	c-3-2.9-6.4-5.1-10-6.6c-3.7-1.4-7.6-2.2-11.4-2.1l-161.3-0.1l-48.9-0.1h-13.3h-3.4L364.4,252.5z"/>
<rect x="253.8" y="325" class="st1" width="104.8" height="351.1"/>
<polygon class="st2" points="441.4,676.1 358.7,676.1 358.5,325 441.4,325 "/>
<rect x="259.6" y="381.2" class="st5" width="88.9" height="27.4"/>
<rect x="262.1" y="384.6" class="st8" width="5" height="21"/>
<path class="st0" d="M273,389c0,1-0.7,1.7-1.6,1.7c-0.9,0-1.6-0.8-1.6-1.7c0-1,0.7-1.7,1.6-1.7l0,0C272.2,387.3,273,388.1,273,389z"
	/>
<path class="st0" d="M273,396.4c0,1-0.7,1.7-1.6,1.7c-0.9,0-1.6-0.8-1.6-1.7c0-1,0.7-1.7,1.6-1.7l0,0
	C272.2,394.7,273,395.5,273,396.4z"/>
<rect x="279.3" y="387.3" class="st8" width="4.9" height="16.1"/>
<rect x="286.3" y="387.3" class="st8" width="4.9" height="16.1"/>
<rect x="293.4" y="387.3" class="st8" width="4.9" height="16.1"/>
<rect x="300.5" y="387.3" class="st8" width="4.9" height="16.1"/>
<rect x="307.5" y="387.3" class="st8" width="4.9" height="16.1"/>
<rect x="314.6" y="387.3" class="st8" width="4.9" height="16.1"/>
<rect x="321.7" y="387.3" class="st8" width="4.9" height="16.1"/>
<rect x="328.8" y="387.3" class="st8" width="4.9" height="16.1"/>
<rect x="335.8" y="387.3" class="st8" width="4.9" height="16.1"/>
<rect x="342.9" y="387.3" class="st8" width="4.9" height="16.1"/>
<rect x="259.6" y="420.5" class="st5" width="88.9" height="27.4"/>
<rect x="262.1" y="423.9" class="st8" width="5" height="21"/>
<path class="st0" d="M273,428.4c0,1-0.7,1.7-1.6,1.7c-0.9,0-1.6-0.8-1.6-1.7c0-1,0.7-1.7,1.6-1.7l0,0
	C272.2,426.6,273,427.4,273,428.4z"/>
<path class="st0" d="M273,435.8c0,1-0.7,1.7-1.6,1.7c-0.9,0-1.6-0.8-1.6-1.7c0-1,0.7-1.7,1.6-1.7l0,0C272.2,434,273,434.8,273,435.8
	z"/>
<rect x="279.3" y="426.6" class="st8" width="4.9" height="16.1"/>
<rect x="286.3" y="426.6" class="st8" width="4.9" height="16.1"/>
<rect x="293.4" y="426.6" class="st8" width="4.9" height="16.1"/>
<rect x="300.5" y="426.6" class="st8" width="4.9" height="16.1"/>
<rect x="307.5" y="426.6" class="st8" width="4.9" height="16.1"/>
<rect x="314.6" y="426.6" class="st8" width="4.9" height="16.1"/>
<rect x="321.7" y="426.6" class="st8" width="4.9" height="16.1"/>
<rect x="328.8" y="426.6" class="st8" width="4.9" height="16.1"/>
<rect x="335.8" y="426.6" class="st8" width="4.9" height="16.1"/>
<rect x="342.9" y="426.6" class="st8" width="4.9" height="16.1"/>
<rect x="259.6" y="460.1" class="st5" width="88.9" height="27.4"/>
<rect x="262.1" y="463.6" class="st8" width="5" height="21"/>
<path class="st0" d="M273,468c0,1-0.7,1.7-1.6,1.7c-0.9,0-1.6-0.8-1.6-1.7c0-1,0.7-1.7,1.6-1.7c0,0,0,0,0,0
	C272.2,466.3,273,467,273,468z"/>
<path class="st0" d="M273,475.4c0,1-0.7,1.7-1.6,1.7c-0.9,0-1.6-0.8-1.6-1.7c0-1,0.7-1.7,1.6-1.7c0,0,0,0,0,0
	C272.2,473.7,273,474.4,273,475.4z"/>
<rect x="279.3" y="466.3" class="st8" width="4.9" height="16.1"/>
<rect x="286.3" y="466.3" class="st8" width="4.9" height="16.1"/>
<rect x="293.4" y="466.3" class="st8" width="4.9" height="16.1"/>
<rect x="300.5" y="466.3" class="st8" width="4.9" height="16.1"/>
<rect x="307.5" y="466.3" class="st8" width="4.9" height="16.1"/>
<rect x="314.6" y="466.3" class="st8" width="4.9" height="16.1"/>
<rect x="321.7" y="466.3" class="st8" width="4.9" height="16.1"/>
<rect x="328.8" y="466.3" class="st8" width="4.9" height="16.1"/>
<rect x="335.8" y="466.3" class="st8" width="4.9" height="16.1"/>
<rect x="342.9" y="466.3" class="st8" width="4.9" height="16.1"/>
<rect x="259.6" y="503" class="st5" width="88.9" height="27.4"/>
<rect x="262.1" y="506.4" class="st8" width="5" height="21"/>
<path class="st0" d="M273,510.8c0,1-0.7,1.7-1.6,1.7c-0.9,0-1.6-0.8-1.6-1.7c0-1,0.7-1.7,1.6-1.7c0,0,0,0,0,0
	C272.2,509.1,273,509.9,273,510.8z"/>
<path class="st0" d="M273,518.2c0,1-0.7,1.7-1.6,1.7c-0.9,0-1.6-0.8-1.6-1.7c0-1,0.7-1.7,1.6-1.7c0,0,0,0,0,0
	C272.2,516.5,273,517.3,273,518.2z"/>
<rect x="279.3" y="509.1" class="st8" width="4.9" height="16.1"/>
<rect x="286.3" y="509.1" class="st8" width="4.9" height="16.1"/>
<rect x="293.4" y="509.1" class="st8" width="4.9" height="16.1"/>
<rect x="300.5" y="509.1" class="st8" width="4.9" height="16.1"/>
<rect x="307.5" y="509.1" class="st8" width="4.9" height="16.1"/>
<rect x="314.6" y="509.1" class="st8" width="4.9" height="16.1"/>
<rect x="321.7" y="509.1" class="st8" width="4.9" height="16.1"/>
<rect x="328.8" y="509.1" class="st8" width="4.9" height="16.1"/>
<rect x="335.8" y="509.1" class="st8" width="4.9" height="16.1"/>
<rect x="342.9" y="509.1" class="st8" width="4.9" height="16.1"/>
<rect x="259.6" y="546.2" class="st5" width="88.9" height="27.4"/>
<rect x="262.1" y="549.7" class="st8" width="5" height="21"/>
<path class="st0" d="M273,554.1c0,1-0.7,1.7-1.6,1.7c-0.9,0-1.6-0.8-1.6-1.7c0-1,0.7-1.7,1.6-1.7c0,0,0,0,0,0
	C272.2,552.3,273,553.1,273,554.1z"/>
<path class="st0" d="M273,561.5c0,1-0.7,1.7-1.6,1.7c-0.9,0-1.6-0.8-1.6-1.7c0-1,0.7-1.7,1.6-1.7c0,0,0,0,0,0
	C272.2,559.7,273,560.5,273,561.5z"/>
<rect x="279.3" y="552.3" class="st8" width="4.9" height="16.1"/>
<rect x="286.3" y="552.3" class="st8" width="4.9" height="16.1"/>
<rect x="293.4" y="552.3" class="st8" width="4.9" height="16.1"/>
<rect x="300.5" y="552.3" class="st8" width="4.9" height="16.1"/>
<rect x="307.5" y="552.3" class="st8" width="4.9" height="16.1"/>
<rect x="314.6" y="552.3" class="st8" width="4.9" height="16.1"/>
<rect x="321.7" y="552.3" class="st8" width="4.9" height="16.1"/>
<rect x="328.8" y="552.3" class="st8" width="4.9" height="16.1"/>
<rect x="335.8" y="552.3" class="st8" width="4.9" height="16.1"/>
<rect x="342.9" y="552.3" class="st8" width="4.9" height="16.1"/>
<rect x="259.6" y="632.3" class="st5" width="88.9" height="27.4"/>
<rect x="262.1" y="635.7" class="st8" width="5" height="21"/>
<path class="st0" d="M273,640.1c0,1-0.7,1.7-1.6,1.7c-0.9,0-1.6-0.8-1.6-1.7c0-1,0.7-1.7,1.6-1.7c0,0,0,0,0,0
	C272.2,638.4,273,639.2,273,640.1z"/>
<path class="st0" d="M273,647.5c0,1-0.7,1.7-1.6,1.7c-0.9,0-1.6-0.8-1.6-1.7c0-1,0.7-1.7,1.6-1.7c0,0,0,0,0,0
	C272.2,645.8,273,646.6,273,647.5z"/>
<rect x="279.3" y="638.4" class="st8" width="4.9" height="16.1"/>
<rect x="286.3" y="638.4" class="st8" width="4.9" height="16.1"/>
<rect x="293.4" y="638.4" class="st8" width="4.9" height="16.1"/>
<rect x="300.5" y="638.4" class="st8" width="4.9" height="16.1"/>
<rect x="307.5" y="638.4" class="st8" width="4.9" height="16.1"/>
<rect x="314.6" y="638.4" class="st8" width="4.9" height="16.1"/>
<rect x="321.7" y="638.4" class="st8" width="4.9" height="16.1"/>
<rect x="328.8" y="638.4" class="st8" width="4.9" height="16.1"/>
<rect x="335.8" y="638.4" class="st8" width="4.9" height="16.1"/>
<rect x="342.9" y="638.4" class="st8" width="4.9" height="16.1"/>
<rect x="259.6" y="589.3" class="st5" width="88.9" height="27.4"/>
<rect x="262.1" y="592.7" class="st8" width="5" height="21"/>
<path class="st0" d="M273,597.1c0,1-0.7,1.7-1.6,1.7c-0.9,0-1.6-0.8-1.6-1.7c0-1,0.7-1.7,1.6-1.7c0,0,0,0,0,0
	C272.2,595.4,273,596.2,273,597.1z"/>
<path class="st0" d="M273,604.5c0,1-0.7,1.7-1.6,1.7c-0.9,0-1.6-0.8-1.6-1.7c0-1,0.7-1.7,1.6-1.7c0,0,0,0,0,0
	C272.2,602.8,273,603.6,273,604.5z"/>
<rect x="279.3" y="595.4" class="st8" width="4.9" height="16.1"/>
<rect x="286.3" y="595.4" class="st8" width="4.9" height="16.1"/>
<rect x="293.4" y="595.4" class="st8" width="4.9" height="16.1"/>
<rect x="300.5" y="595.4" class="st8" width="4.9" height="16.1"/>
<rect x="307.5" y="595.4" class="st8" width="4.9" height="16.1"/>
<rect x="314.6" y="595.4" class="st8" width="4.9" height="16.1"/>
<rect x="321.7" y="595.4" class="st8" width="4.9" height="16.1"/>
<rect x="328.8" y="595.4" class="st8" width="4.9" height="16.1"/>
<rect x="335.8" y="595.4" class="st8" width="4.9" height="16.1"/>
<rect x="342.9" y="595.4" class="st8" width="4.9" height="16.1"/>
<path class="st5" d="M314.6,381.2c-0.1-0.3-0.1-0.6-0.1-0.9c0-0.5-0.1-1.4-0.1-2.4c0-1,0-2.4-0.1-3.8c0-1.7-0.3-3.4-0.6-5
	c-0.5-2-1.3-3.8-2.4-5.5c-1.2-1.9-2.9-3.4-4.9-4.3c-2.2-0.9-4.6-1.4-6.9-1.5l-7.6-0.7c-10.5-1-20-1.6-26.9-1.8c-3.5-0.1-6.2,0-8.2,0
	h-2.2c-0.3,0-0.5,0-0.8,0c0.3-0.1,0.5-0.1,0.8-0.1l2.2-0.1c1.9-0.1,4.7-0.2,8.2-0.2c6.9,0,16.4,0.6,27,1.6l7.7,0.7
	c2.4,0.1,4.8,0.7,7.1,1.6c2,0.9,3.8,2.5,5.1,4.5c1.1,1.7,1.9,3.6,2.4,5.7c0.3,1.7,0.5,3.4,0.5,5.1c0,1.5,0,2.8,0,3.8s0,1.8,0,2.4
	C314.7,380.6,314.7,380.9,314.6,381.2z"/>
<path class="st5" d="M287.6,381.2c0-0.3-0.1-0.5-0.1-0.8c0-0.6,0-1.3,0-2.3s0-2.2-0.1-3.6c-0.1-1.6-0.4-3.1-1.1-4.5
	c-1-1.6-2.4-2.8-4-3.4c-1.9-0.8-3.9-1-5.9-0.7c-1.1,0.2-2.1,0.6-3,1.1c-1,0.5-1.8,1.4-2.3,2.4c-0.6,1.1-0.6,2.4,0,3.4
	c0.6,1.1,1.5,1.9,2.7,2.2c1.1,0.3,2.3-0.1,3.1-1c1.7-1.7,1.9-4.6,0.5-6.6c-0.6-1-1.4-1.7-2.4-2.3c-0.9-0.5-1.9-0.7-2.9-0.8
	c-1-0.2-2-0.3-2.9-0.4c-1.9-0.2-3.7-0.4-5.3-0.4c-3.3-0.1-5.9-0.1-7.7-0.1h-2.1c-0.2,0-0.5,0-0.7,0c0.2-0.1,0.5-0.1,0.7-0.1l2.1-0.1
	c1.8-0.1,4.4-0.2,7.7-0.1c1.6,0,3.4,0.2,5.3,0.4c1,0.1,1.9,0.2,3,0.4c0.5,0.1,1,0.2,1.5,0.3c0.5,0.1,1.1,0.3,1.6,0.6
	c1,0.6,1.9,1.4,2.6,2.4c0.8,1.1,1.1,2.4,1.1,3.7c-0.1,1.4-0.7,2.7-1.6,3.7c-0.9,1-2.3,1.5-3.6,1.2c-1.3-0.3-2.4-1.2-3-2.5
	c-0.6-1.2-0.6-2.8,0-4c0.6-1.1,1.5-2.1,2.6-2.7c1-0.6,2.1-1,3.2-1.2c2.1-0.4,4.2-0.1,6.1,0.7c1.7,0.7,3.2,2,4.2,3.6
	c0.7,1.5,1,3.1,1.1,4.7c0.1,1.4,0,2.6,0,3.6s-0.1,1.7-0.1,2.3C287.7,380.7,287.7,381,287.6,381.2z"/>
<path class="st5" d="M321.9,381.2c-0.1-0.3-0.2-0.6-0.2-0.9c-0.1-0.6-0.2-1.5-0.5-2.6c-0.6-3.2-1.5-6.3-2.6-9.3
	c-1.6-4.5-4.3-8.4-7.7-11.4c-2.1-1.6-4.5-2.7-7.1-3c-2.8-0.3-5.6-0.5-8.3-0.5c-11.5-0.2-21.9-0.2-29.4-0.5c-3.8-0.1-6.8-0.3-8.9-0.5
	l-2.4-0.2c-0.3,0-0.6-0.1-0.8-0.1h0.8l2.4,0.1c2.1,0.1,5.2,0.2,8.9,0.3c7.5,0.2,17.9,0.1,29.4,0.3c2.8,0,5.6,0.2,8.4,0.5
	c2.6,0.3,5.2,1.4,7.3,3.1c1.9,1.6,3.5,3.5,4.9,5.7c1.2,1.9,2.1,3.9,2.9,5.9c1.1,3,1.9,6.2,2.5,9.4c0.2,1.2,0.3,2,0.4,2.6
	C321.8,380.5,321.9,380.9,321.9,381.2z"/>
<rect x="260.8" y="329.3" class="st5" width="86.5" height="13.7"/>
<rect x="279.9" y="336.2" class="st8" width="47.1" height="6.9"/>
<path class="st5" d="M382.7,614c0,0.1-1,0.2-2.6,0.7c-2.3,0.8-4.5,2-6.5,3.5c-1.4,1-2.6,2.3-3.7,3.7c-0.6,0.8-1.1,1.6-1.5,2.6
	c-0.4,1-0.7,2-0.9,3c-1,4.3-0.7,9.3-0.5,14.5c0.2,5.2-0.1,10.3-2,14.5c-0.8,2-2,3.7-3.5,5.2c-2.4,2.3-5.3,3.8-8.4,4.3
	c-1.1,0.2-2.1,0.2-3.2,0.1c-0.7,0-1.3-0.2-2-0.3c-0.2-0.1-0.5-0.1-0.7-0.2c0-0.1,0.9,0.2,2.7,0.3c1,0,2.1,0,3.1-0.2
	c1.4-0.3,2.7-0.7,3.9-1.4c1.5-0.8,2.9-1.8,4.2-3c1.4-1.4,2.6-3.1,3.4-5c1.8-4,2.1-9,1.9-14.2s-0.5-10.2,0.6-14.6
	c0.2-1.1,0.6-2.1,1-3.1c0.4-0.9,1-1.8,1.6-2.6c1.1-1.4,2.4-2.7,3.8-3.8c2-1.5,4.3-2.7,6.7-3.4c0.6-0.2,1.3-0.3,2-0.4
	C382.2,614.1,382.4,614,382.7,614z"/>
<rect x="342.7" y="661.3" class="st5" width="7.1" height="9.4"/>
<rect x="382.6" y="590.2" class="st8" width="39.8" height="47.7"/>
<ellipse class="st5" cx="402.5" cy="614.2" rx="13.1" ry="14.3"/>
<path class="st8" d="M409.1,614.2c0,3.9-2.9,7.1-6.5,7.1c-3.6,0-6.5-3.2-6.5-7.1c0-3.9,2.9-7.1,6.5-7.1
	C406.2,607.1,409.1,610.3,409.1,614.2z"/>
<ellipse class="st5" cx="388" cy="597.6" rx="1.2" ry="1.3"/>
<ellipse class="st5" cx="416.3" cy="597.6" rx="1.2" ry="1.3"/>
<path class="st5" d="M417.8,632.8c0,0.7-0.5,1.3-1.2,1.4c-0.7,0-1.2-0.6-1.2-1.3c0-0.7,0.5-1.3,1.2-1.4c0,0,0,0,0,0
	C417.3,631.5,417.8,632.1,417.8,632.8z"/>
<ellipse class="st5" cx="388" cy="633.4" rx="1.2" ry="1.3"/>
<rect x="422.4" y="590.2" class="st5" width="3.2" height="47.7"/>
<path class="st6" d="M443.8,285.4c8.5-19,3.3-38.8-10.6-54.5c-14.5-15.9-37-22.9-58.6-18.1c-6.3-34-40.3-56.7-75.9-50.6
	c-30.1,5.1-52.5,29.5-53.9,58.7c-26.7,4.3-44.7,28.4-40.2,53.9c0.6,3.3,1.5,6.5,2.8,9.6L443.8,285.4z"/>
<path class="st5" d="M597.7,548.9c0.1,0,0.3,0,0.4,0h1.1l4.3-0.1c2.3,0.1,4.5-0.2,6.7-0.8c6.5-1.7,11.6-6.3,13.9-12.3
	c0.3-0.9,0.6-1.8,0.8-2.7c0.2-1,0.3-1.9,0.4-2.9c0.1-2,0-4.1,0.1-6.1c0-8.4,0-17.7,0-27.4v-7.2c0-1.2,0-2.3-0.1-3.5
	c-0.1-1.1-0.4-2.2-0.8-3.3c-1.6-4.1-4.8-7.5-9.1-9.2c-4-1.8-8.4-1.2-12.3-1.3l-10.9-0.1l-15.8-0.2l-4.3-0.1h-1.1h-0.4h0.4h1.1h4.3
	h15.8H603h6.1c2.2,0,4.4,0.4,6.4,1.3c4.4,1.8,7.8,5.2,9.4,9.5c0.4,1.1,0.7,2.3,0.9,3.4c0.1,1.2,0.2,2.4,0.1,3.6v7.2
	c0,9.7,0,19,0,27.4c0,2.1,0.1,4.2-0.1,6.2c-0.1,1-0.2,2-0.4,3c-0.2,0.9-0.5,1.9-0.9,2.8c-2.3,6.1-7.7,10.8-14.3,12.5
	c-2.2,0.5-4.5,0.8-6.8,0.7h-4.3h-1.1C598,549.1,597.9,549,597.7,548.9z"/>
<polygon class="st0" points="306.9,285.4 306.9,253.3 290.2,253.3 315.3,219.1 340.4,253 324,253 324,285.4 "/>
<g id="freepik--Character--inject-4">
	<polygon class="st2" points="639,508.6 650.8,523.3 673.3,513.8 658.9,491.8 	"/>
	<polygon class="st8" points="646,510.4 646.4,517.6 653.8,521 653.4,513.5 	"/>
	<polygon class="st8" points="653.1,506.3 653.4,513.6 660.9,516.9 660.5,509.4 	"/>
	<polygon class="st8" points="660.2,502.2 660.6,509.5 668,512.8 667.6,505.4 	"/>
	<path class="st6" d="M674.2,513.5l-2.6-3.7l-22,13.3l5.2,8.3l1.4-0.7c6.4-3.1,32.3-16.3,35.7-19.8
		C695.7,507.1,674.2,513.5,674.2,513.5z"/>
	<g class="st9">
		<path class="st0" d="M662.8,526.7c-1.4-1.7-3.4-2.8-5.6-3.2c-2.3-0.4-4.6,0.2-6.4,1.6l3.7,6L662.8,526.7z"/>
	</g>
	<path class="st10" d="M684.9,510.7c0,0,7.8-1.9,7.6-0.4s-25.8,15.7-37.7,21.1l-0.3-0.5l30.1-16.4
		C684.6,514.6,683.6,511.5,684.9,510.7z"/>
	<path class="st5" d="M654.2,531.1c0.2,0,0.3-0.1,0.4-0.2l1.1-0.6l4.2-2.1c3.5-1.8,8.3-4.3,13.6-7.3c5.3-2.9,10-5.7,13.4-7.7l4-2.4
		l1.1-0.7l0.4-0.3c0,0-0.2,0-0.4,0.2l-1.1,0.6c-1.1,0.6-2.5,1.4-4,2.3c-3.4,2-8.1,4.7-13.4,7.6s-10.1,5.5-13.6,7.3l-4.1,2.2
		l-1.1,0.6C654.4,530.9,654.3,531,654.2,531.1z"/>
	<path class="st5" d="M684.8,514.9c-0.2-0.7-0.4-1.5-0.4-2.3c0.1-0.8,0.2-1.5,0.5-2.3c-0.6,0.6-0.8,1.4-0.8,2.3
		C684,513.4,684.3,514.2,684.8,514.9z"/>
	<path class="st5" d="M676.2,515.4c0.1,0,0.2-0.5,0.2-1.2c0.1-0.4,0-0.8-0.1-1.2c-0.1,0-0.2,0.5-0.2,1.2
		C676,514.6,676.1,515,676.2,515.4z"/>
	<path class="st5" d="M673.8,515.5c0,0,0.3-0.4,0.5-0.9c0.2-0.5,0.3-1,0.2-1c-0.1,0-0.3,0.4-0.5,0.9
		C673.8,514.9,673.8,515.4,673.8,515.5z"/>
	<path class="st5" d="M671.5,514.1c0,0.1,0.6-0.1,1.2-0.5c0.7-0.4,1.2-0.7,1.1-0.8s-0.6,0.2-1.3,0.5
		C671.9,513.6,671.4,514,671.5,514.1z"/>
	<path class="st5" d="M670.2,512.9c0.5,0,1.1-0.1,1.6-0.4c0.8-0.4,1.3-0.9,1.2-0.9c-0.5,0.2-0.9,0.4-1.4,0.6
		C671.1,512.4,670.6,512.6,670.2,512.9z"/>
	<path class="st5" d="M675.8,513.1c0.5-0.2,1-0.5,1.4-0.8c0.5-0.4,0.9-0.7,1.3-1.2c0.3-0.3,0.5-0.5,0.7-0.8c0.1-0.2,0.1-0.4,0.1-0.6
		c-0.1-0.2-0.3-0.4-0.5-0.4c-1.5,0.1-2.6,1.2-2.8,2.6c-0.1,0.4-0.1,0.8,0,1.2c0.1,0.3,0.2,0.4,0.2,0.4c-0.1-0.5-0.1-1,0-1.5
		c0.1-0.6,0.4-1.1,0.8-1.5c0.5-0.5,1.1-0.8,1.8-0.9c0.3,0,0.4,0.3,0.2,0.6c-0.2,0.3-0.4,0.5-0.6,0.8c-0.4,0.4-0.8,0.8-1.3,1.2
		C676.4,512.7,675.8,513.1,675.8,513.1z"/>
	<path class="st5" d="M676.3,512.9c0-0.4-0.1-0.8-0.4-1.1c-0.3-0.3-0.6-0.6-1-0.8c-0.5-0.2-1.1-0.2-1.6,0c-0.3,0.2-0.3,0.6,0,0.9
		c0.2,0.2,0.4,0.4,0.6,0.5c0.4,0.2,0.8,0.4,1.2,0.5C675.5,513,675.9,513.1,676.3,512.9c0,0.1-0.5,0-1.1-0.2
		c-0.4-0.1-0.8-0.3-1.1-0.5c-0.4-0.2-0.8-0.6-0.5-0.9c0.4-0.2,0.9-0.2,1.3,0c0.4,0.2,0.7,0.4,1,0.7
		C676,512.3,676.1,512.6,676.3,512.9z"/>
	<path class="st5" d="M651.1,525c0,0,0.6-0.4,1.7-0.9c1.4-0.6,3-0.8,4.5-0.6c1.5,0.2,2.9,0.8,4.1,1.8c0.9,0.7,1.3,1.3,1.4,1.3
		c0,0,0-0.2-0.2-0.4c-0.3-0.4-0.6-0.7-1-1c-1.2-1-2.6-1.7-4.2-1.9c-1.6-0.2-3.2,0-4.7,0.7c-0.4,0.2-0.8,0.4-1.2,0.7
		C651.2,524.8,651,525,651.1,525z"/>
	<path class="st5" d="M664.4,523.1c1.2-0.4,2.4-0.9,3.5-1.5c1.1-0.6,2.2-1.3,3.1-2.1c0-0.1-1.5,0.8-3.3,1.8S664.4,523,664.4,523.1z"
		/>
	<path class="st5" d="M660,525.5c0,0.1,0.3,0.2,0.6,0.5s0.6,0.5,0.7,0.4c0.1,0-0.1-0.4-0.5-0.7S660,525.4,660,525.5z"/>
	<path class="st5" d="M657.1,524.4c0,0.1,0.2,0.2,0.6,0.3s0.7,0.1,0.7,0s-0.2-0.2-0.6-0.3C657.5,524.3,657.1,524.4,657.1,524.4z"/>
	<path class="st5" d="M654.2,524.9c0,0.1,0.4-0.1,0.7-0.2s0.7,0,0.8-0.1c0-0.1-0.3-0.3-0.8-0.2C654.4,524.5,654.1,524.8,654.2,524.9
		z"/>
	<path class="st5" d="M652.3,525.4c0,0.1,0.2,0.1,0.4,0.1c0.2,0,0.4-0.1,0.4-0.2c0-0.1-0.2-0.1-0.4-0.1
		C652.4,525.2,652.2,525.3,652.3,525.4z"/>
	<path class="st5" d="M490,497.7l87.8-79.1c5.4-5.3,12.9-8.3,20.6-8.3l0,0c10.3,0,19.9,5.3,25,13.9l45,73.8L640,513.7l-43.3-52.6
		l-43.3,37.4L490,497.7z"/>
	<path class="st5" d="M464.2,501.7c-0.4,1.1-3,28.1,35,28.1h101.5c12.8,0,23.2-9.9,23.3-22.2c0,0,0,0,0,0l0,0
		c0-12.3-10.4-22.2-23.3-22.2l0,0h-94.5c-3.4,0-6.7,0.7-9.8,2.1L464.2,501.7z"/>
	<path class="st8" d="M609.6,485.4c0,0.2-21,0.4-46.9,0.4s-46.9-0.2-46.9-0.4c0-0.2,20.9-0.4,46.9-0.4S609.6,485.1,609.6,485.4z"/>
	<path class="st8" d="M594,442.6c0.2,0,0.2,4.2,1,9.3c0.8,5.1,2,9.1,1.8,9.2C594.3,455.2,593.4,448.9,594,442.6z"/>
	<path class="st8" d="M598.3,442c0.5,6.4-0.1,12.8-1.7,19c-0.2,0,0.4-4.3,0.8-9.5C597.9,446.2,598.1,442,598.3,442z"/>
	<path class="st5" d="M519.6,323c0.2,1.6-1,2.9-2.7,3.1c-0.8,0.1-1.5-0.1-2.1-0.6c-1.7-1.3-1.5-3.9-0.7-5.8s2-4,1.5-6
		c-0.6-1.5-1.5-2.9-2.6-4.1c-1.6-2.4-2-5.3-1-8c1-2.7,3.6-4.6,6.6-4.9c3-0.2,6.2,1.3,8.8-0.3c1.8-1.1,2.4-3.4,3.9-4.9
		c2.4-2.3,6.2-2,9.5-0.9c3.2,1,6.2,2.7,9.7,2.5c2.8-0.1,5.4-1.5,8.1-2.1c7.9-1.8,15.8,2.9,17.7,10.4c1,4.2,0,8.6-2.8,12
		c-1.4,1.6-4.4,6.5-10.5,5.3"/>
	<path class="st11" d="M523.1,300.9l-0.8,4.2l-12.7,62.9c-1.5,7.3,3.9,14.3,12.1,15.8l0,0c8.3,1.5,16.3-3.3,17.9-10.7
		c1.7-7.7,3.6-15.8,3.6-15.8s10.8,0.4,15.7-12.1c2.5-6.2,4.4-16.9,5.7-25.7c1.1-7.7-4.4-14.7-12.4-15.8c-0.2,0-0.4-0.1-0.6-0.1
		L523.1,300.9z"/>
	<path class="st5" d="M558.5,325.7c-0.2,0.9-1.1,1.5-2,1.3c-0.9-0.1-1.6-0.9-1.5-1.8c0,0,0,0,0,0c0.2-0.9,1.1-1.5,2-1.3
		C558,324,558.6,324.8,558.5,325.7C558.5,325.7,558.5,325.7,558.5,325.7z"/>
	<path class="st5" d="M561.1,324.5c-0.3,0.2-1.4-1-3.2-1.4s-3.5,0.3-3.6,0s0.2-0.5,0.9-0.8c0.9-0.4,2-0.5,3-0.3
		c1,0.2,1.9,0.7,2.5,1.4C561.1,324,561.2,324.4,561.1,324.5z"/>
	<path class="st5" d="M540.6,322.3c-0.2,0.9-1.1,1.5-2,1.4c-0.9-0.1-1.6-0.9-1.5-1.8c0,0,0,0,0,0c0.2-0.9,1.1-1.5,2-1.3
		C540,320.5,540.7,321.3,540.6,322.3C540.6,322.2,540.6,322.2,540.6,322.3z"/>
	<path class="st5" d="M542.6,321.2c-0.2,0.2-1.4-1-3.2-1.4c-1.9-0.4-3.4,0.3-3.6,0c-0.2-0.3,0.2-0.5,0.9-0.8c0.9-0.4,2-0.5,2.9-0.3
		c1,0.2,1.9,0.7,2.5,1.4C542.6,320.7,542.7,321.1,542.6,321.2z"/>
	<path class="st5" d="M546.5,335.8c1-0.1,2.1-0.1,3.1,0c0.5,0,1,0,1.1-0.3c0.2-0.5,0.2-1,0-1.5c-0.2-1.2-0.4-2.4-0.7-3.8
		c-0.7-3.2-1.1-6.5-1.2-9.7c0.9,3.2,1.6,6.4,2,9.6c0.2,1.3,0.4,2.6,0.6,3.8c0.2,0.6,0.1,1.3-0.1,1.9c-0.2,0.3-0.6,0.5-0.9,0.5
		c-0.3,0-0.6,0-0.8,0C548.5,336.3,547.5,336.1,546.5,335.8z"/>
	<path class="st12" d="M543.2,357.3c-6.4-1.2-12.4-4-17.2-8.3c0,0,2.5,9.8,16.3,11.3L543.2,357.3z"/>
	<path class="st5" d="M540.7,336c0.3,0-0.1,2,1.3,3.7c1.4,1.7,3.7,1.9,3.6,2.2c0,0.3-0.6,0.3-1.6,0.1c-1.2-0.2-2.3-0.8-3-1.7
		c-0.7-0.9-1.1-2-1-3.1C540.2,336.4,540.6,335.9,540.7,336z"/>
	<path class="st5" d="M544.6,314.3c-0.3,0.4-2.1-0.1-4.4-0.3s-4.2,0-4.4-0.5c-0.1-0.2,0.3-0.6,1.1-1c1.1-0.4,2.2-0.6,3.4-0.4
		c1.2,0.1,2.3,0.4,3.2,1C544.4,313.6,544.7,314.1,544.6,314.3z"/>
	<path class="st5" d="M561.5,319.2c-0.4,0.3-1.6-0.3-3.1-0.7c-1.6-0.3-2.9-0.3-3.1-0.8c-0.1-0.2,0.2-0.6,0.9-0.9
		c1.8-0.6,3.8-0.2,5.1,1.2C561.6,318.6,561.7,319.1,561.5,319.2z"/>
	<path class="st5" d="M566.3,313.8c0,0-7.7,2.1-16.1-3.9c-5.5-3.9-12.3-6.5-14.1-5.6s-3.1,6.8-9.5,7.5c0,0-1.7,11.4-6.3,10.3
		c-4.7-1.2,1-23.7,1-23.7l13.2,1.9l13.1-0.2l11.7,3.6l8.8,4L566.3,313.8z"/>
	<path class="st5" d="M521.7,295.2c0-0.2,1.2-0.4,2.4,0.3c1.2,0.7,1.6,1.8,1.4,1.9c-0.2,0.1-0.8-0.7-1.8-1.3
		C522.6,295.5,521.7,295.4,521.7,295.2z"/>
	<path class="st5" d="M526.4,292.2c0.2,0-0.1,1.4-0.2,3c-0.1,1.6,0.4,2.8,0.2,3c-0.2,0.1-1-1.2-0.9-3
		C525.4,294.1,525.7,293.1,526.4,292.2z"/>
	<path class="st11" d="M521.6,317.6c-0.2-0.1-7.3-4.1-9,3.4c-1.7,7.6,6.6,7.6,6.6,7.5C519.3,328.3,521.6,317.6,521.6,317.6z"/>
	<path class="st12" d="M517.5,325c0,0-0.2,0-0.4,0.1c-0.4,0.1-0.7,0-1-0.2c-0.9-0.8-1.2-2.1-0.9-3.3c0.1-0.7,0.4-1.3,0.8-1.8
		c0.3-0.5,0.7-0.8,1.3-0.8c0.3,0,0.6,0.2,0.7,0.5c0,0.2,0,0.4,0,0.4c0,0,0.2-0.1,0.2-0.4c0-0.2-0.1-0.4-0.2-0.5
		c-0.2-0.2-0.4-0.3-0.7-0.4c-0.7,0-1.3,0.3-1.7,0.9c-0.5,0.6-0.8,1.3-1,2c-0.4,1.4,0.1,2.8,1.3,3.7c0.4,0.2,0.9,0.2,1.3,0
		C517.5,325.3,517.5,325.1,517.5,325z"/>
	<path class="st8" d="M547.8,322c-0.1,0,0-0.7-0.4-1.9c-0.5-1.7-1.6-3.2-3.1-4.2c-3.6-2.5-8.7-1.7-11.2,1.8
		c-2.6,3.5-1.7,8.3,1.9,10.7c0.5,0.4,1.1,0.7,1.7,0.9c2.6,0.9,5.4,0.5,7.7-1c1.5-1,2.6-2.5,3.1-4.2
		C547.7,322.8,547.7,322.1,547.8,322c0.1,0.1,0,0.2,0,0.6c0,0.5-0.1,1-0.2,1.5c-0.4,1.8-1.5,3.4-3,4.6c-2.3,1.7-5.4,2.2-8.2,1.3
		c-1.6-0.6-3.1-1.6-4.1-2.9c-2.3-2.9-2.3-7,0-9.9c1-1.3,2.4-2.4,4.1-2.9c2.8-1,5.9-0.5,8.2,1.3c1.5,1.1,2.6,2.8,3,4.6
		c0.1,0.5,0.2,1,0.2,1.5C547.8,321.8,547.8,322,547.8,322z"/>
	<path class="st8" d="M568,325.5c-0.1,0,0-0.7-0.4-1.9c-0.5-1.7-1.6-3.2-3.1-4.2c-3.6-2.5-8.6-1.8-11.3,1.6
		c-2.7,3.4-1.9,8.2,1.6,10.8c2.9,2,6.8,2,9.6,0c1.5-1,2.6-2.5,3.1-4.2C567.9,326.2,567.9,325.5,568,325.5c0,0.2,0,0.3,0,0.5
		c0,0.5,0,1-0.2,1.5c-0.4,1.8-1.5,3.5-3.1,4.6c-3.8,2.8-9.3,2.1-12.2-1.5c-1.2-1.5-1.8-3.2-1.8-5.1c0-1.8,0.6-3.5,1.7-5
		c2.9-3.7,8.3-4.5,12.2-1.8c0.1,0,0.1,0.1,0.2,0.1c1.6,1.1,2.7,2.8,3.1,4.6c0.1,0.5,0.2,1,0.2,1.5C568,325.2,568,325.3,568,325.5z"
		/>
	<path class="st8" d="M532,317.6c-3.3,0.5-6.8,0.5-10.1,0c1.6-0.4,3.4-0.5,5-0.4C528.6,317.1,530.3,317.2,532,317.6z"/>
	<path class="st8" d="M551.1,324c-0.2,0.1-0.7-0.6-1.6-0.9s-1.7,0.1-1.9-0.1s0.1-0.3,0.5-0.5c1.1-0.5,2.3-0.2,3,0.8
		C551.3,323.6,551.2,323.9,551.1,324z"/>
	<polygon class="st2" points="532.6,484.7 532.6,479.7 606.8,481.2 649.5,416 653.4,418.7 609.6,485.4 	"/>
	<path class="st11" d="M583.9,463l3.7,5.3v10.9c-1,0.2-2.1-0.2-2.7-1.1c-0.8-2.1-1.4-4.3-1.8-6.5l-1.8,4.5c-0.7,1.8-2.7,2.8-4.7,2.3
		l-13.7-3.3l5.6-15.4L583.9,463z"/>
	<path class="st6" d="M507.9,357.9c0,0-20.5,4.9-26.7,13.7c-6.2,8.8-13.2,23.5-20.7,51.9c-6.6,24.8-11.7,64.4-4.5,73.7
		c4.9,6.4,8,8,8,8l15.9-5.4c15.3-5.2,29.3-13.3,41.3-23.7l24.3-21.2l-12.9-9.7c0,0,9.8-50.5,7.2-68.2
		C537.5,361.5,507.9,357.9,507.9,357.9z"/>
	<path class="st6" d="M513.2,373c-7.9,1.9-15.5,4.9-26.3,5.8c-2.5,0.3-5.1-0.3-7.3-1.5c-6.8-4-4.5-11.5-0.7-16.4
		c4-5.3,10.2-9.9,17-9.2c-1.1-3.4,0.6-7.1,3.9-8.7c3.3-1.5,7.1-1.6,10.5-0.2c3.3,1.4,6.4,3.2,9.2,5.4l11.6,8.4
		c2.8,1.7,5.1,3.9,6.8,6.6c1.6,2.8,7.1,13.6,4.6,15.7c0,0-3.1,0.9-4.7,0l-0.3-0.2C530.7,373.3,521.8,371.2,513.2,373z"/>
	<path class="st6" d="M501.6,382.2L488,442.8c-2.4,10.6,3.8,21.2,14.4,24.9l59,10.8l7.4-21l0,0l-47.9-14.3l14.1-58.6L501.6,382.2z"
		/>
	<path class="st5" d="M487.5,454.4c0.1,0.1,0.1,0.2,0.1,0.4l0.2,1c0,0.2,0.1,0.5,0.2,0.8c0.1,0.3,0.2,0.6,0.3,0.9l0.4,1l0.7,1.1
		c1.2,1.9,2.8,3.6,4.8,4.8c2.6,1.7,5.6,2.9,8.7,3.6l58.4,10.2l-0.4,0.2c2.4-6.7,5-13.7,7.7-21l0.2,0.5l-47.9-14.2l-0.4-0.1l0.1-0.4
		c0.8-3.1,1.7-6.5,2.6-9.8c2.8-10.6,5.4-21,7.7-31.1c1.1-5,2.2-10,2.9-14.9c0.2-1.2,0.2-2.4,0.3-3.6c0-1.2-0.1-2.4-0.4-3.5
		c-0.6-2.3-1.7-4.4-3.3-6.2c-3.1-3.5-7.7-5.4-12.5-5.3c-4.5,0.3-8.8,2.3-11.7,5.7c-2.7,3.1-4.7,6.6-5.9,10.4
		c-1.1,3.6-2,7.2-2.7,10.9c-2.9,14.1-5.2,25.4-6.9,33.3c-0.8,3.9-1.5,7-1.9,9.1c-0.2,1-0.4,1.8-0.5,2.3s-0.2,0.8-0.2,0.8
		s0-0.3,0.1-0.8c0.1-0.5,0.2-1.3,0.4-2.4c0.4-2.1,1-5.2,1.8-9.1c1.6-7.9,3.8-19.3,6.6-33.4c0.7-3.7,1.6-7.4,2.7-11
		c1.2-4,3.3-7.6,6.1-10.8c3-3.5,7.4-5.6,12.1-5.9c5-0.1,9.8,1.9,13.1,5.6c1.7,1.9,2.8,4.1,3.4,6.5c0.3,1.2,0.4,2.5,0.5,3.7
		c-0.1,1.2-0.1,2.5-0.3,3.7c-0.7,4.9-1.8,9.9-2.9,14.9c-2.2,10.1-4.9,20.5-7.6,31.1l-2.6,9.8l-0.3-0.5l47.9,14.3l0.4,0.1l-0.1,0.3
		c-2.7,7.3-5.3,14.4-7.8,21l-0.1,0.3H561c-24.1-4.3-44.2-7.8-58.3-10.4c-3.1-0.7-6.1-2-8.7-3.7c-2-1.3-3.6-3-4.8-5
		c-0.2-0.4-0.4-0.8-0.6-1.2c-0.2-0.4-0.3-0.7-0.4-1.1c-0.1-0.3-0.2-0.6-0.3-0.9l-0.1-0.8c-0.1-0.4-0.1-0.8-0.2-1.1
		C487.5,454.6,487.5,454.5,487.5,454.4z"/>
	<path class="st5" d="M512.7,451.2c-0.1,0-0.2-0.7,0.1-1.8c0.9-2.9,3.3-5.2,6.4-5.9c1.2-0.2,1.9-0.1,1.9,0c0,0.1-0.7,0.2-1.7,0.6
		c-1.3,0.5-2.6,1.2-3.6,2.1c-1,1-1.8,2.1-2.4,3.4C512.9,450.6,512.8,451.3,512.7,451.2z"/>
	<g class="st13">
		<path d="M500.2,381.4c-6.9,21.1-11.6,42.8-14.2,64.8c-0.9,5-1,10.2-0.3,15.2c0.9,5,3.5,10,8,12.7c4.3,2.4,9.5,3.2,14.4,2.1
			c4.9-0.9,12.8-1.9,17.3-4l-26.4-5.2c0,0-17-1-9.7-32.2C496.6,403.8,500.2,381.4,500.2,381.4z"/>
	</g>
	<g class="st13">
		<path d="M477.7,376.2c-0.1,2.5,0.1,5.6,2.5,6.6s5.1-0.9,7-2.6c8-7.1,17.1-13,26.8-17.6c-13.4,0.9-26.1,5.8-36.3,14"/>
	</g>
	<path class="st5" d="M529.4,368.6c-2.3-1.4-4.7-2.7-7.3-3.7c-2.8-1-5.7-1.7-8.7-1.9c-3.6-0.3-7.3,0.1-10.8,1.1
		c-3.5,1.1-6.8,2.5-10,4.2c-3,1.5-5.6,3-7.9,4.1c-1.8,0.9-3.6,1.8-5.5,2.5c-0.7,0.3-1.4,0.5-2.1,0.7c0.6-0.4,1.3-0.7,2-1
		c1.3-0.6,3.1-1.5,5.4-2.7l7.8-4.3c3.2-1.8,6.6-3.2,10.2-4.3c3.6-1.1,7.3-1.4,11.1-1.1c3,0.3,6,1,8.8,2.1c1.9,0.7,3.7,1.7,5.3,2.8
		c0.6,0.4,1,0.8,1.3,1S529.4,368.6,529.4,368.6z"/>
	<path class="st5" d="M537.6,371.8c-0.1,0.1-2-1.7-5.3-4.2c-8.6-6.6-18.6-11.4-29.4-14c-4.1-1-6.7-1.3-6.7-1.5c0.6,0,1.2,0,1.8,0.1
		c1.7,0.2,3.3,0.5,5,0.8c10.9,2.3,21.1,7.2,29.6,14.1c1.3,1,2.5,2.1,3.7,3.3C536.9,370.8,537.3,371.3,537.6,371.8z"/>
	<path class="st2" d="M541.6,420.8c-0.2-0.4-0.3-0.8-0.3-1.3c-0.2-0.8-0.4-2-0.5-3.6c-0.2-1.9-0.1-3.7,0.3-5.6
		c0.3-1.2,1.3-2.2,2.6-2.5c0.8-0.1,1.5,0.2,2,0.8c0.5,0.7,0.5,1.6-0.1,2.2l-0.1,0.1h-0.1c-0.8,0.1-1.7-0.2-2.2-0.8
		c-0.5-0.6-0.9-1.3-1-2.1c-0.2-1.5-0.2-3-0.3-4.5c-0.4-7.1-0.7-13.6-0.9-18.3c-0.1-2.2-0.1-4.1-0.2-5.6c-0.1-0.7-0.1-1.4,0-2
		c0.1,0.7,0.2,1.3,0.3,2c0.1,1.5,0.2,3.3,0.4,5.5c0.3,4.7,0.7,11.2,1.1,18.3c0.1,1.5,0.1,3,0.3,4.4c0.1,0.6,0.3,1.2,0.7,1.7
		c0.4,0.4,1,0.7,1.6,0.6l-0.2,0.1c0.3-0.4,0.3-0.9,0-1.3c-0.3-0.4-0.8-0.6-1.3-0.5c-1,0.2-1.8,1-2,2c-0.4,1.8-0.5,3.6-0.4,5.4
		C541.4,419,541.7,420.8,541.6,420.8z"/>
	<path class="st5" d="M515.9,470.2c-0.6,0.6-1.2,1.2-1.9,1.7c-1.2,1.1-3.1,2.6-5.5,4.4c-6.2,4.7-12.7,8.9-19.4,12.7
		c-6.8,3.8-13.8,7.1-21.1,10c-2.8,1.1-5.1,1.9-6.7,2.4c-0.8,0.3-1.7,0.6-2.5,0.7c0.8-0.4,1.6-0.7,2.5-1c1.6-0.6,3.8-1.5,6.6-2.6
		c7.2-3,14.2-6.4,20.9-10.1c6.7-3.8,13.2-8,19.5-12.6c2.4-1.7,4.3-3.1,5.6-4.1C514.5,471.1,515.2,470.6,515.9,470.2z"/>
	<path class="st5" d="M468.4,504.1c-0.2,0.1-1.1-0.8-2.1-2c-1-1.2-1.6-2.3-1.4-2.5s1.1,0.8,2.1,2C467.9,502.9,468.5,504,468.4,504.1
		z"/>
	<path class="st5" d="M477.8,500.3c-0.1,0.2-1.4-0.5-2.6-1.8c-1.2-1.3-1.8-2.6-1.6-2.7c0.2-0.1,1.1,0.9,2.2,2.1
		C477,499.2,477.9,500.1,477.8,500.3z"/>
	<path class="st5" d="M489.6,496.6c-0.2,0.1-1.5-1-2.9-2.6c-1-0.9-1.8-1.9-2.3-3.1c0.2-0.1,1.5,1,2.9,2.6S489.8,496.4,489.6,496.6z"
		/>
	<path class="st5" d="M502.3,490.1c-0.2,0.1-1.6-1.2-3.1-3c-1-1-1.9-2.2-2.5-3.5c0.2-0.1,1.6,1.2,3.1,3
		C500.9,487.6,501.7,488.8,502.3,490.1z"/>
	<path class="st5" d="M514.1,481.7c-1.3-0.6-2.4-1.4-3.3-2.4c-1.7-1.5-3-2.8-2.8-3c1.3,0.6,2.4,1.4,3.3,2.4
		C513.1,480.2,514.3,481.5,514.1,481.7z"/>
</g>
<g id="freepik--Wifi--inject-4">
	<ellipse class="st8" cx="625.6" cy="223.3" rx="10" ry="9.6"/>
	<path class="st8" d="M605.5,211c10.5-10.8,28.1-11.4,39.4-1.4c0.3,0.3,0.7,0.6,1,0.9c2.3,2,5.9,1.9,8-0.4c2-2.1,2-5.2,0-7.3
		c-15.3-14.7-40.2-14.8-55.6-0.2c-0.2,0.2-0.5,0.4-0.7,0.7C592.6,208.3,600.5,216,605.5,211L605.5,211z"/>
	<path class="st8" d="M571.4,166.1c14.8-12.9,33.9-20.3,54-20.7c20.4-0.2,40.1,7,55.1,20.2c5.3,4.8,13.3-2.9,8-7.6
		c-17.2-15.1-39.7-23.5-63.1-23.3c-23,0.4-45,8.9-62,23.8C557.9,162.9,565.9,170.6,571.4,166.1L571.4,166.1z"/>
	<path class="st8" d="M584.9,190.9c20.4-21.7,55.4-23.5,78.1-4c1.1,0.9,2.2,1.9,3.2,3c5.1,5,13-2.6,8-7.6
		c-25.4-25.4-67.5-26.3-94.1-2.1c-1.1,1-2.1,2-3.2,3.1C572,188.4,579.9,196.1,584.9,190.9L584.9,190.9z"/>
</g>
</svg>
