<?xml version="1.0" encoding="utf-8"?>
<!-- Generator: Adobe Illustrator 25.4.1, SVG Export Plug-In . SVG Version: 6.00 Build 0)  -->
<svg version="1.1" id="Layer_1" xmlns="http://www.w3.org/2000/svg" xmlns:xlink="http://www.w3.org/1999/xlink" x="0px" y="0px"
	 viewBox="0 0 500 500" style="enable-background:new 0 0 500 500;" xml:space="preserve">
<style type="text/css">
	.st0{fill:#FFFFFF;}
	.st1{opacity:0.43;fill:#66CC8A;}
	.st2{opacity:0.43;fill-rule:evenodd;clip-rule:evenodd;fill:#66CC8A;}
	.st3{fill:none;}
	.st4{fill:#263238;}
	.st5{fill:#66CC8A;}
	.st6{opacity:0.8;}
	.st7{fill-rule:evenodd;clip-rule:evenodd;fill:#66CC8A;}
	.st8{opacity:0.6;}
	.st9{fill-rule:evenodd;clip-rule:evenodd;fill:#FFFFFF;}
	.st10{fill:#455A64;}
	.st11{fill:#FFBE9D;}
	.st12{fill:#EB996E;}
	.st13{opacity:0.3;}
	.st14{opacity:0.2;}
</style>
<rect y="0" class="st0" width="500" height="500"/>
<path class="st1" d="M415.6,247.3c0,5.2-4.2,9.4-9.4,9.4s-9.4-4.2-9.4-9.4s4.2-9.4,9.4-9.4S415.6,242.1,415.6,247.3L415.6,247.3z"/>
<circle class="st1" cx="378.1" cy="247.3" r="10.1"/>
<circle class="st1" cx="356.6" cy="229.6" r="10.7"/>
<circle class="st1" cx="352.3" cy="202.2" r="11.1"/>
<circle class="st1" cx="365.9" cy="178.3" r="11.5"/>
<circle class="st1" cx="392.1" cy="168.8" r="12.6"/>
<circle class="st1" cx="427" cy="229.3" r="9.1"/>
<ellipse class="st1" cx="431.9" cy="201.9" rx="8.5" ry="8.5"/>
<ellipse transform="matrix(0.1599 -0.9871 0.9871 0.1599 175.2803 562.0458)" class="st1" cx="417.8" cy="178" rx="7.7" ry="7.7"/>
<path class="st2" d="M142.3,132.5c2.3,2.5,4.3,5.2,5.8,8.2h9.3l3.5,15l-8.4,4.1c-0.1,3.4-0.7,6.7-1.7,9.9l6.6,6.6l-8.2,13.1
	l-8.8-3.1c-2.5,2.3-5.2,4.3-8.2,5.8v9.3l-15,3.5l-4-8.4c-3.4-0.1-6.7-0.7-9.9-1.7l-6.6,6.6l-13.1-8.2l3.1-8.8
	c-2.3-2.5-4.3-5.2-5.8-8.2h-9.3l-3.5-15l8.4-4.1c0.1-3.4,0.7-6.7,1.7-9.9l-6.6-6.6l8.2-13.1l8.8,3.1c2.5-2.3,5.2-4.3,8.2-5.8v-9.3
	l15-3.5l4,8.4c3.4,0.1,6.7,0.7,9.9,1.7l6.6-6.6l13.1,8.2L142.3,132.5L142.3,132.5z M123.9,144.8c-7.8-4.8-18-2.5-22.8,5.3
	s-2.5,18,5.3,22.8c7.7,4.8,18,2.5,22.8-5.3C134,159.9,131.6,149.7,123.9,144.8L123.9,144.8z"/>
<path class="st2" d="M151.4,69.3c1.3,1.4,2.4,2.9,3.2,4.5h5.2l1.9,8.3l-4.7,2.2c-0.1,1.9-0.4,3.7-0.9,5.5l3.7,3.6l-4.5,7.2l-4.9-1.7
	c-1.4,1.3-2.9,2.4-4.5,3.2v5.2l-8.3,1.9l-2.2-4.7c-1.9-0.1-3.7-0.4-5.5-0.9l-3.6,3.7l-7.2-4.5l1.7-4.9c-1.3-1.4-2.4-2.9-3.2-4.5
	h-5.2l-1.9-8.3l4.7-2.2c0.1-1.9,0.4-3.7,0.9-5.5l-3.7-3.6l4.5-7.2l4.9,1.7c1.4-1.3,2.9-2.4,4.5-3.2v-5.2l8.3-1.9l2.2,4.7
	c1.9,0.1,3.7,0.4,5.5,0.9l3.6-3.7l7.2,4.5L151.4,69.3L151.4,69.3z M141.2,76.1c-4.3-2.7-9.9-1.4-12.6,2.9c-2.7,4.3-1.4,9.9,2.9,12.6
	c4.3,2.7,9.9,1.4,12.6-2.9l0,0C146.8,84.5,145.4,78.8,141.2,76.1z"/>
<path class="st3" d="M87.2,79.2c1,1.1,1.9,2.3,2.6,3.7H94l1.6,6.8l-3.8,1.8c-0.1,1.5-0.3,3-0.8,4.4l3,2.9l-3.7,5.9l-3.9-1.4
	c-1.1,1-2.3,1.9-3.7,2.6v4.2l-6.7,1.6l-1.8-3.8c-1.5-0.1-3-0.3-4.5-0.8l-2.9,3l-5.9-3.7l1.4-4c-1-1.1-1.9-2.3-2.6-3.7h-4.2L53.9,92
	l3.8-1.8c0.1-1.5,0.3-3,0.8-4.4l-3-2.9l3.7-5.8l4,1.4c1.1-1,2.3-1.9,3.7-2.6v-4.2l6.7-1.6l1.8,3.8c1.5,0.1,3,0.3,4.4,0.8l2.9-3
	l5.9,3.7L87.2,79.2L87.2,79.2z M78.9,84.7c-3.5-2.2-8.1-1.1-10.2,2.4s-1.1,8.1,2.4,10.2c3.5,2.2,8,1.1,10.2-2.4
	C83.5,91.5,82.4,86.9,78.9,84.7L78.9,84.7z"/>
<path class="st1" d="M78.9,84.7c0,0,0.2,0.1,0.4,0.2c0.4,0.2,0.7,0.5,1.1,0.9c2.1,2.1,2.7,5.2,1.7,8c-0.5,1.3-1.3,2.4-2.4,3.2
	c-1.2,0.9-2.6,1.5-4.1,1.6c-3.3,0.3-6.5-1.7-7.7-4.8c-0.3-0.7-0.5-1.5-0.5-2.2c-0.1-0.7,0-1.5,0.2-2.2c0.3-1.3,0.9-2.6,1.9-3.6
	c0.8-0.9,1.8-1.5,2.9-1.9c1.6-0.6,3.4-0.6,5,0c0.4,0.1,0.9,0.3,1.2,0.6C78.8,84.6,79,84.7,78.9,84.7c0,0.1-0.6-0.3-1.7-0.6
	c-1.6-0.5-3.3-0.4-4.8,0.2c-2.3,0.9-3.9,2.8-4.4,5.2c-0.3,1.4-0.2,2.8,0.4,4.2c0.6,1.4,1.6,2.6,2.9,3.4s2.8,1.2,4.3,1.1
	c0.7,0,1.4-0.2,2.1-0.5c0.6-0.2,1.3-0.6,1.8-1c1.9-1.5,3-3.9,2.8-6.3c-0.1-1.6-0.8-3.2-1.9-4.4C79.5,85.1,78.9,84.7,78.9,84.7z"/>
<path class="st1" d="M87.2,79.2c0,0,0-0.1,0.1-0.2s0.1-0.4,0.2-0.8l1-3v0.1l-5.9-3.6h0.2l-2.9,3l-0.1,0.1h-0.1
	c-1.4-0.4-2.9-0.7-4.4-0.7h-0.1V74l-1.8-3.8l0.2,0.1l-6.7,1.6l0.1-0.2c0,1.3,0,2.7,0,4.2V76h-0.1c-1.3,0.7-2.5,1.6-3.6,2.6l-0.1,0.1
	H63l-4-1.4l0.2-0.1L55.7,83v-0.3l3,3l0.1,0.1v0.1c-0.4,1.4-0.7,2.9-0.7,4.4v0.1L58,90.5l-4,1.8l0.1-0.3c0.5,2.1,1,4.4,1.6,6.7
	l-0.2-0.2h4.2h0.1l0.1,0.1c0.7,1.3,1.6,2.5,2.6,3.6l0,0c0,0.1,0-0.2,0,0.2l0,0l0,0v0.1v0.1l-0.1,0.2l-0.2,0.5l-0.3,1l-0.7,2
	l-0.1-0.3l5.9,3.7h-0.3l3-3l0.1-0.1h0.1c1.4,0.4,2.9,0.7,4.4,0.7h0.1l0.1,0.1c0.6,1.3,1.2,2.5,1.8,3.8l-0.2-0.1l6.8-1.6l-0.2,0.2
	c0-1.4,0-2.8,0-4.2v-0.1l0.1-0.1c1.3-0.7,2.5-1.6,3.6-2.6l0.1-0.1h0.1l4,1.4l-0.2,0.1c1.3-2.1,2.5-4,3.7-5.9v0.2l-3-3L91,95.3v-0.1
	c0.4-1.4,0.7-2.9,0.8-4.4v-0.1h0.1l3.8-1.8l-0.1,0.2c-0.6-2.6-1.1-4.8-1.5-6.8l0.1,0.1h-4.3l0,0c-0.5-1-1.2-1.9-1.9-2.8
	c-0.2-0.3-0.4-0.5-0.5-0.7C87.3,79.3,87.2,79.2,87.2,79.2s0.1,0,0.2,0.2s0.3,0.3,0.6,0.6c0.7,0.9,1.4,1.8,1.9,2.8h-0.1H94h0.1v0.1
	c0.4,1.9,1,4.1,1.6,6.7v0.1h-0.1l-3.8,1.8l0.1-0.1c0,1.5-0.3,3-0.7,4.5v-0.2l3,2.9l0.1,0.1l-0.1,0.1l-3.7,5.9l-0.1,0.1l-0.2-0.1
	l-4-1.4h0.2c-1.1,1-2.4,1.9-3.7,2.7l0.1-0.2c0,1.4,0,2.8,0,4.2v0.2h-0.2l-6.7,1.5h-0.2l-0.1-0.2c-0.6-1.2-1.2-2.5-1.8-3.8l0.2,0.1
	c-1.5-0.1-3-0.3-4.5-0.8h0.2l-2.9,3l-0.1,0.1l-0.2-0.1l-5.9-3.7l-0.2-0.1l0.1-0.2l0.7-2l0.3-1l0.2-0.5l0.1-0.2v-0.1v-0.1l0,0l0,0
	c0.1,0.5,0,0.1,0,0.2l0,0c-1.1-1.1-1.9-2.4-2.7-3.7l0.2,0.1h-4.2h-0.2v-0.2c-0.5-2.3-1.1-4.6-1.5-6.8v-0.2l0.2-0.1l3.8-1.9l-0.1,0.2
	c0.1-1.5,0.3-3,0.8-4.5l0.1,0.2l-3-3l-0.1-0.1l0.1-0.2l3.8-5.8l0.1-0.1h0.2l3.9,1.4H63c1.1-1,2.4-1.9,3.7-2.6l-0.1,0.2
	c0-1.5,0-2.9,0-4.2v-0.2h0.1l6.8-1.5h0.1l0.1,0.1c0.6,1.3,1.2,2.6,1.8,3.8l-0.1-0.1c1.5,0.1,3,0.3,4.5,0.8h-0.1l3-3l0.1-0.1H83
	l5.8,3.7h0.1l0,0l-1.1,2.9c-0.1,0.3-0.2,0.6-0.3,0.8S87.2,79.2,87.2,79.2z"/>
<path class="st0" d="M326.2,41.5l-29.4-0.1c-4,0.1-7.2,3.4-7.2,7.5l0,0v5.3c0.1,4-3.1,7.4-7.2,7.4l0,0l-57.3-0.3
	c-4-0.1-7.2-3.5-7.1-7.5v-5.3c0.1-4-3.1-7.4-7.1-7.5h-10.3l-25.8-0.2c-12.8,0-23.1,10.2-23.2,23L150,434.9
	c-0.1,12.8,10.2,23.2,23,23.2l151.3,0.7c12.8,0.1,23.2-10.2,23.2-23l1.6-371.1C349.2,52,338.9,41.5,326.2,41.5L326.2,41.5z"/>
<path class="st4" d="M326.6,41.7c0,0,0.3,0,0.8,0c0.8,0,1.6,0.1,2.4,0.2c3.1,0.4,6,1.4,8.7,3c2,1.2,3.7,2.6,5.2,4.3
	c1.9,2.1,3.4,4.4,4.4,7c1.2,3,1.8,6.2,1.7,9.4c0,3.4,0,7,0,10.9c-0.1,30.8-0.3,75.4-0.5,130.5s-0.5,120.7-0.8,193.6
	c0,9.1-0.1,18.3-0.1,27.6c0,2.3,0,4.7,0,7c0,2.4-0.3,4.7-0.9,7c-0.7,2.3-1.7,4.5-3,6.5s-3,3.8-4.8,5.3c-3.8,3.1-8.5,4.9-13.4,5.1
	c-1.2,0.1-2.4,0.1-3.6,0H319h-7.3l-29.5-0.1l-60.5-0.3l-30.9-0.1l-15.6-0.1c-5.3,0.3-10.6-1.2-15-4.2c-4.4-3.1-7.6-7.5-9.1-12.7
	c-0.7-2.5-1-5.2-0.9-7.8V426c0-10.4,0.1-20.7,0.1-30.9c0.1-20.5,0.2-40.6,0.3-60.5c0.2-39.6,0.3-77.9,0.5-114.3s0.3-71.1,0.5-103.5
	c0.1-16.2,0.1-31.8,0.2-46.9c0-1.9,0-3.8,0-5.6c0-0.9,0.1-1.9,0.1-2.8s0.2-1.9,0.5-2.8c1.7-7.2,6.7-13.2,13.5-16.1
	c3.2-1.4,6.7-2,10.3-1.9l20.2,0.1L206,41h4.8c1.6-0.1,3.2,0.4,4.5,1.3c1.3,0.9,2.3,2.2,2.8,3.7c0.4,1.5,0.6,3,0.4,4.6
	c0,0.8,0,1.5,0,2.2s0,1.5,0.1,2.2c0.2,1.4,0.8,2.8,1.7,3.9c0.9,1.1,2.2,1.9,3.6,2.2c0.7,0.2,1.4,0.2,2.1,0.2h2.1h8.4l30.5,0.2
	l13.5,0.1c1.1,0,2.1,0.1,3.1,0s2-0.5,2.9-1c1.7-1.1,2.9-2.7,3.3-4.7C290,55,290,54,290,53.1c0-0.9,0-1.9,0-2.8c0-0.9,0-1.8,0.1-2.7
	c0.2-0.9,0.4-1.7,0.9-2.5c0.8-1.5,2.1-2.6,3.7-3.2c1.5-0.7,3.1-0.4,4.6-0.5l15,0.1l9.2,0.1C325.5,41.6,326.5,41.6,326.6,41.7h-3.2
	h-9.2h-15c-1.5-0.2-3.1,0-4.5,0.5c-1.5,0.6-2.8,1.7-3.6,3.2c-0.4,0.7-0.7,1.6-0.9,2.4c-0.1,0.9-0.2,1.8-0.1,2.7c0,0.9,0,1.8,0,2.8
	s0,1.9-0.2,2.9c-0.4,2-1.6,3.7-3.4,4.8c-0.9,0.5-1.9,0.9-2.9,1c-1.1,0.1-2.1,0-3.2,0H267l-30.5-0.1h-8.4H226c-0.7,0-1.5,0-2.2-0.2
	c-1.4-0.4-2.7-1.2-3.7-2.3c-1-1.2-1.6-2.6-1.8-4.1c-0.1-0.7-0.1-1.5-0.1-2.2c0-0.8,0-1.5,0-2.2c0.1-1.5,0-3-0.4-4.5
	c-0.5-1.4-1.4-2.7-2.7-3.5c-1.3-0.9-2.8-1.3-4.3-1.2H206h-9.7l-20.2-0.1c-7.1-0.3-14,2.7-18.6,8.2c-2.3,2.8-4,6.1-4.8,9.6
	c-0.2,0.9-0.3,1.8-0.5,2.7s-0.1,1.8-0.1,2.8c0,1.9,0,3.7,0,5.6c-0.1,15-0.1,30.7-0.2,46.9c-0.1,32.4-0.3,67-0.4,103.5
	s-0.3,74.7-0.5,114.3c-0.1,19.8-0.2,40-0.2,60.5c0,10.2-0.1,20.6-0.1,30.9c0,2.6,0,5.2,0,7.8c-0.1,2.6,0.2,5.2,0.9,7.7
	c1.5,5,4.6,9.3,8.8,12.3c4.3,2.9,9.5,4.4,14.7,4.1l15.6,0.1l30.9,0.1l60.5,0.3l29.5,0.1h7.3h3.6c1.2,0,2.4,0,3.6,0
	c4.8-0.3,9.3-2,13.1-5c1.8-1.5,3.4-3.2,4.7-5.2c1.3-2,2.3-4.1,2.9-6.4c0.6-2.2,0.9-4.6,0.9-6.9v-7c0-9.3,0.1-18.6,0.1-27.6
	c0.3-72.9,0.6-138.5,0.9-193.6s0.5-99.7,0.6-130.5c0-3.8,0-7.5,0.1-10.9c0.1-3.2-0.5-6.4-1.7-9.3c-1-2.5-2.5-4.9-4.3-6.9
	c-3.6-4-8.5-6.6-13.8-7.3c-0.8-0.1-1.6-0.2-2.3-0.2L326.6,41.7z"/>
<path class="st5" d="M299.4,158.5l-2.3-2.7l6.8-3.6l-31.4-10.6l10.6,30.4l3.9-5.1c0,0,20.3,35.8,0,57.5c-20.2,21.6-44,16.9-44,16.9
	l4.6,15c0,0,37.4,2.7,57.5-31.2S299.4,158.5,299.4,158.5z"/>
<path class="st5" d="M205.2,233.5l2.3,2.7l-6.8,3.6l31.4,10.6L221.5,220l-3.9,5.1c0,0-20.3-35.8,0-57.5c20.2-21.6,44-16.9,44-16.9
	l-4.6-15c0,0-37.4-2.7-57.5,31.2S205.2,233.5,205.2,233.5z"/>
<path class="st5" d="M299.4,158.5l-2.3-2.7l6.8-3.6l-31.4-10.6l10.6,30.4l3.9-5.1c0,0,20.3,35.8,0,57.5c-20.2,21.6-44,16.9-44,16.9
	l4.6,15c0,0,37.4,2.7,57.5-31.2S299.4,158.5,299.4,158.5z"/>
<path class="st5" d="M205.2,233.5l2.3,2.7l-6.8,3.6l31.4,10.6L221.5,220l-3.9,5.1c0,0-20.3-35.8,0-57.5c20.2-21.6,44-16.9,44-16.9
	l-4.6-15c0,0-37.4-2.7-57.5,31.2S205.2,233.5,205.2,233.5z"/>
<g class="st6">
	<path class="st0" d="M299.4,158.5l-2.3-2.7l6.8-3.6l-31.4-10.6l10.6,30.4l3.9-5.1c0,0,20.3,35.8,0,57.5c-20.2,21.6-44,16.9-44,16.9
		l4.6,15c0,0,37.4,2.7,57.5-31.2S299.4,158.5,299.4,158.5z"/>
</g>
<g class="st6">
	<path class="st0" d="M205.2,233.5l2.3,2.7l-6.8,3.6l31.4,10.6L221.5,220l-3.9,5.1c0,0-20.3-35.8,0-57.5c20.2-21.6,44-16.9,44-16.9
		l-4.6-15c0,0-37.4-2.7-57.5,31.2S205.2,233.5,205.2,233.5z"/>
</g>
<path class="st7" d="M270.2,178.3c1.5,1.6,2.8,3.4,3.8,5.3h6l2.2,9.7l-5.4,2.6c-0.1,2.2-0.4,4.3-1.1,6.4l4.3,4.2l-5.3,8.5l-5.7-2
	c-1.6,1.5-3.4,2.8-5.3,3.8v6l-9.7,2.3l-2.6-5.4c-2.2-0.1-4.3-0.4-6.4-1.1l-4.2,4.3l-8.5-5.3l2-5.7c-1.5-1.6-2.8-3.4-3.8-5.3h-6
	l-2.2-9.7l5.4-2.6c0.1-2.2,0.4-4.3,1.1-6.4l-4.3-4.2l5.3-8.5l5.7,2c1.6-1.5,3.4-2.8,5.3-3.8v-6l9.7-2.2l2.6,5.4
	c2.2,0.1,4.3,0.4,6.4,1.1l4.2-4.3l8.5,5.3L270.2,178.3L270.2,178.3z M258.3,186.3c-5-3.1-11.6-1.6-14.8,3.4
	c-3.1,5-1.6,11.6,3.4,14.8c5,3.1,11.6,1.6,14.8-3.4l0,0C264.8,196,263.3,189.4,258.3,186.3C258.3,186.2,258.3,186.2,258.3,186.3
	L258.3,186.3z"/>
<g class="st8">
	<path class="st9" d="M258.3,186.2c-5-3.1-11.6-1.6-14.8,3.4c-3.1,5-1.6,11.6,3.4,14.8c5,3.1,11.6,1.6,14.8-3.4
		C264.8,196,263.3,189.4,258.3,186.2L258.3,186.2z"/>
</g>
<path class="st4" d="M335.3,77.7c0,0.1-4,0.2-9,0.3s-9,0-9-0.1s4-0.2,9-0.3S335.3,77.6,335.3,77.7z"/>
<path class="st4" d="M335.4,82.3c0,0.1-4,0.2-9,0.3s-9,0-9-0.1s4-0.2,9-0.3S335.4,82.2,335.4,82.3z"/>
<path class="st4" d="M335.4,86.9c0,0.1-4,0.2-9,0.3s-9.1,0-9.1-0.1s4-0.2,9.1-0.3S335.4,86.8,335.4,86.9z"/>
<path class="st4" d="M170.6,92.2h0.4h1l3.9-0.1l-0.1,0.1c0-0.9,0-1.8,0-2.8c0-0.5,0-1,0-1.6c0.1-0.6,0.7-1.1,1.3-1.2
	c0.6,0,1.2,0,1.9,0c0.7,0.1,1.3,0.8,1.3,1.5c0,1.3,0,2.7,0.1,4.1l-0.2-0.2h4.9l-0.2,0.2c0-2,0-4,0-6.1c0-0.5,0-1,0-1.6
	c0-0.5-0.3-0.9-0.7-1.2l-2.1-2.1l-2.1-2l-1-1c-0.3-0.3-0.6-0.7-1-0.8c-0.4-0.1-0.8,0-1.1,0.2s-0.6,0.6-0.9,0.9l-1.9,1.6
	c-1.1,1.1-2.2,2.2-3.1,3.2c-0.2,0.6-0.3,1.2-0.2,1.8v1.7c0,1,0,2,0,2.8s0,1.3,0,1.8S170.7,92.2,170.6,92.2c0-0.2,0-0.4,0-0.6
	c0-0.5,0-1.1,0-1.8s0-1.7-0.1-2.8c0-0.6,0-1.1,0-1.8c0-0.3,0-0.6,0-1s0.1-0.7,0.3-1c0.9-1.1,2-2.1,3.1-3.3l1.7-1.8
	c0.3-0.3,0.6-0.6,0.9-0.9c0.4-0.3,0.9-0.4,1.4-0.3c0.5,0.2,0.9,0.5,1.2,0.8l1,1l2.1,2l2.1,2.1c0.2,0.2,0.4,0.4,0.5,0.6
	c0.2,0.2,0.3,0.5,0.3,0.8c0,0.5,0,1,0,1.6c0,2.1,0,4.1,0,6.1v0.2H185h-4.9h-0.2v-0.2c0-1.4,0-2.8,0-4.1c0-0.6-0.4-1.1-1-1.2
	c-0.6,0-1.2,0-1.8,0c-0.5,0-0.9,0.4-1.1,0.9c0,0.5,0,1.1,0,1.6v3l0,0h-3.9h-1C170.9,92.3,170.8,92.3,170.6,92.2z"/>
<path class="st4" d="M290.5,88.3c0,0.1-15.2,0.3-34,0.3s-34-0.1-34-0.3s15.2-0.3,34-0.3S290.5,88.1,290.5,88.3z"/>
<path class="st5" d="M288.7,404.3h-71.5c-9.1,0-16.5-7.4-16.5-16.5l0,0c0-9.1,7.4-16.5,16.5-16.5h71.4c9.1,0,16.5,7.4,16.5,16.5l0,0
	C305.3,396.9,297.9,404.3,288.7,404.3z"/>
<path class="st4" d="M320.9,300c0,0.1-30.7,0.3-68.6,0.3s-68.6-0.1-68.6-0.3s30.7-0.3,68.6-0.3S320.9,299.9,320.9,300z"/>
<path class="st4" d="M293.6,308.4c0,0.1-18.5,0.3-41.3,0.3s-41.3-0.1-41.3-0.3s18.5-0.3,41.3-0.3S293.6,308.3,293.6,308.4z"/>
<g id="freepik--Character--inject-15">
	<polygon class="st5" points="103.7,458.2 97.6,480.7 117.4,482.5 121.5,461.1 	"/>
	<path class="st4" d="M117.9,480.7c-1,0.1-1.9,0-2.9-0.1c-1.8-0.1-4.2-0.4-6.9-0.8l-6.9-0.9c-1-0.1-1.9-0.2-2.8-0.5
		c1-0.1,1.9,0,2.9,0.1c1.8,0.1,4.2,0.4,6.9,0.8l6.9,0.9C116.1,480.3,117,480.4,117.9,480.7z"/>
	<g class="st8">
		<polyline class="st0" points="97.6,480.7 117.4,482.5 117.7,480.9 98.2,478.4 97.6,480.5 		"/>
	</g>
	<path class="st4" d="M107.4,479.7c0.5-2.9,1.1-5.8,1.9-8.6c0.6-2.9,1.4-5.7,2.3-8.5c-0.5,2.9-1.1,5.8-1.9,8.6
		C109.1,474.1,108.4,476.9,107.4,479.7z"/>
	<path class="st4" d="M116.8,480.5c0.3-1.4,0.3-2.8,0-4.2c-0.3-1.5-1.1-2.8-2.2-3.9c-1.3-1.3-3.1-2.1-4.9-2.3
		c-1.8-0.2-3.7,0.2-5.3,1.2c-1.3,0.8-2.3,1.9-3.1,3.3c-0.7,1.2-1.1,2.6-1.2,4c0,0,0-0.1,0-0.3c0-0.3,0-0.6,0-0.9
		c0.1-1,0.5-2.1,0.9-3c0.7-1.4,1.8-2.6,3.2-3.5c1.7-1,3.6-1.5,5.6-1.3c3.6,0.3,6.7,3,7.3,6.6c0.2,1,0.2,2.1,0,3.1
		c-0.1,0.3-0.1,0.6-0.2,0.8C116.9,480.4,116.9,480.5,116.8,480.5z"/>
	<path class="st5" d="M185.2,452.2l-1.3,20c0,0,19.9,6.6,20,10.3l-38.8,0.3l0.8-31.2L185.2,452.2z"/>
	<g class="st8">
		<path class="st0" d="M172,470.1c-0.8,0.2-1.3,1-1.1,1.8s1,1.3,1.8,1.2c0.8-0.2,1.3-1,1.2-1.9c-0.3-0.8-1.1-1.2-1.9-1"/>
	</g>
	<g class="st8">
		<path class="st0" d="M165.1,482.8l0.1-3.1l37.5,1c0.8,0.4,1.4,1.2,1.4,2.1H165.1z"/>
	</g>
	<path class="st4" d="M184.5,472c0,0.2-1,0.2-1.9,0.8s-1.5,1.4-1.6,1.3s0.1-1.2,1.3-1.9S184.6,471.8,184.5,472z"/>
	<path class="st4" d="M188.6,473.8c0,0.2-0.8,0.5-1.5,1.3s-0.9,1.6-1.1,1.6s-0.3-1.1,0.6-2S188.6,473.6,188.6,473.8z"/>
	<path class="st4" d="M190.7,478.7c-0.2,0-0.4-0.9,0.1-1.9s1.4-1.4,1.5-1.2s-0.5,0.7-0.9,1.5S190.9,478.7,190.7,478.7z"/>
	<path class="st4" d="M184.3,467.4c-0.1,0.2-0.9-0.1-2-0.1s-1.9,0.4-2,0.2s0.7-0.8,2-0.8S184.4,467.3,184.3,467.4z"/>
	<path class="st4" d="M184.5,463.4c-0.6,0.2-1.3,0.1-1.9-0.1c-0.7-0.1-1.4-0.4-2-0.7c-0.4-0.2-0.7-0.4-1.1-0.6
		c-0.2-0.1-0.4-0.3-0.6-0.5c-0.2-0.3-0.3-0.7-0.1-1s0.5-0.4,0.9-0.4c0.2,0,0.5,0,0.7,0.1c0.4,0.1,0.8,0.3,1.2,0.5
		c0.6,0.3,1.2,0.7,1.8,1.2c0.9,0.9,1.2,1.6,1.1,1.6s-0.5-0.5-1.4-1.3c-0.5-0.4-1.1-0.7-1.7-1c-0.4-0.2-0.7-0.3-1.1-0.4
		c-0.4-0.1-0.8-0.1-0.9,0s0,0.1,0,0.2c0.1,0.1,0.3,0.3,0.4,0.4c0.3,0.2,0.7,0.4,1,0.6c0.6,0.3,1.2,0.6,1.9,0.8
		C183.3,463,183.9,463.2,184.5,463.4z"/>
	<path class="st4" d="M184.3,463.6c-0.3-0.6-0.5-1.2-0.5-1.9c0-1.2,0.3-2.3,0.9-3.3c0.2-0.5,0.7-0.9,1.3-0.9c0.4,0,0.7,0.2,0.8,0.6
		c0.1,0.2,0.2,0.5,0.2,0.7c0.1,0.4,0.1,0.9,0,1.3c-0.1,0.7-0.4,1.4-0.9,2c-0.8,1-1.6,1.2-1.6,1.1s0.6-0.4,1.2-1.4
		c0.3-0.5,0.6-1.2,0.7-1.8c0.1-0.4,0.1-0.7,0-1.1s-0.2-0.8-0.4-0.7s-0.5,0.3-0.7,0.6c-0.2,0.3-0.4,0.7-0.5,1
		c-0.2,0.6-0.4,1.3-0.4,1.9C184.2,462.9,184.4,463.6,184.3,463.6z"/>
	<polygon class="st4" points="185.2,278.8 126.1,278.4 97.5,466.1 122.1,469.2 153.5,314.9 162.9,469.7 162.9,470.2 189.5,469.7 	
		"/>
	<path class="st10" d="M158.3,294c0.4,0,0.8-0.1,1.2-0.1l3.6-0.1l12.8-0.4h0.2v0.2c0,3.7,0,7.9,0,12.3v0.1l-0.1,0.1l-2.2,2l-6.6,6
		l-0.2,0.2l-0.2-0.1l-8.8-7.8l-0.1-0.1v-0.1c0-3.7,0.1-6.8,0.1-9c0-1,0-1.8,0.1-2.4C158.2,294.5,158.3,294.2,158.3,294
		c0,0.2,0,0.5,0,0.8c0,0.6,0,1.5,0.1,2.5c0,2.2,0.1,5.2,0.1,8.9l-0.1-0.1l8.8,7.7h-0.4l6.6-6l2.2-2l-0.1,0.2c0-4.4,0-8.5,0-12.3
		l0.2,0.2l-12.6,0.1h-4.6C158.5,294,158.4,294,158.3,294z"/>
	<path class="st10" d="M130.5,293.2c0.4,0,0.7,0,1.1,0l3.2,0.3l11.5,1h0.2v0.2c-0.4,3.6-0.9,7.8-1.4,12.2v0.1l-0.1,0.1l-2.6,2
		l-6.3,5l-0.2,0.2l-0.2-0.2l-6.9-8.7l-0.1-0.1v-0.1c0.5-3.7,0.9-6.7,1.2-8.9c0.1-1,0.3-1.8,0.4-2.4c0-0.3,0.1-0.5,0.1-0.8
		c0,0.3,0,0.6-0.1,0.9c-0.1,0.6-0.1,1.4-0.2,2.5l-1,8.8v-0.2c2,2.5,4.4,5.4,6.9,8.6h-0.4l6.3-5l2.6-2l-0.1,0.2
		c0.6-4.4,1.1-8.5,1.5-12.2l0.2,0.3l-11.3-1.3l-3.2-0.4C131.3,293.3,130.9,293.3,130.5,293.2z"/>
	<path class="st10" d="M166.7,321.7c-0.9-0.4-1.8-0.8-2.7-1.3c-1.6-0.9-3.9-2-6.4-3.3s-4.8-2.3-6.4-3.1c-0.9-0.4-1.8-0.8-2.7-1.4
		c1,0.2,1.9,0.6,2.8,1c1.7,0.7,4,1.7,6.6,3s4.7,2.5,6.3,3.4C165.1,320.5,165.9,321.1,166.7,321.7z"/>
	<path class="st10" d="M165.9,326.3c-0.7-0.1-1.4-0.4-2-0.8c-3.1-1.6-5.7-4.1-7.3-7.2c-0.4-0.6-0.7-1.3-0.8-2c1.2,2.1,2.6,4,4.3,5.8
		C161.9,323.7,163.8,325.1,165.9,326.3z"/>
	<path class="st10" d="M182.6,380.5c0,0.3-0.1,0.7-0.3,1c-0.3,0.9-0.7,1.7-1.2,2.5c-3.4,5.4-9.7,8.1-15.9,6.7
		c-0.9-0.2-1.8-0.5-2.6-0.9c-0.3-0.1-0.6-0.3-0.9-0.5c1.2,0.4,2.4,0.7,3.6,1c6,1.1,12.1-1.5,15.6-6.5
		C182.1,381.9,182.5,380.5,182.6,380.5z"/>
	<path class="st10" d="M178.7,378.9c-0.7,0.5-1.5,0.8-2.3,1c-1.9,0.6-3.9,0.9-5.9,1s-4,0-5.9-0.4c-0.8-0.1-1.6-0.3-2.4-0.5
		c0-0.2,3.7,0.5,8.3,0.4c2-0.1,3.9-0.3,5.8-0.8C177.8,379.2,178.7,378.8,178.7,378.9z"/>
	<path class="st10" d="M134.8,380c-0.6,0.7-1.3,1.3-2.1,1.9c-1.8,1.3-3.8,2.4-5.9,3.2c-2.1,0.8-4.3,1.3-6.6,1.4
		c-0.9,0.1-1.9,0.1-2.8-0.1c0-0.1,1.1-0.1,2.7-0.3c4.4-0.5,8.6-2.1,12.3-4.6C133.2,381,134,380.5,134.8,380z"/>
	<path class="st10" d="M129.6,379.8c-1.8,0.5-3.6,0.7-5.4,0.5c-1.8-0.1-3.6-0.5-5.3-1.3c0-0.2,2.4,0.5,5.3,0.8
		S129.6,379.6,129.6,379.8z"/>
	<path class="st10" d="M153.2,316.2c-0.8,0.5-1.7,0.9-2.7,1.2c-2.2,0.8-4.5,1.4-6.8,1.8s-4.7,0.5-7,0.5c-1,0-1.9-0.1-2.9-0.3
		c1-0.1,1.9-0.1,2.9-0.1c4.7-0.1,9.3-0.8,13.7-2.2C151.3,316.7,152.2,316.4,153.2,316.2z"/>
	<path class="st10" d="M151.5,310.1c0.1,0,0.3,0.5,0.3,1s-0.1,1-0.3,1s-0.3-0.5-0.3-1S151.4,310.1,151.5,310.1z"/>
	<path class="st10" d="M151.6,305.9c0.1,0,0.3,0.5,0.3,1s-0.1,1-0.3,1s-0.3-0.5-0.3-1S151.4,305.9,151.6,305.9z"/>
	<path class="st10" d="M151.6,301.8c0.1,0,0.3,0.5,0.2,1s-0.1,1-0.3,1s-0.3-0.5-0.2-1S151.5,301.8,151.6,301.8z"/>
	<path class="st10" d="M151.8,297.6c0.1,0,0.2,0.5,0.2,1s-0.2,1-0.3,1s-0.2-0.5-0.2-1S151.6,297.6,151.8,297.6z"/>
	<path class="st10" d="M152.1,293.5c0.1,0,0.2,0.5,0.2,1.1s-0.2,1-0.3,1s-0.2-0.5-0.2-1.1S151.9,293.5,152.1,293.5z"/>
	<path class="st10" d="M152.4,289.3c0.1,0,0.2,0.5,0.2,1s-0.2,1-0.4,1s-0.2-0.5-0.2-1.1S152.2,289.3,152.4,289.3z"/>
	<path class="st10" d="M152.7,285.9c0.1,0,0.2,0.3,0.2,0.7s-0.2,0.6-0.3,0.6s-0.2-0.3-0.2-0.7S152.6,285.9,152.7,285.9z"/>
	<path class="st10" d="M119.3,465.1c0.2,0,0.2,0.5,0.1,1.1s-0.3,1-0.5,1s-0.2-0.5-0.1-1.1S119.1,465,119.3,465.1z"/>
	<path class="st10" d="M120.1,461c0.1,0,0.2,0.5,0.1,1.1s-0.3,1-0.5,1s-0.2-0.5-0.1-1.1S119.9,461,120.1,461z"/>
	<path class="st10" d="M120.9,456.9c0.2,0,0.2,0.5,0.1,1.1s-0.3,1-0.5,1s-0.2-0.5-0.1-1.1S120.8,456.9,120.9,456.9z"/>
	<path class="st10" d="M121.7,452.8c0.2,0,0.2,0.5,0.1,1.1s-0.3,1-0.5,1s-0.2-0.5-0.1-1.1S121.6,452.8,121.7,452.8z"/>
	<path class="st10" d="M122.5,448.8c0.2,0,0.2,0.5,0.1,1.1s-0.3,1-0.5,1s-0.2-0.5-0.1-1.1S122.4,448.7,122.5,448.8z"/>
	<path class="st10" d="M123.3,444.7c0.2,0,0.2,0.5,0.1,1.1s-0.3,1-0.5,1s-0.2-0.5-0.1-1.1S123.2,444.6,123.3,444.7z"/>
	<path class="st10" d="M124.2,440.6c0.1,0,0.2,0.5,0.1,1.1s-0.3,1-0.5,1s-0.2-0.5-0.1-1.1S124,440.6,124.2,440.6z"/>
	<path class="st10" d="M125,436.5c0.2,0,0.2,0.5,0.1,1.1s-0.3,1-0.5,1s-0.2-0.5-0.1-1.1S124.8,436.5,125,436.5z"/>
	<path class="st10" d="M125.8,432.5c0.1,0,0.2,0.5,0.1,1.1s-0.3,1-0.5,1s-0.2-0.5-0.1-1.1S125.7,432.4,125.8,432.5z"/>
	<path class="st10" d="M126.6,428.4c0.2,0,0.2,0.5,0.1,1.1s-0.3,1-0.5,1s-0.2-0.5-0.1-1.1S126.5,428.4,126.6,428.4z"/>
	<path class="st10" d="M127.4,424.3c0.1,0,0.2,0.5,0.1,1.1s-0.3,1-0.5,1s-0.2-0.5-0.1-1.1S127.3,424.3,127.4,424.3z"/>
	<path class="st10" d="M128.2,420.2c0.1,0,0.2,0.5,0.1,1.1s-0.3,1-0.5,1s-0.2-0.5-0.1-1.1S128.1,420.2,128.2,420.2z"/>
	<path class="st10" d="M129.1,416.1c0.1,0,0.2,0.5,0.1,1.1s-0.3,1-0.5,1s-0.2-0.5-0.1-1.1S128.9,416.1,129.1,416.1z"/>
	<path class="st10" d="M129.9,412.1c0.1,0,0.2,0.5,0.1,1.1s-0.3,1-0.5,1s-0.2-0.5-0.1-1.1S129.7,412,129.9,412.1z"/>
	<path class="st10" d="M130.7,408c0.1,0,0.2,0.5,0.1,1.1s-0.3,1-0.5,1s-0.2-0.5-0.1-1.1S130.5,408,130.7,408z"/>
	<path class="st10" d="M131.5,403.9c0.1,0,0.2,0.5,0.1,1.1s-0.3,1-0.5,1s-0.2-0.5-0.1-1.1S131.4,403.9,131.5,403.9z"/>
	<path class="st10" d="M132.3,399.8c0.1,0,0.2,0.5,0.1,1.1s-0.3,1-0.5,1s-0.2-0.5-0.1-1.1S132.2,399.8,132.3,399.8z"/>
	<path class="st10" d="M133.1,395.8c0.1,0,0.2,0.5,0.1,1.1s-0.3,1-0.5,1s-0.2-0.5-0.1-1.1S133,395.7,133.1,395.8z"/>
	<path class="st10" d="M134,391.7c0.1,0,0.2,0.5,0.1,1.1s-0.3,1-0.5,1s-0.2-0.5-0.1-1.1S133.8,391.7,134,391.7z"/>
	<path class="st10" d="M134.8,387.6c0.1,0,0.2,0.5,0.1,1.1s-0.3,1-0.5,1s-0.2-0.5-0.1-1.1S134.6,387.6,134.8,387.6z"/>
	<path class="st10" d="M135.6,383.5c0.1,0,0.2,0.5,0.1,1.1s-0.3,1-0.5,1s-0.2-0.5-0.1-1.1S135.4,383.5,135.6,383.5z"/>
	<path class="st10" d="M136.4,379.5c0.1,0,0.2,0.5,0.1,1.1s-0.3,1-0.5,1s-0.2-0.5-0.1-1.1S136.2,379.4,136.4,379.5z"/>
	<path class="st10" d="M137.2,375.4c0.1,0,0.2,0.5,0.1,1.1s-0.3,1-0.5,1s-0.2-0.5-0.1-1.1S137.1,375.4,137.2,375.4z"/>
	<path class="st10" d="M138,371.3c0.1,0,0.2,0.5,0.1,1.1s-0.3,1-0.5,1s-0.2-0.5-0.1-1.1S137.9,371.3,138,371.3z"/>
	<path class="st10" d="M138.8,367.2c0.1,0,0.2,0.5,0.1,1.1s-0.3,1-0.5,1s-0.2-0.5-0.1-1.1S138.7,367.2,138.8,367.2z"/>
	<path class="st10" d="M139.7,363.1c0.1,0,0.2,0.5,0.1,1.1s-0.3,1-0.5,1s-0.2-0.5-0.1-1.1S139.5,363.1,139.7,363.1z"/>
	<path class="st10" d="M140.5,359.1c0.1,0,0.2,0.5,0.1,1.1s-0.3,1-0.5,1s-0.2-0.5-0.1-1.1S140.3,359,140.5,359.1z"/>
	<path class="st10" d="M141.3,355c0.1,0,0.2,0.5,0.1,1.1s-0.3,1-0.5,1s-0.2-0.5-0.1-1.1S141.1,355,141.3,355z"/>
	<path class="st10" d="M142.1,350.9c0.1,0,0.2,0.5,0.1,1.1s-0.3,1-0.5,1s-0.2-0.5-0.1-1.1S142,350.9,142.1,350.9z"/>
	<path class="st10" d="M142.9,346.9c0.1,0,0.2,0.5,0.1,1.1s-0.3,1-0.5,1s-0.2-0.5-0.1-1.1S142.8,346.8,142.9,346.9z"/>
	<path class="st10" d="M143.7,342.8c0.1,0,0.2,0.5,0.1,1.1s-0.3,1-0.5,1s-0.2-0.5-0.1-1.1S143.6,342.7,143.7,342.8z"/>
	<path class="st10" d="M144.6,338.7c0.1,0,0.2,0.5,0.1,1.1s-0.3,1-0.5,1s-0.2-0.5-0.1-1.1S144.4,338.7,144.6,338.7z"/>
	<path class="st10" d="M145.4,334.6c0.1,0,0.2,0.5,0.1,1.1s-0.3,1-0.5,1s-0.2-0.5-0.1-1.1S145.2,334.6,145.4,334.6z"/>
	<path class="st10" d="M146.2,330.5c0.1,0,0.2,0.5,0.1,1.1s-0.3,1-0.5,1s-0.2-0.5-0.1-1.1S146,330.5,146.2,330.5z"/>
	<path class="st10" d="M147,326.5c0.1,0,0.2,0.5,0.1,1.1s-0.3,1-0.5,1s-0.2-0.5-0.1-1.1S146.9,326.4,147,326.5z"/>
	<path class="st10" d="M147.8,322.4c0.1,0,0.2,0.5,0.1,1.1s-0.3,1-0.5,1s-0.2-0.5-0.1-1.1S147.7,322.4,147.8,322.4z"/>
	<path class="st10" d="M148.6,318.3c0.1,0,0.2,0.5,0.1,1.1s-0.3,1-0.5,1s-0.2-0.5-0.1-1.1S148.5,318.3,148.6,318.3z"/>
	<path class="st11" d="M230.1,192.6c0,0,6.9-10.4,7.1-10.5l0,0c0,0,6.2-10.5,8.3-10.5s1.3,2.1-0.8,5.9c-1,1.6-1.7,3.5-2.1,5.4
		l5.1,3.1c0,0,3.4-1.3,3.6,1.9c0,1.5-0.2,2.9-0.6,4.3c-0.2,1.1-0.7,2.4-1.8,1.9c-0.5-0.2-0.9-0.7-0.9-1.3c-0.1-1.9,0.3-2.6,0-2.6
		s-3.7,9.9-3.7,9.9L230.1,192.6z"/>
	<path class="st11" d="M244.1,184.4c0.5-0.4,1.1-0.7,1.6-1c0.6-0.3,1.2-0.4,1.9-0.3c0.8,0.1,1.4,0.8,1.4,1.6c0,0.2-0.1,0.3-0.1,0.5
		c-0.2,0.5-0.5,1-0.9,1.4"/>
	<path class="st11" d="M241.8,182.4c0.5-0.4,1-0.7,1.6-0.9c0.6-0.3,1.2-0.4,1.8-0.3c0.4,0,0.7,0.2,1,0.5c0.3,0.4,0.4,1,0.2,1.5
		c-0.5,0.7-1,1.4-1.6,2.1"/>
	<path class="st11" d="M232.6,186.7l-10,21.4l11,11.3l5.7-15.9c0,0,3.1,0.6,4.3-1.4c1.4-2.3,3.2-8.9,3.2-8.9L232.6,186.7z"/>
	<path class="st12" d="M239.7,186.1c0.1-1.1,0.5-2.1,1.2-3c0.5-0.6,1-1.1,1.7-1.5c0.5-0.3,0.9-0.4,0.9-0.3s-1.2,0.8-2.2,2.1
		S239.9,186.2,239.7,186.1z"/>
	<path class="st12" d="M250.8,186.2c0,0.1-0.4-0.1-1-0.2c-0.7-0.1-1.5,0-2.2,0.3c-0.6,0.4-1.2,1-1.6,1.6c-0.4,0.5-0.6,0.8-0.7,0.8
		s0.1-0.4,0.3-1c0.4-0.8,1-1.4,1.7-1.9c0.8-0.4,1.7-0.5,2.5-0.2C250.6,185.9,250.8,186.2,250.8,186.2z"/>
	<path class="st12" d="M247.1,183.2c-0.8,0.4-1.6,0.8-2.4,1.4c-1.1,1-1.7,2.1-1.8,2.1c0.1-1,0.7-1.9,1.5-2.5c0.5-0.5,1.2-0.8,1.8-1
		C246.7,183.1,247.1,183.2,247.1,183.2z"/>
	<path class="st12" d="M249.5,187.8c0.1-0.1,0.4,0.8-0.1,1.6s-1.4,1-1.4,0.8s0.5-0.4,0.9-1.1S249.4,187.9,249.5,187.8z"/>
	<path class="st11" d="M230.2,192.2c0,0-0.4-6.4,1.2-7.8s6,0.1,6,0.1"/>
	<path class="st12" d="M238,181.4c-0.6,1.3-1.4,2.5-2.3,3.6c-0.8,1.2-1.7,2.3-2.7,3.3C234.4,185.8,236,183.5,238,181.4L238,181.4z"
		/>
	<path class="st11" d="M149.4,133l-0.1,49.8l21.4,1l0.6-12.1c0,0,7.6,1.5,9.5-5.5c1.3-4.5,0.9-39.3,0.9-39.3L149.4,133z"/>
	<path class="st4" d="M184.6,130.4c-3.4,1-4.1,6.5-4.1,6.5l-5.3,11.6c-2.7-2.1-6.3-2-7,2.8c-0.5,3.4,3.8,4.1,3.8,4.1
		c-2.5,4.2-4.1,7.6-7.8,11.6c-3.9,4.3-6.1,4.8-10.3,4.8h-4.6c0,0-2.3-7.4-6.5-25.9c-4.7-20.5,19.6-17.9,24.1-23.1
		C174.2,114.2,195.2,127.3,184.6,130.4z"/>
	<path class="st4" d="M143.2,147.8c-3.9-2.6-4.3-10-2-14.5c2.4-4.5,7-7.4,12.1-7.5c0.7,0,1.4,0,2-0.2c0.9-0.5,1.6-1.2,2.1-2
		c3.5-4.6,7-9.1,13.5-9.1c1.4-0.1,2.9,0.3,4.1,1c1.2,0.8,2,1.9,2.5,3.3c1.2-0.6,2.5-1.1,3.8-1.4c1.4-0.3,2.8,0.1,3.9,0.9
		c1.1,0.9,1.3,2.5,0.6,3.7c2.3,0,4.3,1.6,4.6,3.9c0.4,2.2-2.8,3.7-3.1,3.9c0,0,1.7,3.6-2.4,5.8c-1.6,0.9-3.8-0.2-4-0.3"/>
	<path class="st10" d="M158.8,152.6c0.3,1.2,0.2,2.6-0.1,3.8c-0.2,1.3-0.7,2.5-1.5,3.5c-0.1-0.1,0.5-1.6,1-3.6
		S158.6,152.6,158.8,152.6z"/>
	<path class="st10" d="M161.4,150.1c0.2,1.2,0.1,2.5-0.2,3.6c-0.1,1.2-0.5,2.4-1.1,3.5c0.1-1.2,0.3-2.4,0.6-3.6
		C160.8,152.5,161,151.3,161.4,150.1z"/>
	<path class="st10" d="M168.8,141.9c0,0.1-0.6,0.5-1.3,1.4c-1,1.2-1.8,2.5-2.3,4s-1,3-1.3,4.5c-0.1,0.7-0.3,1.3-0.5,1.9
		c0-0.7,0-1.3,0.1-2c0.2-1.6,0.6-3.1,1.1-4.6c0.6-1.5,1.4-2.9,2.5-4C167.6,142.6,168.1,142.2,168.8,141.9z"/>
	<path class="st10" d="M171.8,136.3c0.2,0.4,0.4,0.9,0.4,1.4c0.3,2.3-0.3,4.6-1.6,6.5c-0.5,0.7-1,1-1,1c0.8-1.3,1.5-2.7,1.9-4.2
		C171.8,139.4,171.9,137.9,171.8,136.3z"/>
	<path class="st10" d="M146.3,148.8c-0.1,0.1-0.7-0.1-1.5-0.5s-1.3-0.8-1.2-1s0.7,0.1,1.5,0.5S146.3,148.6,146.3,148.8z"/>
	<path class="st10" d="M156.6,143.4c0.1,0.8-0.1,1.6-0.6,2.2c-0.7,1.1-1.6,1.7-1.6,1.6s0.6-0.8,1.2-1.8S156.4,143.4,156.6,143.4z"/>
	<path class="st10" d="M159.8,141.7c0,0.9-0.4,1.9-0.9,2.6c-0.9,1.3-1.9,2-2,1.9c0.5-0.8,1-1.5,1.6-2.2
		C158.8,143.2,159.3,142.5,159.8,141.7z"/>
	<path class="st10" d="M175.5,120.9c0,0-0.4-0.3-1.2-0.8c-1.1-0.6-2.3-0.9-3.6-0.9c-1.8,0-3.7,0.4-5.2,1.4c-1.9,1.2-3.4,3-4.5,5
		c-0.8,1.5-1.4,3.1-1.8,4.7l-0.1,0.3l-0.3-0.1c-1.5-0.8-3.1-1.2-4.8-1.2c-1.3,0-2.6,0.2-3.9,0.6c-1.1,0.4-2.2,0.9-3.2,1.6
		c0.2-0.2,0.4-0.5,0.7-0.6c0.7-0.5,1.5-0.9,2.4-1.3c1.3-0.5,2.6-0.7,4-0.7c1.7,0,3.5,0.4,5,1.2l-0.4,0.2c0.4-1.7,1-3.3,1.8-4.8
		c1.1-2.1,2.7-3.9,4.7-5.2c1.7-1,3.6-1.5,5.5-1.4c1.3,0.1,2.6,0.4,3.7,1.1c0.3,0.2,0.6,0.4,0.8,0.7
		C175.5,120.8,175.6,120.9,175.5,120.9z"/>
	<path class="st10" d="M186.8,123.6c0,0,0.6-0.2,1.2,0.6c0.4,0.4,0.5,1,0.5,1.6c-0.1,0.8-0.6,1.4-1.2,1.8c-0.8,0.4-1.7,0.6-2.6,0.4
		c-1-0.2-1.9-0.7-2.7-1.3c-0.8-0.6-1.7-1.2-2.6-1.8c-1-0.5-2-0.9-3.1-1.1c-2.2-0.4-4.4-0.2-6.4,0.4c-1.7,0.6-3.3,1.4-4.8,2.4
		c-1.3,1-2.6,2.1-3.8,3.2c0.2-0.4,0.5-0.7,0.9-1.1c0.8-0.9,1.7-1.7,2.7-2.5c1.5-1.1,3.1-2,4.8-2.6c2.2-0.7,4.5-0.9,6.7-0.5
		c1.2,0.2,2.3,0.6,3.3,1.2c0.9,0.6,1.8,1.2,2.6,1.9c0.7,0.6,1.6,1,2.5,1.3c0.8,0.2,1.6,0.1,2.3-0.2c0.6-0.3,1-0.8,1.1-1.5
		c0.1-0.5-0.1-1-0.4-1.4C187.6,123.9,187.2,123.7,186.8,123.6z"/>
	<path class="st5" d="M126.7,188l-19.1,32c-2.1,3.7-4.1,7.7-6,11.9c-1.5,4.2-0.7,8.9,2,12.4l-0.5-0.8c2.1,2.6,5.3,4.1,8.7,4.1h0.5
		c4.4,0,8.4-2.6,10.2-6.7l6.1-9.3L126.7,188z"/>
	<path class="st5" d="M184.3,181.9c-5.1-2.6-10.2-3.2-15.7-3.4c-6.4-0.2-15.5-1.1-22.4-0.4c0,0-19.7,1.5-21.1,15l2.7,63.5l-4.5,26.9
		l63.2,1.9l-0.5-31.8c0.8-16.5-0.9-39.9-0.9-39.9c1-8.9,5.8-12.9,6.5-18.6C192.2,190.1,188.8,184.2,184.3,181.9z"/>
	<path class="st4" d="M166.4,257.5c-0.3,0.3-0.6,0.6-0.9,0.9c-0.9,0.7-1.9,1.4-2.9,2c-6.8,3.9-15.2,4.1-22.2,0.4
		c-1-0.5-2-1.2-2.9-1.9c-0.4-0.2-0.7-0.5-1-0.9c0.1-0.1,1.5,1.1,4.1,2.4c6.9,3.4,15.1,3.3,21.9-0.4
		C165,258.7,166.4,257.5,166.4,257.5z"/>
	<path class="st4" d="M125,193.9c0,0.2,0.1,0.4,0.1,0.6c0,0.5,0.1,1.1,0.1,1.8c0.1,1.6,0.2,3.8,0.3,6.5c0.2,5.6,0.6,13.2,0.9,21.6
		s0.7,16,1,21.5c0.1,2.7,0.2,4.9,0.3,6.5c0,0.7,0.1,1.3,0.1,1.8c0,0.2,0,0.4,0,0.6c-0.1-0.2-0.1-0.4-0.1-0.6
		c-0.1-0.5-0.1-1.1-0.2-1.8c-0.2-1.5-0.3-3.8-0.5-6.5c-0.4-5.5-0.8-13.1-1.1-21.5s-0.6-16-0.7-21.6c0-2.7-0.1-4.9-0.1-6.5
		c0-0.7,0-1.3,0-1.8C125,194.3,125,194.1,125,193.9z"/>
	<path class="st4" d="M121,197.2c0,0.2-0.1,0.3-0.2,0.5l-0.7,1.4c-0.6,1.2-1.6,2.9-2.8,4.9c-2.4,4.1-6,9.7-9.7,16
		c-1.8,3.2-3.4,6.3-4.7,9.1c-1.3,2.5-1.9,5.2-1.8,8c0.1,1.9,0.6,3.7,1.5,5.4c0.6,1.2,1.1,1.7,1.1,1.8c-0.1-0.1-0.3-0.2-0.4-0.4
		c-0.3-0.4-0.6-0.8-0.9-1.3c-1-1.7-1.5-3.5-1.7-5.4c-0.1-2.9,0.5-5.7,1.8-8.2c1.3-2.9,2.9-6,4.7-9.2c3.7-6.3,7.3-11.9,9.8-16
		c1.2-2,2.2-3.6,2.9-4.8c0.3-0.5,0.6-1,0.8-1.3S121,197.2,121,197.2z"/>
	<path class="st5" d="M237.3,214.7l-14.6-9.6l-9.2,16c0,0-12.8-17.8-18.6-28.2c-5.4-9.6-12.3-12.2-15.6-12.9
		c-0.8-0.2-1.6,0.3-1.7,1.1c0,0.2,0,0.3,0,0.5l5,34.6c0.6,1.8,11.2,17.1,17.1,24.8c9.9,12.9,24.4,4.6,28.3-4.4
		C231.1,229.5,236,218.7,237.3,214.7z"/>
	<path class="st4" d="M217.6,235.5c-0.2-0.7-0.3-1.5-0.3-2.3c-0.1-1.8-0.4-3.7-0.7-5.4c-0.4-1.8-1-3.5-1.9-5.1
		c-0.7-1.2-1.3-1.9-1.2-1.9c0.6,0.5,1.1,1.1,1.5,1.7c1,1.6,1.7,3.4,2.1,5.2c0.4,1.8,0.6,3.7,0.6,5.5
		C217.8,234,217.8,234.8,217.6,235.5z"/>
	<path class="st4" d="M221.9,228.4c-0.1,0-0.2-0.7-0.5-1.9c-0.5-1.5-1.3-2.8-2.3-3.9c-1-1.2-2.4-1.9-3.9-2.1c-0.6,0-1.3,0.1-1.9,0.3
		c-0.1,0,0.6-0.7,1.9-0.7c1.7,0.1,3.2,0.9,4.3,2.1c1.1,1.2,1.9,2.6,2.3,4.2C222,227,222,227.7,221.9,228.4z"/>
	<path class="st4" d="M178.2,184.3c-0.1,0.1-0.2,0.3-0.4,0.4l-0.4,0.5c-0.2,0.2-0.4,0.4-0.6,0.7c-1.2,1.5-2,3.1-2.5,4.9
		c-0.8,2.6-1,5.4-0.6,8.2c0.2,1.6,0.6,3.2,1.2,4.7c0.7,1.6,1.5,3.2,2.4,4.7c3.6,6.3,7.3,11.7,9.9,15.7c1.3,1.9,2.4,3.5,3.2,4.6
		c0.4,0.6,0.8,1.1,1.2,1.7c0,0-0.1-0.1-0.4-0.4s-0.6-0.7-1-1.2c-0.8-1-2-2.6-3.4-4.5c-3.6-5-6.9-10.2-10-15.6
		c-0.9-1.5-1.7-3.1-2.4-4.8c-0.6-1.5-1.1-3.1-1.3-4.8c-0.4-2.8-0.2-5.7,0.7-8.4c0.6-1.8,1.5-3.5,2.7-4.9l0.6-0.6l0.5-0.4
		C178.1,184.4,178.2,184.2,178.2,184.3z"/>
	<path class="st4" d="M178.3,276.2c-0.1,0.1-0.3,0.1-0.4,0.2l-1.3,0.5c-0.6,0.2-1.3,0.4-2.1,0.6s-1.8,0.5-2.8,0.7
		c-2.5,0.6-5,1-7.5,1.4c-6.2,0.8-12.4,0.8-18.6,0.1c-2.5-0.3-5-0.8-7.5-1.3c-1.1-0.2-2-0.5-2.8-0.7s-1.5-0.4-2.1-0.6l-1.3-0.5
		c-0.3-0.1-0.5-0.2-0.4-0.2c0.2,0,0.3,0,0.5,0.1l1.3,0.4c0.6,0.2,1.3,0.4,2.1,0.5s1.8,0.5,2.8,0.6c2.1,0.5,4.6,0.9,7.4,1.2
		c3.1,0.3,6.1,0.5,9.2,0.5c3.1,0,6.2-0.2,9.2-0.6c2.8-0.4,5.3-0.8,7.4-1.2c1.1-0.2,2-0.5,2.8-0.7s1.5-0.4,2.1-0.5l1.3-0.4
		C178,276.2,178.1,276.2,178.3,276.2z"/>
	<g class="st13">
		<polygon points="123.8,238.9 126.7,234.5 125.2,199.6 		"/>
	</g>
	<g class="st13">
		<path d="M173.1,197.2c0,0,0.1,12.7,3,17.8s9.9,15.9,9.9,15.3s-0.4-9-0.4-9S173.2,204.3,173.1,197.2z"/>
	</g>
	<path class="st0" d="M121.3,240c-0.3,0.2-0.6,0.2-0.9,0.3c-0.9,0.1-1.8,0-2.6-0.3c-1.2-0.5-2.3-1.2-3.2-2.1c-1-1.2-1.9-2.5-2.7-3.9
		c-0.7-1.4-1.5-2.7-2.4-4c-0.7-1-1.6-1.9-2.6-2.6c-1-0.6-2-1.1-3.2-1.2c0.3-0.1,0.7-0.1,1,0c0.9,0.1,1.7,0.5,2.4,0.9
		c1.1,0.7,2,1.6,2.8,2.6c0.9,1.3,1.7,2.6,2.4,4c0.7,1.4,1.6,2.6,2.6,3.8c0.8,0.9,1.9,1.6,3,2.1C119,240,120.2,240.1,121.3,240z"/>
	<path class="st0" d="M125.2,218.1c-0.1,0-0.3-0.8-0.9-1.9c-1.6-3-4.4-5.1-7.7-5.8c-1.2-0.3-2.1-0.3-2.1-0.4c0.7-0.2,1.4-0.2,2.1,0
		c3.5,0.6,6.5,2.8,8,6C124.9,216.6,125.1,217.3,125.2,218.1z"/>
	<path class="st0" d="M173.4,199.3c0,0-0.7-0.1-1.9-0.2c-1.8-0.1-3.5,0-5.2,0.5c-2.5,0.7-5,1.6-7.3,2.9c-2.6,1.4-5.4,3.1-8.5,4.6
		c-3,1.4-6.1,2.2-9.4,2.4c-2.7,0.2-5.3-0.1-7.9-0.7c-1.7-0.4-3.4-1-5-1.8c-0.6-0.3-1-0.5-1.3-0.7s-0.4-0.3-0.4-0.3s0.6,0.3,1.8,0.8
		c1.6,0.7,3.3,1.3,5,1.7c2.5,0.6,5.2,0.8,7.8,0.6c3.2-0.2,6.3-1,9.2-2.4c3.1-1.4,5.9-3.1,8.5-4.5c2.3-1.3,4.8-2.2,7.4-2.8
		c1.7-0.4,3.5-0.5,5.3-0.3c0.5,0.1,1,0.1,1.4,0.3C173,199.2,173.2,199.3,173.4,199.3z"/>
	<path class="st0" d="M185.6,233.9c-0.2,0.1-0.4,0.2-0.6,0.2c-0.6,0.2-1.1,0.3-1.7,0.4c-2.1,0.4-4.2,0.6-6.4,0.5
		c-3.2-0.1-6.3-0.6-9.4-1.3c-3.5-0.8-7.3-1.9-11.2-3.1c-3.7-1.1-7.5-2-11.3-2.5c-3.1-0.4-6.3-0.5-9.4-0.1c-2.1,0.3-4.2,0.8-6.1,1.7
		c-1.4,0.6-2.1,1-2.1,1c0.2-0.1,0.3-0.2,0.5-0.3c0.4-0.2,0.8-0.5,1.5-0.8c1.9-0.9,4-1.5,6.1-1.9c3.2-0.4,6.4-0.4,9.5,0
		c3.9,0.5,7.7,1.4,11.4,2.5c4,1.2,7.7,2.3,11.2,3.1c3.1,0.8,6.2,1.2,9.3,1.4c2.1,0.1,4.3,0,6.4-0.3
		C184.8,234.1,185.6,233.9,185.6,233.9z"/>
	<path class="st0" d="M186,253.7c-2.6-1.2-5.4-1.9-8.3-2.2c-3.1-0.3-6.3-0.1-9.4,0.3c-3.5,0.5-7.3,1.3-11.4,2s-7.9,1.4-11.4,1.7
		c-3.1,0.3-6.3,0.3-9.5-0.1c-2.1-0.3-4.2-0.8-6.2-1.5c-0.7-0.2-1.2-0.5-1.6-0.7c-0.2-0.1-0.4-0.2-0.5-0.3c0-0.1,0.8,0.3,2.2,0.8
		c2,0.7,4.1,1.1,6.2,1.3c3.1,0.3,6.3,0.3,9.4,0c3.5-0.3,7.4-1,11.4-1.8s7.9-1.6,11.4-2c3.1-0.5,6.3-0.5,9.5-0.2
		c2.1,0.2,4.2,0.8,6.2,1.6c0.5,0.2,1.1,0.5,1.6,0.8C185.7,253.5,185.8,253.6,186,253.7z"/>
	<path class="st0" d="M153.5,279.2c-0.4-0.2-0.7-0.4-1-0.6c-0.6-0.4-1.5-1.1-2.6-1.8c-2.9-1.9-6-3.7-9.1-5.2c-3.2-1.5-6.4-2.9-9.8-4
		c-1.3-0.4-2.3-0.8-3-1c-0.4-0.1-0.8-0.2-1.1-0.4c0.4,0,0.8,0.1,1.2,0.2c0.8,0.2,1.8,0.4,3.1,0.8c6.8,2,13.2,5.2,19,9.2
		c1.1,0.8,2,1.5,2.6,1.9C153,278.6,153.3,278.9,153.5,279.2z"/>
	<path class="st0" d="M184.3,278.9c-0.6,0.5-1.3,0.8-2.1,1c-3.6,1.3-7.6,1.2-11.2-0.3c-0.7-0.3-1.4-0.7-2-1.2
		c0.7,0.2,1.5,0.5,2.2,0.8c1.7,0.6,3.6,0.9,5.4,1c1.9,0,3.7-0.2,5.5-0.7C183.4,279.2,184.2,278.8,184.3,278.9z"/>
	<path class="st0" d="M206.2,212.8c0,0.3,0,0.6-0.1,0.9c-0.2,0.8-0.6,1.5-1.2,2.1c-0.8,0.9-1.7,1.7-2.8,2.3c-1.3,0.7-2.6,1.3-4,1.8
		c-1.3,0.5-2.6,1.2-3.8,2c-0.9,0.7-1.7,1.6-2.3,2.6c-0.5,1-0.7,2-0.6,3.1c-0.1-0.3-0.2-0.6-0.2-0.9c0-0.8,0.1-1.7,0.5-2.4
		c0.5-1.1,1.3-2.1,2.3-2.8c1.2-0.9,2.5-1.6,3.9-2.1s2.7-1.1,4-1.7c1-0.5,2-1.3,2.8-2.1C205.3,214.8,205.9,213.9,206.2,212.8z"/>
	<path class="st0" d="M193.9,191.6c0,0.3-0.1,0.6-0.2,0.9c-0.1,0.3-0.2,0.7-0.3,1c-0.1,0.5-0.3,0.9-0.5,1.3
		c-0.5,1.1-1.1,2.2-1.8,3.3c-0.9,1.3-1.9,2.4-3,3.5c-1.1,1-2.3,2-3.7,2.8c-1.1,0.6-2.2,1.2-3.4,1.6c-0.4,0.2-0.9,0.3-1.4,0.4
		c-0.3,0.1-0.7,0.2-1,0.2c-0.3,0.1-0.6,0.1-0.9,0.1c0-0.1,1.3-0.4,3.2-1.1c1.1-0.5,2.2-1,3.2-1.6c2.5-1.6,4.8-3.7,6.5-6.1
		c0.7-1,1.3-2,1.9-3.1C193.5,192.9,193.8,191.6,193.9,191.6z"/>
	<path class="st0" d="M174.6,178.5c-0.5,0.3-1,0.5-1.4,0.6c-0.9,0.4-2.3,0.9-4.1,1.4s-3.9,1.1-6.2,1.6c-5.2,1-10.4,1.4-15.7,1.1
		c-2.1-0.1-4.3-0.3-6.4-0.6c-1.8-0.3-3.3-0.6-4.3-0.8c-0.5-0.1-1-0.2-1.5-0.4c0.5,0,1.1,0.1,1.6,0.2c1,0.2,2.5,0.4,4.3,0.7
		s4,0.4,6.4,0.5c2.6,0.1,5.2,0.1,7.8-0.1c2.6-0.2,5.2-0.5,7.8-1c2.4-0.5,4.5-1,6.2-1.5s3.2-0.9,4.1-1.3
		C173.6,178.8,174.1,178.6,174.6,178.5z"/>
	<path class="st0" d="M213.9,222c0.2,0.3,0.3,0.6,0.4,1c0.2,0.9,0.4,1.9,0.4,2.9c0,3.2-0.3,6.4-1,9.6c-0.3,1.8-0.7,3.5-1.4,5.1
		c-0.5,1.4-1.3,2.6-2.3,3.7c-0.7,0.7-1.5,1.3-2.4,1.7c-0.3,0.2-0.6,0.3-1,0.3c1.2-0.6,2.2-1.3,3.1-2.3c0.9-1.1,1.7-2.3,2.1-3.6
		c0.6-1.6,1-3.3,1.3-5.1c0.7-3.1,1.1-6.3,1.1-9.4C214.3,224.6,214.1,223.3,213.9,222z"/>
	<path class="st0" d="M234,224.6c-0.1,0-0.6-1-1.6-2.5c-1.4-2-3.1-3.7-5.1-5.1c-2-1.4-4.2-2.4-6.5-3c-1.8-0.5-3-0.5-2.9-0.6
		c0.3-0.1,0.5-0.1,0.8,0c0.7,0,1.5,0.1,2.2,0.3c1.1,0.2,2.1,0.6,3.2,1c2.5,1,4.8,2.6,6.6,4.6c0.7,0.8,1.4,1.7,2,2.6
		c0.4,0.6,0.7,1.3,1,2C233.8,224.1,233.9,224.4,234,224.6z"/>
	<g class="st13">
		<path d="M175.2,277c0.9-0.5,1.3-1.6,0.8-2.5c0-0.1-0.1-0.2-0.1-0.2c-0.8-0.8-1.8-1.1-2.9-1c-5.2,0.1-9.7,3.6-14.8,4.5
			c-3.9,0.7-7.9-0.1-11.6-1.2s-7.4-2.6-11.3-3.4c-0.8-0.2-1.6-0.2-2.4-0.1c-0.8,0.2-1.5,0.8-1.6,1.7c-0.1,0.8,0.1,1.4,1.3,1.8
			c0,0,12.8,3.6,22,3.4C161.6,279.8,168.5,278.7,175.2,277z"/>
	</g>
</g>
<g id="freepik--Plant--inject-15">
	<rect x="371.9" y="423.8" class="st4" width="69.8" height="9.6"/>
	<path class="st4" d="M441.8,433.5h-70v-9.8h70V433.5z M372,433.2h69.5v-9.4H372V433.2z"/>
	<polygon class="st4" points="378.4,430.2 388.4,479.7 425.6,479.7 435.3,433.4 	"/>
	<polygon class="st10" points="378.4,475 383.8,482.4 428.9,482.4 435.3,475 	"/>
	<path class="st4" d="M404.2,431.6c-0.1,0-0.3-23-0.4-51.2s0-51.3,0.1-51.3s0.3,22.9,0.4,51.3S404.3,431.6,404.2,431.6z"/>
	<path class="st4" d="M419.7,374.2c0,0.2-0.1,0.4-0.2,0.5c-0.2,0.4-0.4,0.9-0.6,1.5l-0.5,1.1c-0.1,0.4-0.3,0.8-0.5,1.3
		s-0.3,1-0.5,1.5s-0.3,1.1-0.5,1.7c-0.8,2.8-1.5,5.7-2,8.5c-0.5,3.5-0.9,7.1-1.1,10.7c-0.3,6.5-0.1,13,0.5,19.5
		c0.2,2.5,0.5,4.5,0.6,5.9c0.1,0.6,0.1,1.2,0.2,1.6c0,0.2,0,0.4,0,0.6c-0.1-0.2-0.1-0.4-0.1-0.5l-0.3-1.6c-0.2-1.4-0.5-3.4-0.8-5.9
		c-0.7-6.5-1-13-0.7-19.6c0.2-3.6,0.6-7.2,1.1-10.7c0.5-2.9,1.2-5.8,2.1-8.6c0.2-0.6,0.4-1.2,0.6-1.7l0.6-1.5l0.5-1.3
		c0.2-0.4,0.4-0.7,0.5-1.1l0.7-1.5C419.5,374.5,419.6,374.3,419.7,374.2z"/>
	<path class="st4" d="M418,355.6c0,0.3-0.1,0.5-0.2,0.8c-0.2,0.5-0.4,1.2-0.7,2.1l-0.5,1.5c-0.2,0.6-0.4,1.2-0.6,1.9
		c-0.4,1.3-0.9,2.8-1.3,4.5c-0.2,0.8-0.5,1.7-0.7,2.6s-0.4,1.9-0.7,2.9c-0.5,2-0.8,4.2-1.3,6.4c-0.8,4.5-1.4,9.6-1.9,14.9
		s-0.6,10.4-0.7,15s0,8.8,0.2,12.3c0.1,1.8,0.2,3.3,0.3,4.7s0.2,2.6,0.2,3.6s0.1,1.7,0.2,2.2c0,0.3,0,0.5,0,0.8
		c-0.1-0.3-0.1-0.5-0.1-0.8c-0.1-0.6-0.2-1.3-0.3-2.2s-0.2-2.2-0.3-3.6s-0.2-3-0.3-4.7c-0.2-3.5-0.3-7.7-0.3-12.3s0.2-9.7,0.7-15.1
		s1.2-10.4,2-15c0.5-2.3,0.8-4.5,1.3-6.5c0.2-1,0.5-2,0.7-2.9s0.5-1.8,0.7-2.7c0.4-1.7,0.9-3.2,1.4-4.5c0.2-0.7,0.4-1.3,0.6-1.9
		s0.4-1.1,0.6-1.5l0.8-2.1C417.8,356.1,417.9,355.8,418,355.6z"/>
	<path class="st4" d="M399.8,435.7c0-0.1,0-0.2,0-0.3c0-0.2,0-0.5-0.1-0.8l-0.2-3c-0.2-2.7-0.4-6.5-0.7-11.2
		c-0.6-9.4-1.5-22.5-3.1-36.8c-0.8-7.2-1.8-14-2.7-20.1c-0.5-3.1-1-6-1.5-8.8s-1-5.3-1.5-7.6s-1-4.4-1.4-6.2s-0.8-3.4-1.1-4.7
		l-0.7-3c-0.1-0.3-0.1-0.6-0.2-0.8c0-0.1,0-0.2,0-0.3c0,0.1,0.1,0.2,0.1,0.3c0.1,0.2,0.1,0.5,0.2,0.8c0.2,0.7,0.5,1.7,0.8,2.9
		s0.8,2.8,1.2,4.7s1,3.9,1.5,6.2s1.1,4.8,1.6,7.6s1,5.7,1.6,8.7c1,6.2,2,13,2.8,20.2c1.6,14.4,2.4,27.4,2.9,36.9
		c0.3,4.7,0.4,8.5,0.5,11.2c0,1.3,0.1,2.3,0.1,3c0,0.3,0,0.6,0,0.8C399.8,435.5,399.8,435.6,399.8,435.7z"/>
	<path class="st5" d="M403.6,340.1c-0.3-3.2-3.6-5.7-6.9-5.7s-6.3,1.9-8.3,4.5c-1.9,2.7-3.2,5.7-4,8.9c-2.2,7.7-3.4,15.7-2.5,23.6
		s4.1,15.7,9.8,21.3c0.9,0.9,2.1,1.8,3.4,1.5c0.7-0.2,1.3-0.6,1.8-1.1c11.2-10.3,17.5-25,17.1-40.2c-0.1-3-0.5-6.1-2.1-8.6
		S406.5,339.1,403.6,340.1"/>
	<path class="st5" d="M379.2,314.1l-4.6,8.3c-0.1,0.2-0.2,0.4-0.5,0.4s-0.4-0.2-0.5-0.4l-12.2-18.7l2.8-1.6L379.2,314.1z"/>
	<g class="st14">
		<path d="M379.2,314.1l-4.6,8.3c-0.1,0.2-0.2,0.4-0.5,0.4s-0.4-0.2-0.5-0.4l-12.2-18.7l2.8-1.6L379.2,314.1z"/>
	</g>
	<path class="st5" d="M403.9,329.1l-41.5-24.5c-0.4-0.2-0.8-0.6-1-1c0-0.6,0.2-1.3,0.7-1.7c5.8-6,13.9-9.2,22.2-8.7
		c8.3,0.6,15.8,5.3,20,12.5C408.3,312.9,408.5,322.3,403.9,329.1"/>
	<path class="st4" d="M368.4,296.8c0.2,0,0.4-0.1,0.5-0.1c0.4,0,0.9-0.1,1.6-0.1c1.9,0,3.9,0.1,5.8,0.5c2.8,0.5,5.6,1.3,8.2,2.5
		c9.2,4.1,16,12.1,18.6,21.8c0.5,1.9,0.8,3.8,1,5.7c0.1,0.7,0.1,1.2,0.1,1.6c0,0.2,0,0.4,0,0.5c0,0-0.1-0.8-0.3-2.1
		c-1.7-14.9-13-27-27.7-29.6c-1.9-0.4-3.8-0.6-5.7-0.6C369.2,296.8,368.4,296.9,368.4,296.8z"/>
	<path class="st4" d="M398.3,312.2c-0.7,0.4-1.4,0.8-2.1,1c-1.3,0.5-3.2,1.2-5.2,1.8s-4,1.2-5.3,1.5c-0.7,0.2-1.5,0.4-2.3,0.4
		c0.7-0.3,1.4-0.6,2.2-0.8l5.3-1.6l5.3-1.7C396.8,312.6,397.5,312.4,398.3,312.2z"/>
	<path class="st4" d="M391.8,294.7c0.4,1.5,0.5,3.1,0.5,4.6c0.1,1.6,0,3.1-0.2,4.6c-0.2-1.5-0.3-3.1-0.2-4.6
		C391.6,297.8,391.6,296.2,391.8,294.7z"/>
	<path class="st4" d="M362.1,304.2c1-0.4,2-0.8,3-1.1c1.9-0.6,4.5-1.3,7.4-2s5.6-1.2,7.5-1.6c1-0.2,2.1-0.4,3.2-0.4
		c-1,0.3-2.1,0.6-3.1,0.8c-1.9,0.4-4.6,1-7.5,1.7s-5.5,1.4-7.5,1.9C364.2,303.8,363.1,304,362.1,304.2z"/>
	<path class="st5" d="M384.8,332.4c-3.6-2.7-7.3-3.2-11.8-3.1c-4.5,0.3-8.9,1.4-13,3.3c-7,3.1-13.6,7.6-17.7,14s-5.6,14.9-2.5,21.8
		c0.2,0.7,0.7,1.3,1.4,1.7c0.8,0.2,1.6,0.2,2.3-0.2c8-2.6,16-5.2,23.3-9.3s14-9.7,17.9-17.1c1-1.7,1.7-3.7,1.9-5.7
		C386.8,336,386.1,334,384.8,332.4"/>
	<path class="st4" d="M384.9,331.6c-0.2,0.1-0.4,0.2-0.6,0.2l-1.7,0.6l-1.2,0.4c-0.4,0.1-0.9,0.4-1.4,0.5c-1,0.4-2.2,0.8-3.4,1.4
		l-2,0.9c-0.7,0.3-1.4,0.7-2.1,1.1c-1.4,0.7-2.9,1.6-4.5,2.5c-3.3,2.1-6.5,4.4-9.4,7s-5.6,5.4-8.1,8.5c-1.1,1.4-2.2,2.8-3.1,4.1
		c-0.5,0.7-0.9,1.3-1.3,1.9l-1.1,1.8c-0.8,1.1-1.3,2.2-1.8,3.2l-0.7,1.3l-0.5,1.1l-0.8,1.6c-0.1,0.2-0.2,0.4-0.3,0.5
		c0-0.2,0.1-0.4,0.2-0.6l0.7-1.6c0.1-0.4,0.3-0.7,0.5-1.2s0.4-0.9,0.7-1.4c0.5-1,1-2.1,1.8-3.2l1.1-1.9c0.4-0.6,0.9-1.3,1.3-2
		c0.9-1.4,2-2.7,3.1-4.1c4.9-6.2,10.9-11.4,17.7-15.5c1.6-0.9,3-1.8,4.5-2.5c0.7-0.4,1.4-0.7,2.1-1l2-0.9c1.2-0.6,2.4-1,3.5-1.4
		l1.4-0.5l1.2-0.4l1.7-0.5C384.5,331.7,384.7,331.6,384.9,331.6z"/>
	<path class="st4" d="M357,346.7c-2.8,1.1-5.7,2-8.7,2.8c-2.9,0.9-5.8,1.7-8.8,2.3c2.8-1.1,5.7-2,8.7-2.8
		C351.1,348.1,354,347.3,357,346.7z"/>
	<path class="st4" d="M356.6,365.8c-0.2-0.9-0.2-1.8-0.2-2.7c0-1.7-0.1-4,0-6.5s0.2-4.9,0.4-6.5c0-0.9,0.1-1.8,0.3-2.7
		c0.1,0.9,0.1,1.8,0,2.7c0,1.8-0.1,4.1-0.2,6.5s-0.1,4.7-0.2,6.5C356.8,364,356.8,364.9,356.6,365.8z"/>
	<path class="st4" d="M373,357.5c-0.1,0-0.6-4.7-1-10.5s-0.6-10.5-0.5-10.5s0.6,4.7,1,10.5S373.2,357.5,373,357.5z"/>
	<path class="st4" d="M352.6,336c0.9-0.1,1.9-0.1,2.8-0.1c1.7,0,4.1,0.1,6.7,0.1s5,0.2,6.7,0.3c0.9,0,1.9,0.1,2.8,0.3
		c-0.9,0.1-1.9,0.1-2.8,0.1c-1.7,0-4.1-0.1-6.7-0.1s-5-0.2-6.7-0.3C354.5,336.3,353.5,336.2,352.6,336z"/>
	<path class="st4" d="M393.6,394.9c0-0.2-0.1-0.4-0.1-0.6c0-0.4,0-1-0.1-1.6c-0.1-1.4-0.1-3.5,0-6s0.2-5.5,0.5-8.9s0.8-7,1.5-10.8
		s1.5-7.4,2.4-10.6s1.8-6.1,2.6-8.5s1.5-4.3,2.1-5.6l0.6-1.5c0.1-0.2,0.1-0.3,0.2-0.5c0,0.2-0.1,0.4-0.1,0.5
		c-0.1,0.4-0.3,0.9-0.5,1.5c-0.5,1.3-1.2,3.3-1.9,5.7s-1.6,5.3-2.5,8.5s-1.6,6.8-2.3,10.6s-1.1,7.4-1.5,10.8s-0.5,6.3-0.6,8.9
		s-0.1,4.6-0.1,6c0,0.7,0,1.2,0,1.6C393.7,394.6,393.7,394.8,393.6,394.9z"/>
	<path class="st4" d="M395.8,366.6c-0.5,0.7-1,1.3-1.6,1.8c-1.1,1.1-2.6,2.5-4.3,4s-3.4,2.9-4.6,3.8c-0.6,0.5-1.3,1-2,1.4
		c0.5-0.6,1.1-1.1,1.8-1.6l4.5-3.9l4.4-3.9C394.5,367.6,395.1,367.1,395.8,366.6z"/>
	<path class="st4" d="M408.9,377.2c-0.6-0.8-1.2-1.6-1.8-2.4l-4.1-6l-4.2-5.9c-0.6-0.8-1.2-1.6-1.7-2.5c0.7,0.7,1.4,1.5,2,2.3
		c1.1,1.5,2.7,3.5,4.3,5.9s3,4.5,4,6.1C408.1,375.4,408.5,376.3,408.9,377.2z"/>
	<path class="st4" d="M402,344c0.1,0.1-4.3,3-9.7,6.6s-9.9,6.2-10,6.1s4.3-3,9.7-6.5S402,343.8,402,344z"/>
	<path class="st4" d="M414.4,357.2c-2.3-1.9-4.5-3.9-6.6-6.1c-2.2-2-4.3-4.2-6.2-6.5c2.3,1.9,4.5,4,6.6,6.1
		C410.3,352.8,412.4,355,414.4,357.2z"/>
	<path class="st5" d="M417.4,357l3.7-0.3c2.7-0.2,5.2-1,7.6-2.3c1.1-0.7,2.3-1.3,3.5-1.8c4.6-1.9,9.8-1.5,14.8-1.8
		c8.2-0.4,16.1-2.4,23.5-6c0.4-0.2,0.8-0.5,1-0.9c0.8-1.4-0.7-2.6-1.9-3.4c-6.3-3.9-12.7-7.8-19.9-9.8s-15.3-1.6-21.4,2.6
		C421.2,338.3,418.6,348.3,417.4,357"/>
	<path class="st4" d="M471.6,343.4c-0.2-0.1-0.4-0.2-0.6-0.3l-1.8-0.9c-1.5-0.8-3.8-2-6.5-3.3c-3.3-1.6-6.7-2.9-10.1-3.9
		c-4.3-1.2-8.7-1.6-13.1-1.1s-8.6,2.3-12,5.1c-2.7,2.5-4.8,5.4-6.2,8.8c-1,2.2-1.9,4.5-2.7,6.8c-0.3,0.8-0.5,1.4-0.7,1.9
		c-0.1,0.2-0.2,0.4-0.3,0.6c0-0.2,0.1-0.5,0.2-0.7l0.6-1.9c0.7-2.4,1.6-4.7,2.6-6.9c1.4-3.4,3.6-6.5,6.3-9c3.5-2.9,7.7-4.8,12.2-5.3
		s9-0.1,13.3,1.1c3.5,1,6.9,2.4,10.2,4c2.8,1.4,5,2.6,6.5,3.5l1.7,1C471.3,343.1,471.5,343.2,471.6,343.4z"/>
	<path class="st4" d="M462.7,348.2c-0.1,0.1-5-3.1-10.9-7.1s-10.7-7.4-10.7-7.5s5,3,10.9,7.1S462.7,348.1,462.7,348.2z"/>
	<path class="st4" d="M458,333.2c-1.2,0.5-2.5,0.7-3.8,0.8c-1.3,0.2-2.6,0.2-3.9,0c1.3-0.3,2.6-0.4,3.9-0.4
		C455.4,333.3,456.7,333.2,458,333.2z"/>
	<path class="st4" d="M436,329.2c-0.4,1.1-0.9,2.2-1.6,3.2c-0.5,1.1-1.2,2.1-2,3c0.4-1.1,0.9-2.2,1.6-3.2
		C434.5,331.2,435.2,330.2,436,329.2z"/>
	<path class="st4" d="M440.4,351.1c-0.8-0.3-1.6-0.8-2.4-1.3c-1.4-0.9-3.3-2.1-5.4-3.6s-3.9-2.9-5.1-3.9c-0.7-0.5-1.4-1.1-2-1.7
		c0.8,0.4,1.5,0.9,2.2,1.5l5.2,3.8c2,1.5,3.9,2.8,5.3,3.7C439,350,439.7,350.5,440.4,351.1z"/>
	<path class="st5" d="M423,372.9c-3.6-0.9-7.8,2.5-8.6,6.1s0.6,7.3,2.2,10.6c3.4,7.5,8.4,14.1,14.7,19.3c6.4,5.1,14.4,8.4,22.6,8.3
		c-1.5-7,0.4-14.3-0.4-21.5c-1.5-12.9-11.8-23.1-24.7-24.5C426.5,371.1,423.9,370.8,423,372.9"/>
	<path class="st4" d="M453.9,417.3c-0.2-0.1-0.3-0.1-0.5-0.2c-0.5-0.3-0.9-0.6-1.3-0.9c-1.5-1.3-2.7-2.9-3.5-4.7
		c-0.6-1.1-1.2-2.3-1.8-3.6s-1.2-2.8-1.9-4.2c-0.7-1.6-1.5-3.1-2.4-4.5c-1-1.6-2.1-3-3.2-4.4c-2.5-2.9-5.1-5.4-7.3-7.7
		c-2.1-2.1-3.9-4.3-5.6-6.7c-1.1-1.6-2-3.4-2.7-5.2c-0.2-0.5-0.3-1-0.5-1.5c-0.1-0.2-0.1-0.4-0.1-0.5c0,0,0.2,0.7,0.8,2
		c0.8,1.8,1.7,3.5,2.9,5.1c1.7,2.3,3.6,4.6,5.6,6.6c2.3,2.4,4.9,4.8,7.4,7.7c1.2,1.4,2.3,2.9,3.3,4.5c0.9,1.5,1.7,3,2.4,4.6l1.9,4.3
		c0.6,1.3,1.2,2.5,1.8,3.6c0.8,1.8,1.9,3.4,3.3,4.7C453.3,416.9,454,417.2,453.9,417.3z"/>
	<path class="st4" d="M435.5,411.5c0-0.8,0.1-1.6,0.3-2.4c0.3-1.5,0.7-3.5,1.4-5.7s1.3-4.2,1.8-5.6c0.2-0.8,0.6-1.5,1-2.2
		c-0.1,0.8-0.4,1.6-0.6,2.3c-0.4,1.4-1,3.4-1.7,5.6s-1.1,4.2-1.5,5.6C436,409.9,435.8,410.7,435.5,411.5z"/>
	<path class="st4" d="M453.3,394.3c-0.9-0.1-1.7-0.3-2.5-0.6c-1.5-0.4-3.7-1-6-1.5s-4.5-0.9-6.1-1.2c-0.9-0.1-1.7-0.3-2.5-0.5
		c0.9,0,1.7,0,2.6,0.2c1.6,0.2,3.8,0.6,6.1,1.1s4.5,1.1,6,1.6C451.7,393.6,452.5,393.9,453.3,394.3z"/>
	<path class="st4" d="M422.2,399.3c0-0.9,0.2-1.9,0.4-2.8c0.3-1.7,0.8-4,1.5-6.6s1.4-4.9,1.9-6.5c0.2-0.9,0.6-1.8,1-2.6
		c-0.2,0.9-0.4,1.8-0.7,2.7c-0.5,1.7-1.1,4-1.8,6.5s-1.2,4.9-1.6,6.6C422.8,397.5,422.5,398.4,422.2,399.3z"/>
	<path class="st4" d="M445.1,379.3c0,0.1-4.5-0.2-10-0.8c-3.3-0.3-6.6-0.7-9.9-1.3c0-0.1,4.5,0.2,10,0.8
		C438.5,378.2,441.8,378.7,445.1,379.3z"/>
	<path class="st10" d="M441.8,433.3c0,0.1-15.7,0.2-35,0.2s-35-0.1-35-0.2s15.7-0.2,35-0.2S441.8,433.2,441.8,433.3z"/>
	<path class="st10" d="M430.9,453.5c0,0.1-10.6,0.2-23.6,0.2s-23.6-0.1-23.6-0.2s10.5-0.2,23.6-0.2S430.9,453.3,430.9,453.5z"/>
	<path class="st10" d="M431.3,456.4c0,0.1-10.6,0.2-23.6,0.2s-23.6-0.1-23.6-0.2s10.6-0.2,23.6-0.2S431.3,456.2,431.3,456.4z"/>
	<path class="st10" d="M431.3,451.1c0,0.1-10.9,0.2-24.4,0.2s-24.4-0.1-24.4-0.2s10.9-0.2,24.4-0.2S431.3,451,431.3,451.1z"/>
</g>
<g id="freepik--Floor--inject-15">
	<path class="st4" d="M461.2,482.4c0,0.1-94.6,0.3-211.2,0.3s-211.2-0.1-211.2-0.3s94.6-0.3,211.2-0.3S461.2,482.2,461.2,482.4z"/>
</g>
<g>
	<path class="st0" d="M230.2,389.3c0,0.5-0.1,0.9-0.3,1.3c-0.2,0.4-0.5,0.7-0.9,0.9s-0.8,0.3-1.4,0.3s-1-0.1-1.3-0.3
		c-0.4-0.2-0.7-0.5-0.9-0.9c-0.2-0.4-0.3-0.8-0.3-1.3v-7.2h-2v7.4c0,0.8,0.2,1.5,0.6,2.1c0.4,0.6,0.9,1.1,1.6,1.4
		c0.7,0.3,1.5,0.5,2.4,0.5c0.9,0,1.7-0.2,2.4-0.5c0.7-0.3,1.2-0.8,1.6-1.4c0.4-0.6,0.6-1.3,0.6-2.1v-7.4h-2V389.3z"/>
	<path class="st0" d="M240.9,382.5c-0.6-0.3-1.3-0.5-2.2-0.5h-4.2v11.3h2v-3.8h2.2c0.9,0,1.6-0.2,2.2-0.5s1-0.8,1.4-1.3
		c0.3-0.6,0.5-1.2,0.5-1.9c0-0.7-0.2-1.4-0.5-1.9C242,383.3,241.5,382.9,240.9,382.5z M240.4,386.9c-0.2,0.3-0.4,0.6-0.7,0.7
		c-0.3,0.2-0.7,0.3-1.2,0.3h-1.9v-4.1h1.9c0.5,0,0.9,0.1,1.3,0.3c0.3,0.2,0.6,0.4,0.7,0.7c0.2,0.3,0.2,0.7,0.2,1.1
		S240.6,386.6,240.4,386.9z"/>
	<path class="st0" d="M251.3,382.7c-0.8-0.5-1.8-0.7-2.9-0.7h-3.9v11.3h3.8c1.1,0,2.1-0.2,3-0.7c0.8-0.5,1.4-1.1,1.9-1.9
		c0.4-0.8,0.7-1.9,0.7-3c0-1.2-0.2-2.2-0.7-3C252.7,383.8,252.1,383.2,251.3,382.7z M251.4,389.9c-0.3,0.6-0.7,1-1.2,1.3
		s-1.2,0.4-2,0.4h-1.7v-7.8h1.7c0.8,0,1.4,0.1,1.9,0.4c0.5,0.3,0.9,0.7,1.2,1.3c0.3,0.6,0.4,1.3,0.4,2.2S251.7,389.3,251.4,389.9z"
		/>
	<path class="st0" d="M258.4,382.1l-4,11.3h2.2l0.9-2.8h4.3l0.9,2.8h2.2l-4-11.3H258.4z M258.1,388.9l1.5-4.6h0.1l1.5,4.6H258.1z"/>
	<polygon class="st0" points="264.6,383.8 268.1,383.8 268.1,393.4 270.1,393.4 270.1,383.8 273.6,383.8 273.6,382.1 264.6,382.1 	
		"/>
	<polygon class="st0" points="277.4,391.7 277.4,388.6 282.3,388.6 282.3,386.8 277.4,386.8 277.4,383.8 282.7,383.8 282.7,382.1 
		275.3,382.1 275.3,393.4 282.7,393.4 282.7,391.7 	"/>
</g>
</svg>
